<?xml version="1.0" encoding="UTF-8" standalone="no"?><!DOCTYPE svg PUBLIC "-//W3C//DTD SVG 1.1//EN" "http://www.w3.org/Graphics/SVG/1.1/DTD/svg11.dtd"><svg width="3099px" height="764px" version="1.1" xmlns="http://www.w3.org/2000/svg" xmlns:xlink="http://www.w3.org/1999/xlink" xml:space="preserve" xmlns:serif="http://www.serif.com/" style="fill-rule:evenodd;clip-rule:evenodd;stroke-linejoin:round;stroke-miterlimit:2;"><g transform="matrix(1,0,0,1,-931.090107,-1372.254309)"><g transform="matrix(1,0,0,1,-56.814593,597.311115)"><g transform="matrix(1,0,0,1,1294.341676,297.637795)"><path d="M-306,872L-306,484L-181,484C-133,484 -102,486 -88,490C-65,496 -47,508 -32,528C-17,547 -9,572 -9,603C-9,627 -14,647 -22,663C-31,679 -42,692 -55,701C-69,711 -82,717 -96,720C-115,724 -142,725 -177,725L-228,725L-228,872L-306,872ZM-228,550L-228,660L-185,660C-154,660 -134,658 -123,653C-113,649 -105,643 -99,634C-93,626 -90,616 -90,604C-90,590 -94,579 -103,569C-111,560 -121,554 -134,552C-143,550 -162,550 -190,550L-228,550ZM39,680C39,641 45,608 57,581C66,561 78,543 93,528C108,512 125,500 143,493C167,482 195,477 227,477C284,477 329,495 364,530C398,566 415,615 415,678C415,741 398,790 364,825C330,861 285,878 228,878C170,878 124,861 90,826C56,790 39,742 39,680ZM120,678C120,721 130,755 150,777C170,800 196,811 227,811C259,811 284,800 304,778C324,755 334,721 334,676C334,632 324,599 305,577C285,555 260,544 227,544C195,544 169,555 149,577C130,600 120,633 120,678ZM476,872L476,484L641,484C683,484 713,487 732,494C750,501 765,514 777,532C788,549 794,570 794,593C794,622 785,646 768,665C751,684 725,696 691,701C708,710 722,721 733,733C744,745 759,766 778,796L825,872L731,872L675,787C655,757 641,738 634,730C626,722 618,717 610,714C602,711 589,710 571,710L555,710L555,872L476,872ZM555,648L613,648C650,648 674,646 683,643C692,640 700,634 705,627C710,619 713,609 713,598C713,585 709,574 702,566C695,558 686,553 673,551C667,550 648,550 616,550L555,550L555,648ZM955,872L955,550L840,550L840,484L1148,484L1148,550L1033,550L1033,872L955,872ZM1199,872L1199,484L1465,484L1465,550L1277,550L1277,641L1439,641L1439,707L1277,707L1277,872L1199,872ZM1513,680C1513,641 1519,608 1531,581C1540,561 1552,543 1567,528C1582,512 1599,500 1617,493C1641,482 1669,477 1701,477C1758,477 1804,495 1838,530C1872,566 1889,615 1889,678C1889,741 1872,790 1838,825C1804,861 1759,878 1702,878C1644,878 1598,861 1564,826C1530,790 1513,742 1513,680ZM1594,678C1594,721 1604,755 1624,777C1645,800 1670,811 1702,811C1733,811 1758,800 1778,778C1798,755 1808,721 1808,676C1808,632 1799,599 1779,577C1760,555 1734,544 1702,544C1669,544 1643,555 1624,577C1604,600 1594,633 1594,678ZM1953,872L1953,487L2031,487L2031,806L2225,806L2225,872L1953,872ZM2279,872L2279,484L2357,484L2357,872L2279,872ZM2416,680C2416,641 2422,608 2434,581C2442,561 2454,543 2470,528C2485,512 2502,500 2520,493C2544,482 2572,477 2603,477C2661,477 2706,495 2741,530C2775,566 2792,615 2792,678C2792,741 2775,790 2741,825C2707,861 2661,878 2604,878C2547,878 2501,861 2467,826C2433,790 2416,742 2416,680ZM2497,678C2497,721 2507,755 2527,777C2547,800 2573,811 2604,811C2635,811 2661,800 2681,778C2701,755 2711,721 2711,676C2711,632 2701,599 2682,577C2662,555 2636,544 2604,544C2572,544 2546,555 2526,577C2506,600 2497,633 2497,678Z"/></g><g transform="matrix(1,0,0,1,1810.027711,581.803485)"><path d="M202,872L202,633L233,633L233,751L352,633L395,633L295,730L399,872L357,872L272,751L233,789L233,872L202,872ZM411,785C411,753 420,730 437,714C452,701 470,695 492,695C516,695 535,703 550,718C565,734 573,755 573,783C573,805 569,823 563,835C556,848 546,858 534,865C521,872 507,876 492,876C468,876 448,868 433,852C418,837 411,814 411,785ZM441,785C441,807 446,824 455,835C465,846 477,851 492,851C506,851 518,846 528,835C538,824 543,807 543,784C543,763 538,747 528,736C518,725 506,719 492,719C477,719 465,725 455,736C446,747 441,763 441,785ZM607,872L607,633L636,633L636,719C650,703 667,695 688,695C701,695 712,697 721,702C731,708 738,714 742,723C746,732 748,745 748,762L748,872L719,872L719,762C719,747 715,737 709,730C703,723 694,720 682,720C673,720 665,722 658,727C650,731 644,737 641,745C638,753 636,764 636,777L636,872L607,872ZM911,816L941,820C936,837 927,851 915,861C902,871 885,876 865,876C840,876 820,868 805,852C790,837 783,815 783,787C783,758 790,735 805,719C820,703 840,695 863,695C887,695 905,703 920,718C935,734 942,756 942,785C942,787 942,789 942,793L813,793C814,812 819,826 829,836C839,846 851,851 865,851C876,851 885,849 893,843C900,837 906,828 911,816ZM815,769L911,769C910,754 906,743 900,736C891,725 879,719 864,719C850,719 839,723 830,732C821,741 816,754 815,769ZM978,667L978,633L1007,633L1007,667L978,667ZM978,872L978,699L1007,699L1007,872L978,872ZM1209,872L1209,771L1117,633L1156,633L1203,705C1212,718 1220,732 1227,745C1234,733 1243,719 1253,703L1299,633L1336,633L1241,771L1241,872L1209,872ZM1319,785C1319,753 1328,730 1346,714C1361,701 1379,695 1400,695C1424,695 1444,703 1459,718C1474,734 1481,755 1481,783C1481,805 1478,823 1471,835C1465,848 1455,858 1442,865C1429,872 1415,876 1400,876C1376,876 1357,868 1342,852C1327,837 1319,814 1319,785ZM1349,785C1349,807 1354,824 1364,835C1374,846 1386,851 1400,851C1415,851 1427,846 1437,835C1446,824 1451,807 1451,784C1451,763 1446,747 1437,736C1427,725 1415,719 1400,719C1386,719 1374,725 1364,736C1354,747 1349,763 1349,785ZM1504,820L1533,816C1534,827 1539,836 1546,842C1554,848 1564,851 1578,851C1591,851 1601,849 1608,843C1614,838 1617,831 1617,824C1617,817 1614,812 1609,808C1605,806 1595,802 1579,798C1557,793 1542,788 1534,784C1526,780 1519,775 1515,768C1511,761 1509,753 1509,745C1509,737 1511,730 1514,723C1518,717 1522,711 1528,707C1533,704 1539,701 1547,698C1555,696 1563,695 1572,695C1586,695 1598,697 1608,701C1618,705 1626,710 1631,717C1636,723 1639,732 1641,743L1612,747C1611,738 1607,731 1601,726C1595,721 1586,719 1575,719C1561,719 1551,721 1546,726C1540,730 1537,735 1537,741C1537,745 1538,748 1541,752C1543,755 1547,757 1552,759C1555,760 1563,763 1578,767C1598,772 1613,777 1621,780C1629,784 1636,789 1640,796C1645,803 1647,811 1647,821C1647,831 1645,840 1639,848C1633,857 1625,864 1614,868C1603,873 1591,876 1578,876C1555,876 1538,871 1526,862C1515,852 1507,838 1504,820ZM1682,872L1682,633L1712,633L1712,719C1725,703 1742,695 1763,695C1776,695 1787,697 1797,702C1806,708 1813,714 1817,723C1821,732 1823,745 1823,762L1823,872L1794,872L1794,762C1794,747 1791,737 1784,730C1778,723 1769,720 1757,720C1749,720 1740,722 1733,727C1725,731 1720,737 1716,745C1713,753 1712,764 1712,777L1712,872L1682,872ZM1868,667L1868,633L1897,633L1897,667L1868,667ZM1868,872L1868,699L1897,699L1897,872L1868,872ZM2054,872L2054,850C2043,867 2027,876 2005,876C1992,876 1979,872 1967,864C1956,857 1947,846 1941,832C1934,819 1931,803 1931,785C1931,768 1934,752 1940,738C1945,724 1954,714 1966,706C1977,699 1990,695 2004,695C2015,695 2024,697 2032,701C2040,706 2047,712 2052,719L2052,633L2081,633L2081,872L2054,872ZM1961,785C1961,808 1966,824 1975,835C1985,846 1996,851 2008,851C2021,851 2032,846 2041,836C2050,825 2054,809 2054,788C2054,764 2050,747 2041,736C2032,725 2020,719 2007,719C1994,719 1983,724 1974,735C1966,746 1961,762 1961,785ZM2240,850C2229,860 2219,866 2209,870C2199,874 2188,876 2176,876C2157,876 2143,871 2132,862C2122,852 2117,841 2117,826C2117,818 2119,810 2123,803C2127,796 2132,790 2138,786C2144,782 2151,779 2159,776C2165,775 2174,773 2185,772C2209,769 2226,766 2237,762C2238,758 2238,755 2238,754C2238,742 2235,734 2229,729C2222,722 2211,719 2196,719C2182,719 2172,722 2165,726C2159,731 2154,740 2151,752L2122,748C2125,736 2129,726 2135,718C2141,711 2150,705 2161,701C2172,697 2185,695 2200,695C2215,695 2227,697 2236,700C2245,704 2252,708 2256,713C2261,718 2264,725 2266,733C2267,738 2267,747 2267,760L2267,799C2267,826 2268,844 2269,851C2270,858 2273,865 2276,872L2246,872C2243,866 2241,858 2240,850ZM2237,785C2227,789 2211,793 2190,796C2178,798 2169,800 2164,802C2159,804 2155,807 2152,811C2150,816 2148,820 2148,825C2148,833 2151,840 2157,845C2163,850 2172,853 2183,853C2195,853 2205,850 2213,845C2222,840 2229,834 2233,825C2236,818 2237,809 2237,796L2237,785Z"/></g><g transform="matrix(1,0,0,1,290.36636,563.405048)"><path d="M1084,788C1080,788 1076,789 1071,789C1066,790 1062,790 1058,790L1054,790C1053,790 1052,790 1051,790L1050,790C1052,793 1053,798 1053,803C1053,811 1051,819 1048,827C1044,836 1039,843 1033,851C1027,858 1020,863 1013,868C1006,872 999,874 992,874C985,874 979,871 974,865C970,859 967,852 967,843C967,835 969,828 971,822C976,809 983,797 994,785C1002,778 1010,771 1019,767C1027,762 1035,759 1041,759C1047,759 1051,761 1055,764C1058,767 1060,770 1060,774C1060,774 1060,775 1060,775C1060,775 1060,775 1061,775C1069,775 1080,772 1094,767C1105,747 1117,728 1130,711C1143,694 1156,679 1170,666C1176,661 1181,658 1186,655C1192,653 1197,651 1201,651C1206,651 1210,653 1214,657C1217,660 1219,665 1219,672C1219,676 1218,681 1216,685C1211,698 1201,710 1186,723C1183,726 1179,729 1175,732C1171,735 1167,737 1163,740C1155,746 1147,751 1138,756C1129,760 1120,765 1112,768C1098,791 1088,813 1080,835C1072,859 1067,880 1067,896C1067,904 1069,908 1072,908C1073,908 1075,908 1076,907C1077,907 1079,906 1081,905C1087,902 1092,898 1096,894C1100,891 1105,886 1109,882C1111,880 1112,877 1115,875C1117,872 1120,868 1123,865C1126,860 1130,856 1134,851C1138,847 1141,842 1145,838C1148,835 1151,831 1154,828C1156,822 1158,817 1161,811C1164,805 1167,800 1169,796C1171,792 1174,788 1177,783C1180,778 1182,774 1184,770C1186,768 1187,766 1187,766C1189,763 1191,761 1195,759C1199,758 1202,757 1205,757C1209,757 1211,758 1211,761C1211,762 1211,763 1210,765C1206,771 1202,778 1197,786C1192,794 1187,802 1182,810C1177,818 1174,826 1171,834C1168,841 1166,848 1166,853C1166,858 1168,861 1172,861C1175,861 1178,860 1182,857C1186,854 1190,851 1194,847C1197,843 1200,840 1202,838L1208,832C1208,832 1208,832 1208,831C1213,816 1220,801 1230,788C1235,781 1240,774 1247,769C1261,756 1275,751 1291,752C1298,752 1305,753 1312,753C1319,754 1325,754 1331,755C1335,756 1340,756 1346,757C1352,758 1357,758 1363,759C1369,760 1374,760 1380,761C1385,762 1390,762 1394,763C1405,764 1417,765 1429,765C1439,765 1450,764 1461,763C1472,762 1484,761 1498,759C1503,758 1510,757 1517,755C1525,753 1532,751 1539,748C1547,745 1553,741 1559,738C1565,734 1570,730 1573,725C1574,724 1574,723 1574,721C1574,720 1573,718 1571,716C1568,713 1562,711 1554,709C1551,709 1549,709 1546,709C1543,708 1540,708 1537,708C1530,708 1525,709 1520,710C1520,710 1519,710 1518,710C1517,710 1517,710 1517,709C1517,708 1517,707 1518,706C1524,702 1530,700 1536,699C1541,698 1548,697 1556,698C1564,698 1570,700 1575,705C1580,709 1582,715 1582,722C1582,723 1582,724 1582,725C1582,726 1582,727 1582,728C1579,737 1573,745 1564,753C1554,760 1542,765 1529,768C1519,771 1508,773 1496,774C1485,775 1473,775 1461,775C1455,775 1449,775 1443,775C1437,774 1431,774 1425,774C1418,774 1411,773 1403,773C1396,772 1387,772 1379,771C1368,770 1357,770 1346,769C1335,768 1326,768 1319,768C1306,768 1296,769 1287,771C1278,773 1270,776 1263,780C1248,790 1237,807 1230,833C1229,836 1227,842 1226,848C1225,855 1224,861 1224,867C1224,872 1225,876 1226,880C1228,883 1230,885 1233,885C1239,885 1245,882 1250,877C1256,872 1261,866 1265,858C1270,850 1274,841 1277,832C1280,822 1282,813 1283,805C1283,803 1283,802 1284,800C1284,799 1284,797 1284,796C1284,792 1283,789 1282,787C1281,784 1278,783 1275,783C1272,783 1270,782 1270,780C1270,779 1271,778 1273,777C1275,776 1277,775 1280,775C1286,775 1291,778 1294,783C1297,788 1299,795 1299,804C1299,812 1298,820 1295,829C1292,837 1288,846 1283,854C1279,862 1273,869 1267,876C1261,882 1255,887 1249,891C1242,895 1236,897 1230,897C1223,897 1217,893 1212,886C1207,878 1205,868 1205,856C1205,852 1205,849 1206,846C1205,846 1205,847 1204,847C1201,851 1197,855 1193,859C1189,863 1184,867 1180,869C1175,872 1170,873 1165,873C1159,873 1155,871 1152,868C1149,864 1148,859 1148,853C1148,851 1148,848 1149,846L1147,848C1146,849 1143,852 1140,856C1137,860 1133,864 1128,870C1124,875 1120,880 1116,885C1111,891 1107,895 1103,900C1100,904 1097,907 1094,910C1084,919 1073,924 1063,924C1058,924 1054,923 1051,919C1049,915 1047,910 1047,903C1047,902 1048,900 1048,898C1048,896 1048,894 1049,892C1052,874 1057,855 1064,836C1069,820 1076,804 1084,788ZM1194,665C1182,674 1170,687 1157,703C1144,719 1131,736 1119,756C1128,751 1138,745 1147,739C1156,733 1165,726 1174,719C1182,712 1189,704 1195,697C1201,689 1205,682 1208,675C1209,673 1209,671 1209,668C1209,664 1207,661 1203,661C1200,661 1198,662 1194,665ZM1050,776C1050,774 1051,773 1051,772C1051,768 1048,766 1042,766C1036,766 1031,769 1025,774C1018,780 1013,786 1007,794C1001,802 997,810 993,818C991,822 989,826 988,832C986,837 986,843 986,848C986,852 986,856 988,860C989,863 992,864 995,864C1000,864 1005,863 1009,859C1014,855 1019,850 1023,844C1027,838 1030,832 1033,825C1036,818 1038,811 1039,805C1039,803 1039,802 1039,801L1039,798C1039,796 1039,793 1038,791L1037,791C1035,791 1033,790 1032,790C1031,789 1030,788 1028,787L1028,786C1027,786 1027,785 1027,784C1027,784 1027,783 1027,782C1027,780 1027,779 1029,778C1030,777 1032,776 1034,777L1048,779C1049,779 1049,778 1049,778C1049,778 1049,777 1049,777C1049,777 1049,776 1050,776ZM1072,781C1075,781 1079,781 1082,781C1084,780 1086,780 1087,780C1088,779 1088,778 1089,777C1083,779 1078,780 1074,781C1073,781 1073,781 1072,781ZM879,975C869,975 863,967 863,952C863,948 864,944 864,940C865,935 866,930 867,925C870,914 873,903 877,893C881,882 885,871 890,861C892,855 895,849 899,841C902,834 906,827 909,819C913,812 916,805 919,800L916,800C912,800 911,799 911,797C911,796 911,794 913,793C914,792 916,792 918,792L922,792C925,786 928,780 933,771C937,762 943,753 949,743C954,733 960,723 966,713C972,703 977,694 981,687C985,681 990,675 995,670C999,665 1004,662 1009,659C1015,657 1019,656 1023,657L1024,659C1019,666 1013,674 1006,685C999,696 992,708 984,720C976,732 969,744 962,757C954,769 948,781 943,792L976,792C978,792 979,793 979,795C979,796 978,797 978,798C977,799 975,800 974,800L939,800L934,809C935,813 936,818 937,823C937,828 937,834 937,840C937,849 937,858 936,867C935,876 934,883 933,889C928,916 921,937 911,952C902,967 891,975 879,975ZM882,967C887,967 892,962 898,953C904,944 910,931 916,915C918,909 920,902 922,893C924,884 925,875 927,865C928,855 928,846 928,837C928,834 928,832 928,830C928,827 928,825 928,822L917,845C913,856 908,866 903,877C898,889 894,900 890,910C888,916 887,921 885,926C883,931 882,935 881,940C879,947 878,953 878,958C878,964 879,967 882,967ZM1212,746C1209,746 1207,745 1205,743C1204,742 1203,739 1203,737C1203,734 1204,731 1206,728C1209,726 1211,725 1215,725C1218,725 1220,726 1222,728C1223,730 1224,733 1224,736C1223,739 1221,741 1219,743C1217,745 1215,746 1212,746Z"/></g></g></g></svg>