<?xml version="1.0" encoding="UTF-8" standalone="no"?><!DOCTYPE svg PUBLIC "-//W3C//DTD SVG 1.1//EN" "http://www.w3.org/Graphics/SVG/1.1/DTD/svg11.dtd"><svg width="100%" height="100%" viewBox="0 0 513 1056" version="1.1" xmlns="http://www.w3.org/2000/svg" xmlns:xlink="http://www.w3.org/1999/xlink" xml:space="preserve" xmlns:serif="http://www.serif.com/" style="fill-rule:evenodd;clip-rule:evenodd;stroke-linecap:round;stroke-linejoin:round;stroke-miterlimit:1.5;"><g><path d="M497.629,87.04l0,881.671c0,39.99 -32.467,72.457 -72.457,72.457l-338.132,0c-39.99,0 -72.457,-32.467 -72.457,-72.457l0,-881.671c0,-39.99 32.467,-72.457 72.457,-72.457l338.132,0c39.99,0 72.457,32.467 72.457,72.457Z" style="fill:#fff;stroke:#000;stroke-width:29.17px;"/><path d="M307.768,83.061c0,8.681 -7.047,15.728 -15.728,15.728l-71.867,0c-8.681,0 -15.728,-7.047 -15.728,-15.728c0,-8.681 7.047,-15.728 15.728,-15.728l71.867,0c8.681,0 15.728,7.047 15.728,15.728Z"/><g><rect x="95.199" y="453.312" width="321.814" height="210.87" style="fill:none;stroke:#000;stroke-width:25px;"/><path d="M256.106,589.419l39.917,-32.624l120.99,107.387l-321.814,0l121.553,-107.887l39.354,33.124Z" style="fill:none;stroke:#000;stroke-width:25px;"/><path d="M256.106,589.419l-160.907,-136.107l321.814,0l-160.907,136.107Z" style="fill:none;stroke:#000;stroke-width:25px;"/></g></g></svg>