<?xml version="1.0" encoding="UTF-8" standalone="no"?><!DOCTYPE svg PUBLIC "-//W3C//DTD SVG 1.1//EN" "http://www.w3.org/Graphics/SVG/1.1/DTD/svg11.dtd"><svg width="100%" height="100%" viewBox="0 0 1001 600" version="1.1" xmlns="http://www.w3.org/2000/svg" xmlns:xlink="http://www.w3.org/1999/xlink" xml:space="preserve" xmlns:serif="http://www.serif.com/" style="fill-rule:evenodd;clip-rule:evenodd;stroke-linejoin:round;stroke-miterlimit:2;"><path d="M325.34,596.886l-325.34,-253.189l323.991,-252.139c14.617,-10.568 24.928,14.548 15.176,23.826l-293.375,228.313l293.375,228.313c13.132,10.537 -0.038,34.944 -13.827,24.876Zm352.651,0l322.263,-253.189l-320.927,-252.139c-14.478,-10.568 -24.692,14.548 -15.032,23.826l290.601,228.313l-290.601,228.313c-13.008,10.537 0.038,34.944 13.696,24.876Zm-20.151,-581.111c0,0 0,0 -252.896,576.945c-3.118,7.113 -12.545,8.059 -18.905,4.638c-5.114,-2.75 -8.217,-8.231 -5.167,-15.19c252.157,-575.259 252.157,-575.259 252.157,-575.259c1.887,-4.306 6.146,-9.69 17.5,-5.241c10.055,3.941 8.998,10.255 7.31,14.106Z"/></svg>