<?xml version="1.0" encoding="UTF-8" standalone="no"?><!DOCTYPE svg PUBLIC "-//W3C//DTD SVG 1.1//EN" "http://www.w3.org/Graphics/SVG/1.1/DTD/svg11.dtd"><svg width="100%" height="100%" viewBox="0 0 1573 954" version="1.1" xmlns="http://www.w3.org/2000/svg" xmlns:xlink="http://www.w3.org/1999/xlink" xml:space="preserve" xmlns:serif="http://www.serif.com/" style="fill-rule:evenodd;clip-rule:evenodd;stroke-linecap:round;stroke-linejoin:round;stroke-miterlimit:1.5;"><g><g id="mv"><path d="M1371.363,45.232l0,776.668c0,23.814 -19.334,43.148 -43.148,43.148l-1282.983,0c-23.814,0 -43.148,-19.334 -43.148,-43.148l0,-776.668c0,-23.814 19.334,-43.148 43.148,-43.148l1282.983,0c23.814,0 43.148,19.334 43.148,43.148Z" style="fill:#fff;stroke:#000;stroke-width:4.17px;"/><g><rect x="26.029" y="701.117" width="1321.387" height="16.148" style="fill-opacity:0.4;"/><path d="M1124.139,717.265l-1098.11,0l0,-16.148l1098.11,-0c3.022,-6.363 9.503,-10.766 17.002,-10.766c10.385,0 18.816,8.442 18.816,18.84c0,10.398 -8.431,18.84 -18.816,18.84c-7.5,0 -13.98,-4.403 -17.002,-10.766Z" style="fill:#f00;"/></g><g><path d="M1306.259,751.445c54.876,0 54.876,81.008 0,81.008l-171.137,0c-50.99,0 -50.99,-81.008 0,-81.008l171.137,0Z" style="fill-opacity:0.4;"/><path d="M1256.083,769.108l0,45.682l-67.717,0l0,-45.682l67.717,0Zm-2.424,3.029l-62.505,0l0,39.624l62.505,0l0,-39.624Z" style="fill:#fff;"/><path d="M1276.017,787.184l0,-16.835l18.155,0l0,6.159l-10.602,0l0,10.676l-7.553,0Zm31.589,-16.835l18.155,0l0,16.835l-7.553,0l0,-10.676l-10.602,0l0,-6.159Zm18.155,26.365l0,16.835l-18.155,0l0,-6.159l10.602,0l0,-10.676l7.553,0Zm-31.589,16.835l-18.155,0l0,-16.835l7.553,0l0,10.676l10.602,0l0,6.159Z" style="fill:#fff;"/><path d="M1124.666,797.254l-6.818,0l0,-10.611l7.31,0c0.425,-1.242 0.976,-2.426 1.636,-3.537l-5.29,-5.29l7.503,-7.503l5.535,5.535c1.045,-0.532 2.146,-0.97 3.292,-1.303l0,-7.889l10.611,0l0,7.889c1.145,0.333 2.246,0.771 3.292,1.303l5.535,-5.535l7.503,7.503l-5.29,5.29c0.66,1.111 1.211,2.295 1.636,3.537l7.31,0l0,10.611l-6.818,0c-0.35,1.451 -0.866,2.838 -1.527,4.138l4.689,4.689l-7.503,7.503l-4.444,-4.444c-1.361,0.809 -2.831,1.453 -4.383,1.904l0,6.196l-10.611,0l0,-6.196c-1.552,-0.451 -3.022,-1.095 -4.383,-1.904l-4.444,4.444l-7.503,-7.503l4.689,-4.689c-0.662,-1.3 -1.178,-2.687 -1.527,-4.138Zm18.474,-12.939c-4.68,0 -8.48,3.8 -8.48,8.48c0,4.68 3.8,8.48 8.48,8.48c4.68,0 8.48,-3.8 8.48,-8.48c0,-4.68 -3.8,-8.48 -8.48,-8.48Z" style="fill:#fff;"/></g><g><g><ellipse cx="66.458" cy="791.949" rx="40.429" ry="40.504" style="fill-opacity:0.4;"/><path d="M88.6,791.949l-44.283,25.388l0,-50.776l44.283,25.388Z" style="fill:#fff;"/></g><g><ellipse cx="198.331" cy="791.949" rx="40.429" ry="40.504" style="fill-opacity:0.4;"/><path d="M215.039,794.152l-37.26,21.361l0,-47.129l37.26,21.361l0,-17.561l3.843,0l0,39.528l-3.843,0l0,-17.561Z" style="fill:#fff;"/></g><g><ellipse cx="330.204" cy="791.949" rx="40.429" ry="40.504" style="fill-opacity:0.4;"/><path d="M312.181,777.174l27.149,-3.421l0,36.392l-27.149,-2.843c-15.587,-4.378 -14.753,-28.408 0,-30.129Zm30.8,-0.803l0,-1.073c9.178,0.014 16.626,7.47 16.626,16.651c0,9.182 -7.447,16.637 -16.626,16.651l0,-1.073c8.587,-0.013 15.554,-6.988 15.554,-15.578c0,-8.59 -6.967,-15.565 -15.554,-15.578Zm0,6.73c4.877,0.007 8.835,3.969 8.835,8.848c0,4.879 -3.957,8.841 -8.835,8.848l-0,-17.696Z" style="fill:#fff;"/></g></g></g><g><rect x="184.099" y="318.49" width="1005.248" height="237.563" style="fill:#00acee;"/><g transform="matrix(1,0,0,0.996898,0,0.91691)"><g transform="matrix(156.040211,0,0,156.040211,1103.194379,495.868454)"></g><text x="277.274px" y="495.868px" style="font-family:'ZenKakuGothicNew-Bold', 'Zen Kaku Gothic New';font-weight:700;font-size:156.04px;fill:#fff;">動画で解決!</text></g><g transform="matrix(1.06999,0,0,1.06667,-301.467552,438.081143)"><text x="491.947px" y="187.221px" style="font-family:'MS-UIGothic', 'MS UI Gothic', sans-serif;font-size:50px;fill:#0043ff;">～</text><text x="541.947px" y="187.221px" style="font-family:'ZenMaruGothic-Bold', 'Zen Maru Gothic';font-weight:700;font-size:50px;fill:#0043ff;">企画・制作・PRまで全部おまかせ</text><text x="1305.547px" y="187.221px" style="font-family:'MS-UIGothic', 'MS UI Gothic', sans-serif;font-size:50px;fill:#0043ff;">～</text></g><g><path d="M477.806,263.068c-9.273,0.444 -17.499,-0.556 -24.677,-3c-7.178,-2.444 -12.795,-6.111 -16.852,-11c-4.057,-4.889 -6.086,-10.844 -6.086,-17.867c0,-4.533 0.936,-8.711 2.809,-12.533c1.872,-3.822 4.458,-7.244 7.757,-10.267c-5.974,1.244 -11.814,2.578 -17.521,4c-5.707,1.422 -10.856,2.844 -15.448,4.267c-4.592,1.422 -8.27,2.8 -11.034,4.133l-5.885,-14.933c1.07,-0.178 2.675,-0.489 4.815,-0.933c2.14,-0.444 5.082,-1.067 8.827,-1.867c3.388,-0.711 7.133,-2.489 11.235,-5.333c4.102,-2.844 8.27,-6.244 12.506,-10.2c4.235,-3.956 8.181,-8.089 11.837,-12.4c3.656,-4.311 6.687,-8.333 9.095,-12.067c-3.477,0.8 -7.245,1.6 -11.302,2.4c-4.057,0.8 -7.936,1.467 -11.636,2c-3.7,0.533 -6.799,0.889 -9.296,1.067l-4.681,-14.8c3.299,0 7.178,-0.2 11.636,-0.6c4.458,-0.4 8.961,-0.911 13.509,-1.533c4.547,-0.622 8.738,-1.378 12.572,-2.267c3.834,-0.889 6.821,-1.778 8.961,-2.667l13.375,8.533c-1.872,3.822 -4.547,8.178 -8.025,13.067c-3.477,4.889 -7.512,9.778 -12.104,14.667c-4.592,4.889 -9.608,9.422 -15.047,13.6c7.044,-1.422 13.977,-2.844 20.798,-4.267c6.821,-1.422 12.884,-2.689 18.19,-3.8c5.305,-1.111 9.206,-1.889 11.703,-2.333l2.541,15.467c-1.694,0 -3.745,0.089 -6.152,0.267c-2.407,0.178 -5.038,0.489 -7.891,0.933c-5.172,0.622 -10.009,2.067 -14.512,4.333c-4.503,2.267 -8.159,5.356 -10.967,9.267c-2.809,3.911 -4.213,8.622 -4.213,14.133c0,4 1.56,7.289 4.681,9.867c3.121,2.578 7.445,4.378 12.974,5.4c5.528,1.022 11.814,1.267 18.859,0.733c-1.427,2.222 -2.63,4.978 -3.611,8.267c-0.981,3.289 -1.56,6.044 -1.739,8.267Z" style="fill:#00acee;fill-rule:nonzero;"/><path d="M587.48,256.935c-0.357,-1.422 -1.025,-3.111 -2.006,-5.067c-0.981,-1.956 -2.118,-3.844 -3.411,-5.667c-1.293,-1.822 -2.564,-3.311 -3.812,-4.467c12.216,-1.867 21.511,-5.844 27.887,-11.933c6.375,-6.089 9.741,-13.267 10.098,-21.533c0.357,-6.578 -0.847,-12.444 -3.611,-17.6c-2.764,-5.156 -6.531,-9.333 -11.302,-12.533c-4.77,-3.2 -10.009,-5.111 -15.715,-5.733c-0.713,8.267 -2.051,16.711 -4.012,25.333c-1.962,8.622 -4.614,16.711 -7.958,24.267c-3.344,7.556 -7.423,13.956 -12.238,19.2c-3.656,3.911 -7.2,6.178 -10.633,6.8c-3.433,0.622 -7.066,0.133 -10.901,-1.467c-3.745,-1.6 -7.044,-4.133 -9.897,-7.6c-2.853,-3.467 -5.038,-7.578 -6.554,-12.333c-1.516,-4.756 -2.14,-9.844 -1.872,-15.267c0.446,-8.089 2.363,-15.489 5.751,-22.2c3.388,-6.711 7.936,-12.511 13.642,-17.4c5.707,-4.889 12.26,-8.578 19.661,-11.067c7.401,-2.489 15.292,-3.511 23.674,-3.067c6.777,0.356 13.152,1.867 19.126,4.533c5.974,2.667 11.213,6.333 15.715,11c4.503,4.667 7.98,10.067 10.432,16.2c2.452,6.133 3.455,12.844 3.009,20.133c-0.624,12.178 -4.904,22.378 -12.84,30.6c-7.936,8.222 -18.68,13.844 -32.233,16.867Zm-43.468,-26.933c0.981,0.711 2.006,1.067 3.076,1.067c1.07,0 2.14,-0.533 3.21,-1.6c3.21,-3.2 6.175,-7.733 8.894,-13.6c2.72,-5.867 4.993,-12.489 6.821,-19.867c1.828,-7.378 3.009,-14.889 3.544,-22.533c-6.152,1.422 -11.614,4 -16.384,7.733c-4.77,3.733 -8.538,8.244 -11.302,13.533c-2.764,5.289 -4.325,11.089 -4.681,17.4c-0.178,4.178 0.379,7.8 1.672,10.867c1.293,3.067 3.009,5.4 5.149,7Z" style="fill:#00acee;fill-rule:nonzero;"/><path d="M753.016,279.379l0,-41.245c-4.874,6.163 -10.314,12 -16.317,17.511c-6.004,5.511 -11.978,10.222 -17.922,14.133c-1.07,-1.541 -2.526,-3.378 -4.369,-5.511c-1.843,-2.133 -3.596,-4.03 -5.261,-5.689l0,16.356l-51.716,0l0,-51.022l51.716,0l0,29.867c4.161,-2.607 8.441,-5.719 12.84,-9.333c4.399,-3.615 8.649,-7.467 12.751,-11.556c4.102,-4.089 7.639,-8.089 10.611,-12l-31.743,0l0,-16.533l39.411,0l0,-10.311l-33.705,0l0,-72l86.313,0l0,72l-34.061,0l0,10.311l43.691,0l0,16.533l-36.023,0c3.329,4.148 7.282,8.326 11.859,12.533c4.577,4.207 9.333,8.119 14.267,11.733c4.934,3.615 9.541,6.607 13.821,8.978c-1.189,0.83 -2.616,2.163 -4.28,4c-1.664,1.837 -3.299,3.763 -4.904,5.778c-1.605,2.015 -2.883,3.733 -3.834,5.156c-5.826,-3.793 -11.8,-8.415 -17.922,-13.867c-6.123,-5.452 -11.681,-11.259 -16.674,-17.422l0,41.6l-18.546,0Zm-101.649,-114.667l0,-16.356l62.773,0l0,16.356l-62.773,0Zm8.738,-24.889l0,-16.889l46.188,0l0,16.889l-46.188,0Zm-0.178,75.022l0,-16.533l46.366,0l0,16.533l-46.366,0Zm0,-25.067l0,-16.356l46.366,0l0,16.356l-46.366,0Zm16.05,68.978l14.445,0l0,-18.667l-14.445,0l0,18.667Zm95.586,-80.356l15.337,0l0,-12.622l-15.337,0l0,12.622Zm0,-27.733l15.337,0l0,-12.622l-15.337,0l0,12.622Zm-33.526,27.733l14.98,0l0,-12.622l-14.98,0l0,12.622Zm0,-27.733l14.98,0l0,-12.622l-14.98,0l0,12.622Z" style="fill:#00acee;fill-rule:nonzero;"/><path d="M841.826,278.49c-2.378,-1.304 -5.261,-2.696 -8.649,-4.178c-3.388,-1.481 -6.331,-2.459 -8.827,-2.933c3.329,-5.096 6.271,-11.141 8.827,-18.133c2.556,-6.993 4.607,-14.133 6.152,-21.422c1.546,-7.289 2.378,-13.837 2.497,-19.645l18.368,2.667c-0.594,6.282 -1.486,12.385 -2.675,18.311c1.427,1.541 2.853,2.993 4.28,4.356c1.427,1.363 2.913,2.696 4.458,4l0,-35.022l-34.775,0l0,-16.711l78.466,0l0,16.711l-25.145,0l0,12.267l22.47,0l0,16.178l-22.47,0l0,17.067c4.28,1.541 9.035,2.844 14.267,3.911c5.231,1.067 11.116,1.778 17.655,2.133c-1.308,-2.015 -3.002,-4.356 -5.082,-7.022c-2.081,-2.667 -3.953,-4.652 -5.617,-5.956c2.497,-1.067 5.32,-2.519 8.471,-4.356c3.151,-1.837 6.271,-3.852 9.362,-6.044c3.091,-2.193 5.826,-4.296 8.203,-6.311l-16.05,0l0,-80.356l20.508,0c0.476,-1.541 1.011,-3.23 1.605,-5.067c0.594,-1.837 1.129,-3.526 1.605,-5.067l-30.316,0l0,-15.644l80.963,0l0,15.644l-30.495,0c-0.476,1.541 -0.981,3.23 -1.516,5.067c-0.535,1.837 -1.1,3.526 -1.694,5.067l28.176,0l0,80.356l-16.05,0c3.448,2.844 7.52,5.807 12.216,8.889c4.696,3.081 8.887,5.452 12.572,7.111c-1.664,1.541 -3.537,3.644 -5.617,6.311c-2.081,2.667 -3.775,5.007 -5.082,7.022c2.497,-0.119 4.696,-0.207 6.598,-0.267c1.902,-0.059 3.329,-0.148 4.28,-0.267c-0.594,1.422 -1.248,3.348 -1.962,5.778c-0.713,2.43 -1.367,4.889 -1.962,7.378c-0.594,2.489 -1.011,4.563 -1.248,6.222l-56.353,0c-12.602,0 -23.688,-0.83 -33.259,-2.489c-9.57,-1.659 -18.071,-4.296 -25.501,-7.911c-7.43,-3.615 -14.237,-8.385 -20.419,-14.311c-1.427,4.741 -3.061,9.363 -4.904,13.867c-1.843,4.504 -3.953,8.77 -6.331,12.8Zm-1.248,-96.534l0,-59.734l62.416,0l0,59.734l-62.416,0Zm91.662,76.622c4.399,0 9.333,-0.03 14.802,-0.089c5.469,-0.059 10.967,-0.148 16.496,-0.267c5.528,-0.119 10.551,-0.237 15.069,-0.356c-2.734,-1.659 -5.707,-3.585 -8.917,-5.778c-3.21,-2.193 -6.242,-4.474 -9.095,-6.844c-2.853,-2.37 -5.231,-4.504 -7.133,-6.4l10.522,-10.489l-27.285,0l10.343,10.489c-1.783,1.896 -4.191,4.059 -7.222,6.489c-3.032,2.43 -6.242,4.77 -9.63,7.022c-3.388,2.252 -6.509,4.207 -9.362,5.867c1.783,0.119 3.656,0.207 5.617,0.267c1.962,0.059 3.894,0.089 5.796,0.089Zm2.675,-44.8l31.208,0l0,-9.067l-31.208,0l0,9.067Zm0,-21.156l31.208,0l0,-9.067l-31.208,0l0,9.067Zm0,-21.333l31.208,0l0,-8.889l-31.208,0l0,8.889Zm-75.613,-3.378l24.788,0l0,-9.422l-24.788,0l0,9.422Zm0,-22.222l24.788,0l0,-9.244l-24.788,0l0,9.244Z" style="fill:#00acee;fill-rule:nonzero;"/><ellipse cx="732.485" cy="91.241" rx="13.935" ry="13.891" style="fill:#00acee;"/><ellipse cx="909.166" cy="91.241" rx="13.935" ry="13.891" style="fill:#00acee;"/></g></g><g id="人間"><g id="右手"><path d="M1232.176,493.004l0.831,79.145l-38.841,5.341l-2.612,-22.345c-27.721,-9.034 -42.837,-28.453 -51.452,-39.676c-6.898,-10.286 -7.742,-18.89 -9.452,-27.558c-3.558,-8.674 3.459,-19.713 5.995,-21.442c4.231,-2.886 12.453,-7.409 29.444,1.337c2.371,1.445 12.398,5.126 19.813,15.581c12.254,17.278 30.042,16.151 31.183,12.486c-16.664,-19.376 -16.445,-29.633 -10.224,-31.478c2.819,-0.836 8.854,4.961 11.831,13.912c4.549,4.61 13.484,14.697 13.484,14.697l0,0Z" style="fill:#fff;"/><g><path d="M1233.008,570.362c-1.587,-24.6 1.152,-53.884 -0.979,-75.262c-0.739,-7.416 -11.364,-10.289 -14.944,-20.864c-3.526,-10.416 -14.352,-13.167 -13.881,-5.329c1.02,16.985 11.129,22.142 13.881,26.88" style="fill:none;stroke:#000;stroke-width:2.6px;"/><path d="M1217.085,496.036c0,0 -13.634,7.023 -26.678,-8.173c-31.742,-35.552 -54.397,-25.564 -59.112,-14.135c-5.138,12.606 4.418,40.182 17.468,53.188c10.943,9.743 22.107,21.141 43.561,28.805l1.813,20.791" style="fill:none;stroke:#000;stroke-width:2.6px;"/><path d="M1174.275,508.419c11.1,2.185 9.884,5.575 20.452,10.567" style="fill:none;stroke:#000;stroke-width:0.65px;"/><path d="M1144.314,464.395l22.848,23.517" style="fill:none;stroke:#000;stroke-width:1.3px;"/><path d="M1136.997,467.9l22.963,26.968" style="fill:none;stroke:#000;stroke-width:1.3px;"/><path d="M1131.362,478.387l24.382,27.802" style="fill:none;stroke:#000;stroke-width:1.3px;"/></g></g><g><g id="右腕袖"><path d="M1244.233,570.362l16.007,46.626l-70.206,20.161l-2.24,-58.482l56.439,-8.305l0,0Z" style="fill:#71a4ff;"/><path d="M1244.233,570.362l-56.439,8.305" style="fill:none;stroke:#000;stroke-width:2.6px;"/><path d="M1190.019,636.069l-2.225,-57.401" style="fill:none;stroke:#000;stroke-width:2.6px;"/><path d="M1260.047,616.128l-15.813,-45.766" style="fill:none;stroke:#000;stroke-width:2.6px;"/></g><g id="ズボン"><path d="M1443.812,824.276l8.171,97.339l-222.952,27.157l5.288,-76.246l209.493,-48.25l-0,-0Z" style="fill:#71a4ff;"/><path d="M1443.698,829.728l8.224,91.887" style="fill:none;stroke:#000;stroke-width:2.6px;"/><path d="M1231.835,902.871l-2.803,45.901" style="fill:none;stroke:#000;stroke-width:2.6px;"/></g><path d="M1373.655,723.201l-19.963,-132.82l-90.684,24.811l72.913,-94.488c0,0 62.623,-73.775 74.932,-96.481l11.794,-4.991c6.667,9.254 20.459,35.827 28.594,54.736c9.599,22.312 18.429,49.61 20.945,82.853c2.856,37.74 -2.617,72.222 -13.759,104.088l-84.77,62.291l0,-0Z" style="fill:#71a4ff;"/><path d="M1422.684,419.399c6.914,7.461 39.036,65.724 47.098,111.346c10.875,85.507 -12.381,131.604 -12.803,133.292" style="fill:none;stroke:#000;stroke-width:2.6px;"/></g><g id="タブレット"><g><path d="M1393.164,856.82l-39.472,-266.438" style="fill:none;stroke:#000;stroke-width:5.21px;"/><path d="M1393.164,856.82l-182.545,51.979" style="fill:none;stroke:#000;stroke-width:5.21px;"/><path d="M1210.618,908.416l-46.539,-258.708" style="fill:none;stroke:#000;stroke-width:5.21px;"/><path d="M1353.692,590.381l-174.269,49.622" style="fill:none;stroke:#000;stroke-width:5.21px;"/></g><path d="M1353.199,590.381l39.964,266.438l-182.545,51.596c0,0 -37.094,-216.501 -46.987,-260.01c-0.317,-1.393 1.252,-4.128 2.618,-4.547c29.925,-9.172 186.951,-53.478 186.951,-53.478l0,0Z" style="fill:#ccc;stroke:#000;stroke-width:2.6px;"/></g><g id="左手"><path d="M1246.383,821.935l6.499,42.373l-9.969,1.002c-2.226,5.957 -41.495,17.722 -58.518,19.796c-1.223,0.149 -2.811,0.072 -3.434,-3.229c-0.324,-1.719 2.479,-6.987 1.232,-8.084c-1.714,-1.508 -5.946,-1.456 -6.8,-4.286c-0.743,-2.463 2.516,-7.467 2.023,-8.587c-1.046,-2.38 -4.656,-0.285 -4.905,-2.837c-0.606,-6.2 6.112,-10.923 7.066,-12.313c1.203,-1.753 -8.409,-0.372 -8.409,-0.372c-3.64,-4.427 -6.711,-8.761 -4.483,-10.019c5.77,-4.634 33.427,-0.336 34.396,-1.986c0.516,-1.152 -4.646,-5.7 -13.911,-4.927c-1.666,-1.146 -0.272,-12.861 -0.272,-12.861c5.025,2.508 16.702,6.185 27.112,2.181l6.161,13.295c10.999,1.013 26.213,-9.147 26.213,-9.147Z" style="fill:#fff;"/><path d="M1246.34,821.812c-14.368,8.704 -24.735,11.858 -26.659,8.558c-1.055,-1.614 -1.395,-2.945 -5.594,-12.317c-15.319,4.331 -27.125,-2.448 -27.125,-2.448c-0.74,11.167 -1.855,12.86 1.64,13.079c7.91,0.494 11.496,3.565 11.496,3.565c6.091,4.247 -18.989,-0.704 -31.297,2.373c-4.208,1.052 -1.313,6.189 1.519,9.659c2.212,2.71 6.841,-0.876 9.497,1.337c0,0 -5.635,4.435 -6.736,8.672c-0.784,3.016 -0.588,4.661 2.311,5.328c2.989,0.689 2.775,4.362 1.12,6.22c-1.639,1.841 -0.598,6.332 2.108,6.511c2.856,0.19 4.917,2.817 3.768,5.083c-2.815,5.55 1.532,8.272 3.744,7.564c1.661,-0.532 53.44,-9.495 56.848,-19.702" style="fill:none;stroke:#000;stroke-width:2.6px;"/></g><path d="M1377.946,719.48l78.919,-60.403l11.523,159.446l-213.448,48.763l-11.162,-63.656l134.167,-84.15Z" style="fill:#71a4ff;"/><g id="左腕"><path d="M1448.463,556.822l19.926,261.701" style="fill:none;stroke:#000;stroke-width:2.6px;"/><path d="M1468.388,818.524l-214.968,48.763" style="fill:none;stroke:#000;stroke-width:2.6px;"/><path d="M1243.779,803.63l134.167,-84.15" style="fill:none;stroke:#000;stroke-width:2.6px;"/><path d="M1253.421,867.287l-9.642,-63.656" style="fill:none;stroke:#000;stroke-width:2.6px;"/></g><g id="顔と首"><path d="M1412.292,405.594l10.609,13.805l-11.674,4.798l-150.987,191.554l-0.194,0.377l42.586,-115.924c8.86,-22.779 30.16,-59.003 30.16,-59.003c0,0 -0.707,-39.076 -0.513,-45.918c-31.827,-5.428 -41.648,-29.154 -50.32,-50.31c-7.586,-18.509 -9.698,-72.298 -9.698,-72.298l-0.621,-6.801l18.671,-11.366l45.129,-24.062l-0.449,24.848c16.096,-0.086 25.359,-13.527 30.318,-21.592c3.091,8.243 7.385,16.153 25.183,20.407c0.292,1.437 1.95,10.286 0.761,20.185l-0.761,35.666l21.922,7.177c12.66,0.546 9.202,-6.359 12.666,-7.177c2.783,-0.658 6.78,0.19 8.149,2.659c1.861,3.358 4.991,12.432 3.018,17.487c-6.453,16.532 -14.274,28.089 -23.269,28.089l-0.686,47.398l0,0.001Z" style="fill:#fff;"/><g><path d="M1424.575,214.305c6.533,6.846 12.512,19.411 11.672,40.989c-0.753,19.33 -5.795,41.027 -12.161,56.304c0,0 -1.707,5.98 -11.91,5.934l-21.683,-7.184c-0.825,-11.169 2.706,-43.533 0.363,-55.054c-7.547,-2.636 -17.15,-8.128 -21.408,-11.744c-3.404,-2.891 -4.138,-9.954 -4.138,-9.954c0,0 -10.985,22.223 -30.552,21.698l0.437,-24.848l-44.048,23.939l-18.884,11.49c-5.195,-15.029 2.269,-35.815 7.763,-45.511c0.536,-5.503 7.504,-0.083 11.121,-3.67c4.449,-4.411 14.203,-20.234 26.858,-26.728c16.205,-8.315 35.398,-6.964 35.398,-6.964c20.175,4.231 27.126,5.461 39.906,25.387c0,0 24.038,-1.658 31.267,5.918l0,-0.001Z" style="fill:#ccc;"/></g><g><path d="M1272.262,273.094c0,27.598 2.626,66.53 18.884,92.395c7.007,9.941 16.174,26.729 49.96,31.83c10.088,1.523 30.937,1.757 42.712,-9.44c6.79,-6.457 9.999,-10.093 19.129,-22.95" style="fill:none;stroke:#000;stroke-width:2.6px;"/><path d="M1271.522,265.874c-3.057,-9.392 1.085,-36.561 8.503,-45.511" style="fill:none;stroke:#000;stroke-width:2.6px;"/><path d="M1412.254,357.47l0,47.832" style="fill:none;stroke:#000;stroke-width:2.6px;"/><path d="M1412.979,358.196c6.202,-0.564 11.082,-2.106 22.36,-24.662c3.169,-6.339 0.635,-19.684 -3.501,-21.747c-7.371,-3.676 -8.748,1.509 -8.704,1.437" style="fill:none;stroke:#000;stroke-width:2.6px;"/><path d="M1332.28,396.375l0.513,44.826" style="fill:none;stroke:#000;stroke-width:2.6px;"/><path d="M1337.604,441.201l69.385,-30.761" style="fill:none;stroke:#000;stroke-width:2.6px;"/></g><g><path d="M1291.146,254.321l44.541,-23.875l-0.819,24.631c0,0 15.742,3.976 30.441,-22.086" style="fill:none;stroke:#000;stroke-width:1.95px;"/><path d="M1365.31,232.991c0.59,1.769 1.908,8.454 6.585,12.467c6.117,5.248 16.455,8.538 18.961,8.651" style="fill:none;stroke:#000;stroke-width:1.95px;"/><path d="M1390.856,254.11c2.806,11.223 -0.363,11.312 -0.363,55.851" style="fill:none;stroke:#000;stroke-width:1.95px;"/></g><g><g><path d="M1272.262,213.199c0.803,-0.401 19.274,11.192 27.239,-5.781c1.666,-3.549 11.021,-13.52 17.551,-17.229c8.001,-5.582 33.805,-7.188 36.816,-7.188c22.018,0 34.822,16.15 39.44,25.387" style="fill:none;stroke:#000;stroke-width:2.6px;"/><path d="M1393.308,208.387c17.102,0.744 23.169,-0.408 32.187,7.253c23.621,22.884 1.529,88.07 -2.362,97.584c-1.636,4.001 -8.489,4.133 -10.974,4.307" style="fill:none;stroke:#000;stroke-width:2.6px;"/></g></g><path d="M1292.839,266.578c4.144,-2.07 7.821,-1.963 11.186,-0.274" style="fill:none;stroke:#000;stroke-width:1.95px;"/><path d="M1359.506,270.267c3.579,-1.015 8.432,-0.337 10.338,3.146" style="fill:none;stroke:#000;stroke-width:1.95px;"/><path d="M1302.435,284.054l0.074,3.262" style="fill:none;stroke:#000;stroke-width:5.21px;"/><path d="M1362.365,287.317l-0.245,3.323" style="fill:none;stroke:#000;stroke-width:5.21px;"/><path d="M1332.28,295.182c-8.014,13.706 -14.763,12.943 -21.092,14.905c5.519,7.406 11.329,17.204 11.329,17.204" style="fill:none;stroke:#000;stroke-width:1.95px;"/><path d="M1308.073,344.881c3.32,0 34.847,0.912 34.847,0.912c-7.598,11.929 -14.881,21.359 -17.917,24.396c-2.37,-3.085 -16.93,-25.308 -16.93,-25.308l0,-0Z" style="fill:none;stroke:#000;stroke-width:1.95px;"/></g><path d="M1410.541,424.72l-149.24,191.969" style="fill:none;stroke:#000;stroke-width:2.6px;"/><path id="ネクタイ" d="M1260.658,614.735l22.137,-2.837l8.848,-37.946c0.295,-3.834 21.066,-74.517 34.767,-90.959l8.709,-11.849c3.463,-6.112 4.945,-7.333 0.639,-16.56c-1.223,-2.761 -11.297,-4.682 -13.595,-4.399c-11.191,1.377 -10.488,9.846 -8.873,23.929c-19.532,21.485 -47.703,97.038 -52.633,140.621l0,-0Z"/></g></g></svg>