<?xml version="1.0" encoding="UTF-8" standalone="no"?><!DOCTYPE svg PUBLIC "-//W3C//DTD SVG 1.1//EN" "http://www.w3.org/Graphics/SVG/1.1/DTD/svg11.dtd"><svg width="1921px" height="1080px" version="1.1" xmlns="http://www.w3.org/2000/svg" xmlns:xlink="http://www.w3.org/1999/xlink" xml:space="preserve" xmlns:serif="http://www.serif.com/" style="fill-rule:evenodd;clip-rule:evenodd;stroke-linejoin:round;stroke-miterlimit:2;"><g transform="matrix(1.883833,0,0,1.883833,-985.059694,-284.991892)"><path d="M599,453L599,445L621,445L635,379L604,298L589,298L589,289L667,289L667,298L646,298L673,369L710,311C711,309 712,308 713,306C713,305 714,304 714,303C714,301 713,300 711,299C710,298 707,298 704,298L696,298L696,289L743,289L743,298C733,298 726,303 719,313C719,314 718,314 718,315L676,378L662,445L685,445L685,453L599,453Z" style="fill:rgb(0,100,255);fill-rule:nonzero;"/><path d="M778,358C772,358 767,360 764,363C761,365 758,371 755,380C752,390 749,401 747,412C745,423 744,431 744,436C744,441 745,444 747,447C750,449 754,450 759,450C765,450 769,448 772,446C776,443 778,438 781,431C784,420 787,408 789,397C791,386 792,378 792,372C792,367 791,364 789,362C787,360 783,358 778,358ZM709,415C709,398 716,384 731,371C745,359 761,352 780,352C794,352 805,356 814,364C822,372 827,382 827,394C827,411 820,425 806,437C791,450 775,456 755,456C742,456 731,452 722,445C714,437 709,427 709,415Z" style="fill:rgb(0,100,255);fill-rule:nonzero;"/><path d="M876,456C866,456 857,454 850,449C844,445 841,439 841,433C841,428 842,425 844,422C847,419 850,418 854,418C859,418 862,419 864,422C867,424 868,427 868,431C868,433 868,435 867,438C865,441 865,442 865,443C865,445 866,447 868,448C871,449 874,450 878,450C884,450 889,449 893,446C897,444 898,441 898,437C898,434 897,431 895,429C893,426 888,422 880,417C871,411 864,406 860,401C857,396 855,391 855,385C855,376 859,368 866,362C873,355 883,352 894,352C903,352 910,354 915,357C920,361 923,365 923,371C923,374 922,377 920,380C918,382 916,383 912,383C909,383 905,382 903,379C901,377 899,374 899,370C899,369 900,368 900,366C900,364 900,364 900,363C900,361 900,360 898,359C897,358 895,358 892,358C887,358 883,359 880,361C877,363 875,365 875,368C875,371 880,376 889,381C893,383 897,386 899,387C906,392 911,397 914,402C918,407 919,413 919,419C919,430 915,439 908,446C900,453 890,456 876,456Z" style="fill:rgb(0,100,255);fill-rule:nonzero;"/><path d="M966,312C966,307 968,303 971,300C974,296 978,295 983,295C988,295 992,296 996,300C999,303 1001,307 1001,312C1001,317 999,321 996,324C992,328 988,329 983,329C978,329 974,328 971,324C968,321 966,317 966,312ZM943,425L958,363L941,363L941,356C949,356 957,355 966,355C975,354 984,353 993,352L975,433C974,434 974,436 974,437C974,439 973,440 973,440C973,442 974,443 974,443C975,444 976,444 977,444C981,444 984,442 988,437C991,433 995,426 1000,416L1005,418C1000,431 994,441 987,446C981,452 973,455 963,455C956,455 951,453 947,450C943,447 941,443 941,437C941,436 942,434 942,432C942,430 943,427 943,425Z" style="fill:rgb(0,100,255);fill-rule:nonzero;"/><path d="M1078,358C1074,358 1071,360 1068,364C1065,368 1062,376 1058,387C1055,398 1052,408 1050,419C1048,429 1047,436 1047,440C1047,443 1048,445 1050,447C1051,448 1053,449 1056,449C1066,449 1074,442 1083,428C1091,415 1095,400 1095,383C1095,375 1093,369 1091,365C1088,361 1084,358 1078,358ZM1087,431C1082,440 1076,446 1071,450C1065,454 1058,456 1051,456C1041,456 1032,452 1026,445C1019,438 1016,428 1016,417C1016,410 1017,403 1020,395C1023,388 1027,381 1033,375C1039,368 1045,362 1053,358C1060,354 1068,352 1075,352C1081,352 1086,354 1090,357C1094,360 1097,364 1098,370L1115,296L1095,296L1095,289L1102,289C1111,289 1119,289 1127,289C1135,288 1142,288 1150,287L1116,430C1116,433 1115,435 1115,437C1115,438 1114,440 1114,441C1114,443 1115,444 1115,445C1116,446 1117,446 1118,446C1121,446 1125,444 1129,439C1133,434 1137,427 1140,419L1145,422C1141,433 1136,441 1129,447C1123,453 1115,456 1106,456C1100,456 1095,454 1092,451C1088,447 1087,442 1087,435C1087,435 1087,434 1087,433C1087,433 1087,432 1087,431Z" style="fill:rgb(0,100,255);fill-rule:nonzero;"/><path d="M1218,360C1214,360 1210,362 1207,365C1204,369 1201,376 1198,386C1195,397 1192,407 1190,417C1187,427 1186,434 1186,438C1186,441 1187,444 1189,446C1191,448 1193,449 1196,449C1201,449 1205,446 1210,442C1214,438 1218,432 1221,425C1225,417 1228,409 1230,401C1232,393 1233,386 1233,380C1233,373 1232,368 1229,365C1227,361 1223,360 1218,360ZM1251,432C1250,433 1250,434 1250,436C1250,437 1250,438 1250,439C1250,440 1250,441 1250,442C1251,443 1252,443 1253,443C1256,443 1260,441 1263,437C1267,432 1271,425 1275,417L1280,419C1275,431 1270,439 1264,445C1257,452 1250,455 1243,455C1237,455 1233,453 1229,449C1226,445 1224,440 1224,433C1224,433 1224,433 1224,432C1225,431 1225,430 1225,430C1220,439 1215,445 1209,450C1204,454 1197,456 1190,456C1180,456 1172,452 1165,445C1159,437 1155,428 1155,416C1155,400 1161,386 1173,372C1185,359 1199,352 1213,352C1220,352 1225,354 1230,357C1234,361 1237,365 1238,371L1242,355L1270,355L1251,432Z" style="fill:rgb(0,100,255);fill-rule:nonzero;"/><path d="M610,589L600,483L588,483L588,477L639,477L639,483L627,483L633,551L668,493C669,491 670,490 670,489C671,488 671,487 671,486C671,485 671,484 670,484C669,483 668,483 666,483L660,483L660,477L690,477L690,483L689,483C686,483 684,483 682,485C680,486 677,489 675,493L617,589L610,589Z" style="fill:rgb(0,100,255);fill-rule:nonzero;"/><path d="M694,492C694,489 695,486 698,484C700,482 703,481 706,481C709,481 712,482 714,484C716,486 717,489 717,492C717,495 716,498 714,500C712,503 709,504 706,504C703,504 700,503 698,500C695,498 694,496 694,492ZM679,568L689,526L677,526L677,521C683,521 689,521 695,521C700,520 706,520 712,519L700,573C700,574 700,575 700,576C699,577 699,577 699,578C699,579 700,579 700,580C700,580 701,580 702,580C704,580 706,579 709,576C711,573 714,568 717,562L720,563C717,572 713,578 709,582C704,585 699,587 693,587C688,587 684,586 682,584C679,582 678,579 678,576C678,575 678,574 678,572C678,571 679,569 679,568Z" style="fill:rgb(0,100,255);fill-rule:nonzero;"/><path d="M769,523C767,523 764,524 762,527C760,530 758,535 756,542C754,549 752,556 751,563C749,570 748,575 748,578C748,580 749,581 750,582C751,583 753,583 755,583C761,583 767,579 772,570C778,561 780,551 780,540C780,534 779,530 777,527C775,525 773,523 769,523ZM775,572C772,577 768,581 764,584C760,587 756,588 751,588C744,588 738,586 734,581C730,576 727,570 727,562C727,558 729,553 731,548C733,543 735,538 739,534C743,529 747,526 752,523C757,521 762,519 767,519C771,519 775,520 777,522C780,524 782,527 783,531L794,482L781,482L781,477L785,477C791,477 796,477 802,477C807,476 812,476 817,476L795,571C794,573 794,574 794,575C793,576 793,577 793,578C793,579 793,580 794,581C794,581 795,582 796,582C798,582 800,580 803,577C806,573 808,569 810,564L814,565C811,573 808,578 803,582C799,586 794,588 788,588C784,588 780,587 778,585C776,582 775,579 775,574C775,574 775,574 775,573C775,573 775,572 775,572Z" style="fill:rgb(0,100,255);fill-rule:nonzero;"/><path d="M848,553C848,553 849,553 851,553C852,554 853,554 854,554C860,554 865,552 869,548C872,544 874,539 874,532C874,529 873,527 872,525C870,524 868,523 865,523C861,523 858,525 856,529C854,532 851,541 848,553ZM847,557C846,561 845,565 845,568C844,571 844,574 844,575C844,578 845,580 846,581C848,583 850,583 853,583C859,583 865,582 871,578C876,575 882,570 886,564L889,566C884,574 878,579 872,583C865,586 859,588 852,588C843,588 835,586 830,581C824,576 821,570 821,562C821,557 822,552 824,547C827,542 830,537 834,533C839,529 844,525 850,523C856,520 862,519 868,519C875,519 880,521 885,524C889,527 891,531 891,537C891,543 888,549 882,552C876,556 868,558 857,558C856,558 853,558 850,557C849,557 848,557 847,557Z" style="fill:rgb(0,100,255);fill-rule:nonzero;"/><path d="M949,523C945,523 942,524 940,526C937,528 936,532 934,537C932,545 930,552 928,559C927,566 926,572 926,575C926,578 927,580 929,582C930,583 933,584 936,584C940,584 943,583 945,581C948,579 949,576 951,571C953,564 955,557 957,549C958,542 959,536 959,532C959,529 958,527 957,525C955,524 953,523 949,523ZM903,561C903,550 908,540 918,532C927,523 938,519 950,519C960,519 967,522 973,527C979,532 982,539 982,547C982,558 977,568 967,576C958,584 947,588 934,588C925,588 918,586 912,581C906,576 903,569 903,561Z" style="fill:rgb(0,100,255);fill-rule:nonzero;"/><g transform="matrix(1,0,0,1,-26.541632,0)"><path d="M1043,587L1048,553L1054,553C1055,563 1058,570 1063,575C1068,581 1074,583 1082,583C1090,583 1096,582 1100,578C1104,574 1106,569 1106,563C1106,555 1100,549 1088,543C1087,542 1086,542 1085,542C1075,537 1068,532 1064,527C1061,523 1059,517 1059,510C1059,500 1062,492 1068,485C1075,478 1083,475 1092,475C1097,475 1101,476 1105,477C1108,478 1112,480 1116,483L1123,477L1127,477L1123,507L1116,507C1116,499 1114,492 1109,487C1105,483 1099,480 1092,480C1086,480 1082,482 1078,484C1075,487 1073,491 1073,495C1073,501 1080,507 1094,513C1095,514 1096,514 1096,515C1106,519 1112,524 1117,529C1121,534 1123,540 1123,547C1123,559 1119,569 1111,577C1104,585 1094,589 1082,589C1078,589 1073,588 1069,587C1065,585 1061,583 1057,580L1047,587L1043,587Z" style="fill:rgb(255,165,0);fill-rule:nonzero;"/></g><g transform="matrix(1,0,0,1,-26.541632,0)"><path d="M1138,568L1148,526L1140,526L1140,521L1150,521L1154,502C1154,502 1155,502 1155,502C1158,503 1160,503 1161,503C1164,503 1166,503 1168,502C1171,502 1173,502 1176,501L1171,521L1181,521L1181,526L1170,526L1159,574C1159,575 1159,575 1159,576C1159,576 1158,577 1158,577C1158,578 1159,579 1159,579C1160,579 1160,580 1161,580C1163,580 1166,578 1169,575C1171,572 1174,568 1176,562L1179,564C1177,571 1173,577 1168,581C1164,585 1158,587 1152,587C1147,587 1144,586 1141,584C1138,582 1137,579 1137,576C1137,575 1137,574 1137,573C1137,571 1138,569 1138,568Z" style="fill:rgb(255,165,0);fill-rule:nonzero;"/></g><g transform="matrix(1,0,0,1,-26.541632,0)"><path d="M1193,568L1203,526L1191,526L1192,521C1197,521 1203,521 1209,521C1214,520 1220,520 1227,519L1214,572C1214,574 1213,575 1213,576C1213,577 1213,578 1213,578C1213,579 1213,580 1214,581C1214,581 1215,582 1216,582C1220,582 1224,578 1229,572C1234,566 1238,560 1239,554L1247,521L1269,521L1256,576C1256,576 1256,577 1256,577C1256,577 1256,578 1256,578C1256,579 1256,580 1256,580C1257,581 1257,581 1258,581C1260,581 1262,580 1265,576C1268,573 1271,569 1273,563L1276,565C1273,572 1269,578 1265,582C1261,586 1256,588 1250,588C1246,588 1242,587 1239,585C1237,583 1236,580 1236,577C1236,576 1236,575 1236,573C1236,572 1237,570 1237,568C1232,575 1228,580 1223,583C1218,587 1213,588 1207,588C1203,588 1199,587 1196,585C1194,583 1192,580 1192,576C1192,575 1192,574 1192,572C1193,571 1193,570 1193,568Z" style="fill:rgb(255,165,0);fill-rule:nonzero;"/></g><g transform="matrix(1,0,0,1,-26.541632,0)"><path d="M1325,523C1322,523 1320,524 1318,527C1316,530 1314,535 1312,542C1309,549 1308,556 1306,563C1305,570 1304,575 1304,578C1304,580 1305,581 1306,582C1307,583 1308,583 1310,583C1316,583 1322,579 1328,570C1333,561 1336,551 1336,540C1336,534 1335,530 1333,527C1331,525 1328,523 1325,523ZM1331,572C1327,577 1324,581 1320,584C1316,587 1311,588 1307,588C1300,588 1294,586 1290,581C1285,576 1283,570 1283,562C1283,558 1284,553 1286,548C1288,543 1291,538 1294,534C1298,529 1303,526 1308,523C1313,521 1318,519 1323,519C1327,519 1330,520 1333,522C1336,524 1337,527 1338,531L1350,482L1336,482L1336,477L1341,477C1346,477 1352,477 1357,477C1363,476 1368,476 1373,476L1350,571C1350,573 1349,574 1349,575C1349,576 1349,577 1349,578C1349,579 1349,580 1350,581C1350,581 1351,582 1352,582C1354,582 1356,580 1359,577C1361,573 1364,569 1366,564L1369,565C1367,573 1363,578 1359,582C1354,586 1349,588 1344,588C1339,588 1336,587 1334,585C1332,582 1330,579 1330,574C1330,574 1330,574 1331,573C1331,573 1331,572 1331,572Z" style="fill:rgb(255,165,0);fill-rule:nonzero;"/></g><g transform="matrix(1,0,0,1,-26.541632,0)"><path d="M1393,492C1393,489 1394,486 1397,484C1399,482 1402,481 1405,481C1408,481 1411,482 1413,484C1415,486 1416,489 1416,492C1416,495 1415,498 1413,500C1411,503 1408,504 1405,504C1402,504 1399,503 1397,500C1394,498 1393,496 1393,492ZM1378,568L1388,526L1376,526L1376,521C1382,521 1388,521 1394,521C1399,520 1405,520 1411,519L1399,573C1399,574 1399,575 1399,576C1398,577 1398,577 1398,578C1398,579 1399,579 1399,580C1399,580 1400,580 1401,580C1403,580 1405,579 1408,576C1410,573 1413,568 1416,562L1419,563C1416,572 1412,578 1408,582C1403,585 1398,587 1392,587C1387,587 1383,586 1381,584C1378,582 1377,579 1377,576C1377,575 1377,574 1377,572C1377,571 1378,569 1378,568Z" style="fill:rgb(255,165,0);fill-rule:nonzero;"/></g><g transform="matrix(1,0,0,1,-26.541632,0)"><path d="M1472,523C1468,523 1464,524 1462,526C1460,528 1458,532 1456,537C1454,545 1452,552 1451,559C1449,566 1449,572 1449,575C1449,578 1450,580 1451,582C1453,583 1455,584 1459,584C1463,584 1466,583 1468,581C1470,579 1472,576 1473,571C1476,564 1478,557 1479,549C1481,542 1481,536 1481,532C1481,529 1480,527 1479,525C1477,524 1475,523 1472,523ZM1426,561C1426,550 1431,540 1440,532C1449,523 1460,519 1473,519C1482,519 1490,522 1496,527C1501,532 1504,539 1504,547C1504,558 1499,568 1490,576C1481,584 1469,588 1457,588C1447,588 1440,586 1434,581C1429,576 1426,569 1426,561Z" style="fill:rgb(255,165,0);fill-rule:nonzero;"/></g></g></svg>