<?xml version="1.0" encoding="UTF-8" standalone="no"?><!DOCTYPE svg PUBLIC "-//W3C//DTD SVG 1.1//EN" "http://www.w3.org/Graphics/SVG/1.1/DTD/svg11.dtd"><svg width="100%" height="100%" viewBox="0 0 1027 1027" version="1.1" xmlns="http://www.w3.org/2000/svg" xmlns:xlink="http://www.w3.org/1999/xlink" xml:space="preserve" xmlns:serif="http://www.serif.com/" style="fill-rule:evenodd;clip-rule:evenodd;stroke-linecap:round;stroke-linejoin:round;stroke-miterlimit:1.5;"><path d="M513.014,16.667c273.941,0 496.347,222.406 496.347,496.347c0,273.941 -222.406,496.347 -496.347,496.347c-273.941,0 -496.347,-222.406 -496.347,-496.347c-0,-273.941 222.406,-496.347 496.347,-496.347Zm0,0c107.83,0 195.375,222.406 195.375,496.347c0,273.941 -87.544,496.347 -195.375,496.347c-107.83,0 -195.375,-222.406 -195.375,-496.347c0,-273.941 87.544,-496.347 195.375,-496.347Zm-419.497,231.011l833.892,0m-910.742,265.336l992.694,0m-898.183,284.509l803.28,0" style="fill:none;stroke:#000;stroke-width:33.33px;"/></svg>