<?xml version="1.0" encoding="UTF-8" standalone="no"?><!DOCTYPE svg PUBLIC "-//W3C//DTD SVG 1.1//EN" "http://www.w3.org/Graphics/SVG/1.1/DTD/svg11.dtd"><svg width="100%" height="100%" viewBox="0 0 962 992" version="1.1" xmlns="http://www.w3.org/2000/svg" xmlns:xlink="http://www.w3.org/1999/xlink" xml:space="preserve" xmlns:serif="http://www.serif.com/" style="fill-rule:evenodd;clip-rule:evenodd;stroke-linecap:round;stroke-linejoin:round;stroke-miterlimit:1.5;"><path d="M814.848,75.462l0.089,-0.112m-668.635,840.406l0.089,-0.112m668.457,0.183c0,-39.248 31.864,-71.112 71.112,-71.112c39.248,0 71.112,31.864 71.112,71.112c0,39.248 -31.864,71.112 -71.112,71.112c-39.248,0 -71.112,-31.864 -71.112,-71.112Zm-668.457,-840.549c0,39.248 -31.864,71.112 -71.112,71.112c-39.248,0 -71.112,-31.864 -71.112,-71.112c0,-39.248 31.864,-71.112 71.112,-71.112c39.248,0 71.112,31.864 71.112,71.112Zm378.462,364.677c16.008,13.044 26.239,32.913 26.239,55.152c0,22.444 -10.42,42.473 -26.682,55.51c0,0 26.537,-19.203 26.682,-55.344c0.145,-36.141 -26.239,-55.319 -26.239,-55.319Zm289.994,-364.677c0,-39.248 31.864,-71.112 71.112,-71.112c39.248,0 71.112,31.864 71.112,71.112c0,39.248 -31.864,71.112 -71.112,71.112c-39.187,0 -71.013,-31.765 -71.112,-70.929c-0,-0.061 -0,-0.122 -0,-0.183Zm-334.868,348.717c-26.952,-0 -44.081,15.324 -44.081,15.324c12.121,-9.594 27.437,-15.324 44.081,-15.324c17.009,0 32.63,5.984 44.873,15.96c0,0 -16.376,-15.96 -44.873,-15.96Zm0,142.225c26.278,-0.182 44.43,-15.602 44.43,-15.602c-12.176,9.761 -27.626,15.602 -44.43,15.602c-16.45,0 -31.604,-5.598 -43.657,-14.991c0,0 17.38,15.173 43.657,14.991Zm-333.589,-490.941l668.457,-0c0,0.061 0,0.122 0,0.183l-289.995,364.494c-12.243,-9.976 -27.865,-15.96 -44.873,-15.96c-16.644,0 -31.96,5.73 -44.081,15.324l-289.508,-364.041Zm378.019,475.339l290.437,365.209l-668.457,0c0,-0.061 -0,-0.122 -0,-0.183l289.932,-364.415c12.054,9.393 27.207,14.991 43.657,14.991c16.804,0 32.255,-5.841 44.43,-15.602Zm-378.019,365.209c0,39.248 -31.864,71.112 -71.112,71.112c-39.248,0 -71.112,-31.864 -71.112,-71.112c0,-39.248 31.864,-71.112 71.112,-71.112c39.187,0 71.013,31.765 71.112,70.929c0,0.061 0,0.122 0,0.183Zm289.932,-364.598c-16.704,-13.017 -27.455,-33.324 -27.455,-56.121c0,-22.604 10.569,-42.759 27.031,-55.788c0,0 -27.17,19.037 -27.031,55.788c0.139,36.751 27.455,56.121 27.455,56.121Z" style="fill:none;stroke:#000;stroke-width:8.33px;"/></svg>