<?xml version="1.0" encoding="UTF-8" standalone="no"?><!DOCTYPE svg PUBLIC "-//W3C//DTD SVG 1.1//EN" "http://www.w3.org/Graphics/SVG/1.1/DTD/svg11.dtd"><svg width="100%" height="100%" viewBox="0 0 1756 2099" version="1.1" xmlns="http://www.w3.org/2000/svg" xmlns:xlink="http://www.w3.org/1999/xlink" xml:space="preserve" xmlns:serif="http://www.serif.com/" style="fill-rule:evenodd;clip-rule:evenodd;stroke-linecap:round;stroke-linejoin:round;stroke-miterlimit:1.5;"><g><g><g id="スーツパーツ"><g><path d="M1751.657,1308.287l0,786.203l-1667.87,0l91.638,-326.414l141.244,0l-48.061,-108.848l0,-368.706c22.346,-269.945 486.092,-366.915 486.092,-366.915l90.629,-16.724l0,37.923c0.96,79.137 147.44,81.852 147.44,81.852c0,0 188.908,5.959 216.68,-81.852l0,-23.47l57.206,2.271c183.772,47.697 485.002,152.084 485.002,384.681Z" style="fill:#00a2ff;"/><path d="M1209.448,947.185l-216.174,712.043c-35.2,-53.675 -145.877,-398.341 -145.877,-608.477l-2.069,-97.421l364.119,-6.145Z" style="fill:#fff;"/><path d="M990.057,1026.658l68.693,52.543l-62.048,103.518l91.376,159.132l-84.082,289.029l-13.938,21.78l-15.169,-24.119c0,0 -67.039,-174.286 -82.85,-286.689l98.08,-159.85l-0.061,-8.878l-58.753,-93.923l58.753,-52.543Z"/></g><path d="M845.329,944.805c0,421.655 147.858,714.423 147.858,714.423c0,0 118.761,-364.817 216.261,-714.423m-216.261,81.852l-62.015,50.543l62.15,98.78l64.964,-97.318l-65.099,-52.005Zm0.135,149.323l-101.285,170.237c25.381,124.549 73.356,255.798 101.15,310.828l94.889,-317.341l-94.754,-163.724Zm-62.018,-99.126l-73.069,57.935m200.514,-55.59l86.97,78.597m120.935,-234.191c0,0 485.002,93.022 485.002,391.254l0,761.626m-998.047,-1152.881c0,0 -485.002,97.112 -485.002,391.254l0,344.367m998.047,-735.622l66.077,155.594l-76.327,62.873m-501.749,-218.467l-66.077,155.594l83.373,68.677m407.897,-97.126l152.884,197.683l-339.457,410.793m-147.945,-608.477l-130.816,197.683l278.761,410.793m-101.237,46.398l223.649,-87.129c7.418,-2.379 18.43,1.223 21.833,8.398l195.837,450.527m-471.849,-332.046l106.635,338.17m-874.903,10.945l79.059,-315.08c1.898,-6.466 10.015,-10.894 16.738,-11.334l156.403,0c11.764,0 16.831,4.006 17.794,9.883c8.913,54.402 38.594,316.531 38.594,316.531" style="fill:none;stroke:#000;stroke-width:8.33px;"/></g><g id="顔"><g><path d="M1024.331,181.852l58.528,12.764c0,0 33.901,88.455 49.709,101.938c109.343,70.983 83.755,101.783 91.488,142.162c0,0 20.299,-40.379 25.175,-22.274c53.262,0 64.541,76.008 64.541,76.008c-1.871,77.578 -62.594,71.756 -62.594,71.756c-32.717,10.098 -43.962,72.343 -43.962,87.982l2.232,292.618c-20.955,69.595 -159.3,81.852 -219.391,81.852c-54.764,0 -144.4,-25.887 -144.728,-77.753l0,-90.679c-30.322,-16.009 -154.071,-95.722 -173.564,-220.076l0.838,-308.561l3.569,0.805l17.716,-8.077l237.671,-175.038l59.643,0c24.685,0.761 33.129,34.574 33.129,34.574Z" style="fill:#fffbea;"/><path d="M753.61,463.314l0,10.38" style="fill:none;stroke:#000;stroke-width:12.5px;"/><path d="M991.423,463.314l0,10.38" style="fill:none;stroke:#000;stroke-width:12.5px;"/><path d="M712.652,368.899c0,0 17.099,-13.408 33.841,-0m-73.891,-32.338l0,295.027c0,118.892 172.727,230.873 172.727,230.873l0,82.345m12.396,-510.849c0,74.644 -49.706,71.466 -49.706,89.36c0,15.345 38.358,25.452 38.358,25.452m131.887,-179.87c0,0 20.742,-23.035 50.814,0m224.192,47.542c0,0 56.069,12.674 60.209,72.573c4.758,68.846 -50.122,73.372 -50.122,73.372m-24.694,11.856c0,0 -29.215,14.952 -29.215,86.09c0,45.137 0.666,265.083 0.666,265.083m-402.096,-271.342c83.665,4.84 170.245,-7.746 170.245,-7.746l-63.261,130.303c0,0 -95.661,-52.512 -106.983,-122.556Zm37.31,290.731c0,25.588 24.389,81.362 158.181,81.848c180.689,0.656 205.939,-81.848 205.939,-81.848" style="fill:none;stroke:#000;stroke-width:8.33px;"/></g><g><path d="M1184.608,102.386l24.84,36.612c21.701,0 49.049,9.268 55.465,47.931l9.903,230.332l-25.552,-2.96l-20.595,12.88c0,0 -6.896,-12.97 -6.896,-19.962c-0,-27.028 -23.35,-72.757 -89.205,-110.666c-20.19,-26.877 -49.709,-101.938 -49.709,-101.938l-58.528,-9.699c0,0 -7.229,-37.639 -34.207,-37.639l-49.311,0l-17.954,7.642l-228.757,167.378l-22.337,11.014l0.838,-33.995c-20.751,-14.084 -27.601,-85.437 20.847,-111.422l227.082,-155.586c73.774,-54.679 243.261,-30.87 264.077,70.077Z" style="fill:#9a9a9a;"/><path d="M699.754,318.447c0,0 128.693,-95.949 223.754,-164.362c5.928,-4.266 13.527,-6.545 20.826,-6.807l46.255,0c7.351,0.75 14.971,3.748 20.331,8.834c5.624,5.336 8.941,15.456 13.411,23.185m-351.729,120.02c0,0 -11.358,-15.396 -14.908,-31.762c-6.107,-28.155 10.577,-62.971 44.906,-87.363c60.336,-42.87 200.383,-137.051 200.383,-137.051c116.341,-82.981 265.588,-19.464 281.624,60.254m90.208,269.152l-10.326,-177.931c-2.856,-28.176 -11.369,-55.618 -55.042,-55.618m-166.031,3.788l24.722,23.11m14.719,28.72c30.821,65.773 28.431,93.2 75.156,121.141c49.14,29.385 66.041,69.856 66.041,119.912" style="fill:none;stroke:#000;stroke-width:8.33px;"/></g></g></g><g id="スマホ"><path d="M434.325,992.597c16.669,-2.015 25.182,5.339 27.154,15.588c20.638,107.302 96.676,619.837 96.676,619.837l-333.917,33.403c-8.698,0.446 -19.581,-6.819 -21.113,-15.393c-16.549,-92.63 -80.23,-482.902 -95.959,-592.08c-1.212,-8.416 -2.229,-27.409 12.952,-29.506l314.207,-31.849Z" style="fill:#cecece;"/><g id="スマホの外枠"><path d="M108.97,1060.598c0,0 74.076,484.288 93.508,584.423c1.798,9.263 13.659,16.841 23.083,16.385c58.585,-2.833 328.425,-33.383 328.425,-33.383" style="fill:none;stroke:#000;stroke-width:8.33px;"/><path d="M552.972,1592.797c0,0 -74.166,-482.067 -93.159,-582.246c-1.742,-9.188 -4.756,-21.209 -30.412,-17.852l-307.335,31.24" style="fill:none;stroke:#000;stroke-width:8.33px;"/><path d="M141.023,1045.982l266.318,-24.601" style="fill:none;stroke:#000;stroke-width:5px;"/><path d="M528.461,1542.814l-85.587,-500.707" style="fill:none;stroke:#000;stroke-width:5px;"/></g></g><path d="M738.694,1312.602c70.044,59.628 324.293,331.279 324.293,331.279l-145.266,51.738c0,0 -57.059,-73.683 -100.526,-96.092c0,0 -78.796,-4.122 -101.648,-22.232c-7.439,-5.896 -44.145,-40.281 -32.473,-86.43c-9.435,21.963 -18.33,18.183 -18.33,18.183c0,0 -48.336,7.478 -53.975,0c0.028,-9.916 22.561,-19.895 22.561,-19.895l-17.671,-13.988l-14.001,-16.061l90.617,-52.404l-65.717,38.004l-20.429,-10.244l-13.079,-16.304l54.366,-30.667l-4.992,-16.081c0,0 -10.149,-47.53 -54.516,-41.82c0,0 -72.382,14.829 -79.362,7.85c-20.908,-20.908 83.436,-52.835 134.177,-51.329c25.216,0.748 73.995,7.786 95.968,26.492Z" style="fill:#fffbea;"/><path id="左手" d="M659.368,1508.651l-23.612,2.903c-24.569,3.954 -31.303,-3.856 -13.737,-14.993l82.223,-54.236m-102.363,-10.571l-6.325,-6.692c-2.406,-3.263 -1.897,-8.879 3.878,-11.782l71.423,-41.21m-59.702,101.11l-6.325,-6.692c-2.406,-3.263 -1.897,-8.879 3.878,-11.782l79.407,-45.817m229.608,286.73c0,0 -74.691,-91.201 -106.134,-99.318c-47.071,-12.151 -87.025,-11.672 -104.694,-28.391c-36.534,-34.571 -27.24,-71.208 -27.24,-71.208m383.334,142.831c0,0 -233.223,-254.498 -305.074,-312.679c-81.483,-82.08 -212.543,-16.229 -243.053,-7.483c-20.997,6.141 -16.359,17.845 2.776,21.146c33.029,5.699 103.644,-42.681 122.234,26.205" style="fill:none;stroke:#000;stroke-width:8.33px;"/><path d="M290.727,1655.809c28.41,49.097 0.083,112.267 0.083,112.267l-101.802,0l-178.2,-240.613c0,0 -21.09,-54.796 9.006,-84.456c29.433,-29.006 147.024,-108.235 147.024,-108.235c31.381,-22.467 48.42,-7.212 40.472,7.412l-105.556,89.368l20.616,25.144l104.43,-95.588c17.689,-17.689 56.819,1.338 22.274,28.475l-107.511,107.749l14.842,15.995l119.376,-110.308c14.091,-13.756 36.99,9.996 20.189,26.998l-102.654,119.922c11.69,-9.855 63.472,-53.761 70.14,-59.128c28.812,-23.191 63.563,-15.614 20.797,31.549c0,0 -65.005,68.751 -64.853,71.947c3.589,22.187 71.327,61.503 71.327,61.503Z" style="fill:#fffbea;"/><path id="右手" d="M290.727,1655.809c28.386,56.399 0.083,112.267 0.083,112.267m3.231,-339.131c19.754,-18.647 -6.339,-40.946 -26.111,-21.173l-111.525,105.555m62.995,80.979l64.853,-71.947c38.775,-40.766 11.737,-58.234 -20.797,-31.549c0,0 -46.76,39.419 -70.14,59.128m-91.563,-118.386l105.556,-89.368c7.871,-21.21 -16.568,-24.819 -40.472,-7.412c-44.35,32.295 -126.028,80.784 -147.024,108.235c-17.2,22.488 -20.248,58.472 -9.006,84.456c28.199,65.177 178.2,240.613 178.2,240.613m-66.638,-311.38l99.083,-91.621c25.999,-25.999 54.301,-2.249 26.358,25.694l-107.294,106.137" style="fill:none;stroke:#000;stroke-width:8.33px;"/></g></svg>