<?xml version="1.0" encoding="UTF-8" standalone="no"?><!DOCTYPE svg PUBLIC "-//W3C//DTD SVG 1.1//EN" "http://www.w3.org/Graphics/SVG/1.1/DTD/svg11.dtd"><svg width="100%" height="100%" viewBox="0 0 1749 2481" version="1.1" xmlns="http://www.w3.org/2000/svg" xmlns:xlink="http://www.w3.org/1999/xlink" xml:space="preserve" xmlns:serif="http://www.serif.com/" style="fill-rule:evenodd;clip-rule:evenodd;stroke-linecap:round;stroke-linejoin:round;stroke-miterlimit:1.5;"><g id="人間"><g id="右手"><path d="M661.007,1007.023l2.66,253.309l-124.312,17.095l-8.36,-71.516c-88.722,-28.914 -137.103,-91.064 -164.674,-126.984c-22.078,-32.921 -24.778,-60.459 -30.252,-88.201c-11.389,-27.761 11.07,-63.092 19.186,-68.628c13.542,-9.237 39.858,-23.713 94.236,4.279c7.589,4.624 39.68,16.405 63.413,49.868c39.221,55.3 96.151,51.693 99.803,39.962c-53.335,-62.013 -52.633,-94.842 -32.724,-100.748c9.021,-2.676 28.339,15.877 37.866,44.526c14.559,14.755 43.157,47.038 43.157,47.038Z" style="fill:#fff;"/><g><path d="M663.668,1254.615c-5.08,-78.733 3.686,-172.46 -3.132,-240.881c-2.365,-23.735 -36.37,-32.932 -47.828,-66.778c-11.285,-33.337 -45.933,-42.141 -44.426,-17.055c3.266,54.363 35.62,70.866 44.426,86.032" style="fill:none;stroke:#000;stroke-width:8.33px;"/><path d="M612.708,1016.73c0,0 -43.635,22.477 -85.386,-26.159c-101.593,-113.785 -174.102,-81.818 -189.191,-45.239c-16.446,40.346 14.141,128.606 55.908,170.233c35.023,31.184 70.756,67.664 139.42,92.191l5.803,66.544" style="fill:none;stroke:#000;stroke-width:8.33px;"/><path d="M475.69,1056.36c35.527,6.993 31.633,17.842 65.458,33.82" style="fill:none;stroke:#000;stroke-width:2.08px;"/><path d="M379.8,915.459l73.128,75.267" style="fill:none;stroke:#000;stroke-width:4.17px;"/><path d="M356.379,926.677l73.496,86.313" style="fill:none;stroke:#000;stroke-width:4.17px;"/><path d="M338.345,960.243l78.037,88.983" style="fill:none;stroke:#000;stroke-width:4.17px;"/></g></g><g><g id="右腕袖"><path d="M699.597,1254.615l51.232,149.23l-224.699,64.526l-7.17,-187.176l180.637,-26.581Z" style="fill:#71a4ff;"/><path d="M699.597,1254.615l-180.637,26.581" style="fill:none;stroke:#000;stroke-width:8.33px;"/><path d="M526.08,1464.913l-7.121,-183.717" style="fill:none;stroke:#000;stroke-width:8.33px;"/><path d="M750.209,1401.092l-50.612,-146.477" style="fill:none;stroke:#000;stroke-width:8.33px;"/></g><g id="ズボン"><path d="M1338.362,2067.282l26.153,311.539l-713.571,86.917l16.925,-244.029l670.494,-154.426Z" style="fill:#71a4ff;"/><path d="M1337.997,2084.73l26.322,294.091" style="fill:none;stroke:#000;stroke-width:8.33px;"/><path d="M659.914,2318.83l-8.971,146.908" style="fill:none;stroke:#000;stroke-width:8.33px;"/></g><path d="M1113.819,1743.785l-63.894,-425.098l-290.239,79.409l233.362,-302.415c0,0 200.429,-236.12 239.823,-308.792l37.746,-15.973c21.337,29.618 65.481,114.666 91.517,175.187c30.721,71.411 58.984,158.779 67.035,265.177c9.141,120.789 -8.377,231.15 -44.037,333.141l-271.313,199.365Z" style="fill:#71a4ff;"/><path d="M1270.74,771.446c22.13,23.88 124.936,210.355 150.741,356.369c34.805,273.672 -39.626,421.208 -40.976,426.608" style="fill:none;stroke:#000;stroke-width:8.33px;"/></g><g id="タブレット"><g><path d="M1176.257,2171.44l-126.332,-852.753" style="fill:none;stroke:#000;stroke-width:16.67px;"/><path d="M1176.257,2171.44l-584.248,166.361" style="fill:none;stroke:#000;stroke-width:16.67px;"/><path d="M592.009,2336.575l-148.95,-828.01" style="fill:none;stroke:#000;stroke-width:16.67px;"/><path d="M1049.925,1318.686l-557.76,158.819" style="fill:none;stroke:#000;stroke-width:16.67px;"/></g><path d="M1048.349,1318.686l127.908,852.753l-584.248,165.135c0,0 -118.723,-692.924 -150.386,-832.177c-1.014,-4.458 4.008,-13.212 8.378,-14.552c95.776,-29.355 598.347,-171.16 598.347,-171.16Z" style="fill:#ccc;stroke:#000;stroke-width:8.33px;"/></g><g id="左手"><path d="M706.478,2059.788l20.799,135.616l-31.908,3.208c-7.126,19.065 -132.808,56.721 -187.292,63.359c-3.915,0.477 -8.998,0.231 -10.991,-10.336c-1.037,-5.501 7.935,-22.363 3.944,-25.872c-5.487,-4.825 -19.032,-4.66 -21.764,-13.719c-2.378,-7.883 8.053,-23.897 6.476,-27.483c-3.349,-7.616 -14.901,-0.913 -15.699,-9.079c-1.939,-19.845 19.562,-34.961 22.614,-39.408c3.849,-5.611 -26.914,-1.192 -26.914,-1.192c-11.651,-14.17 -21.478,-28.04 -14.348,-32.065c18.466,-14.831 106.985,-1.075 110.086,-6.357c1.652,-3.688 -14.87,-18.243 -44.522,-15.769c-5.333,-3.667 -0.872,-41.161 -0.872,-41.161c16.083,8.027 53.456,19.797 86.774,6.982l19.72,42.551c35.202,3.243 83.897,-29.275 83.897,-29.275Z" style="fill:#fff;"/><path d="M706.338,2059.395c-45.986,27.859 -79.167,37.951 -85.325,27.391c-3.377,-5.167 -4.466,-9.427 -17.903,-39.422c-49.03,13.861 -86.814,-7.834 -86.814,-7.834c-2.368,35.741 -5.938,41.16 5.25,41.859c25.318,1.582 36.794,11.41 36.794,11.41c19.495,13.592 -60.774,-2.253 -100.169,7.596c-13.468,3.367 -4.203,19.809 4.861,30.913c7.081,8.674 21.894,-2.804 30.396,4.28c-0,0 -18.036,14.193 -21.559,27.754c-2.508,9.652 -1.881,14.917 7.396,17.054c9.568,2.204 8.881,13.961 3.585,19.907c-5.247,5.891 -1.913,20.266 6.747,20.84c9.142,0.607 15.736,9.017 12.06,16.267c-9.008,17.762 4.904,26.475 11.983,24.208c5.316,-1.703 171.037,-30.388 181.946,-63.059" style="fill:none;stroke:#000;stroke-width:8.33px;"/></g><path d="M1127.552,1731.875l252.586,-193.322l36.881,510.317l-683.153,156.069l-35.725,-203.736l429.411,-269.328Z" style="fill:#71a4ff;"/><g id="左腕"><path d="M1353.247,1211.279l63.773,837.591" style="fill:none;stroke:#000;stroke-width:8.33px;"/><path d="M1417.019,2048.87l-688.017,156.069" style="fill:none;stroke:#000;stroke-width:8.33px;"/><path d="M698.141,2001.203l429.411,-269.328" style="fill:none;stroke:#000;stroke-width:8.33px;"/><path d="M729.002,2204.939l-30.861,-203.736" style="fill:none;stroke:#000;stroke-width:8.33px;"/></g><g id="顔と首"><path d="M1237.48,727.263l33.954,44.183l-37.362,15.356l-483.244,613.082l-0.62,1.207l136.298,-371.023c28.356,-72.906 96.529,-188.844 96.529,-188.844c0,0 -2.262,-125.066 -1.641,-146.965c-101.865,-17.374 -133.296,-93.308 -161.051,-161.02c-24.281,-59.239 -31.04,-231.393 -31.04,-231.393l-1.987,-21.766l59.757,-36.379l144.437,-77.011l-1.437,79.528c51.517,-0.274 81.164,-43.294 97.036,-69.105c9.894,26.381 23.637,51.698 80.601,65.313c0.934,4.6 6.241,32.922 2.436,64.603l-2.436,114.152l70.162,22.972c40.519,1.746 29.451,-20.352 40.538,-22.972c8.907,-2.105 21.701,0.608 26.081,8.511c5.957,10.747 15.973,39.79 9.659,55.968c-20.652,52.912 -45.685,89.9 -74.474,89.9l-2.197,151.701Z" style="fill:#fff;"/><g><path d="M1276.793,115.031c20.908,21.912 40.047,62.125 37.358,131.188c-2.409,61.866 -18.546,131.31 -38.923,180.205c0,0 -5.462,19.14 -38.12,18.992l-69.397,-22.993c-2.642,-35.746 8.662,-139.33 1.161,-176.203c-24.154,-8.438 -54.89,-26.013 -68.517,-37.587c-10.894,-9.253 -13.245,-31.858 -13.245,-31.858c0,0 -35.157,71.126 -97.785,69.445l1.398,-79.528l-140.979,76.618l-60.44,36.773c-16.628,-48.1 7.261,-114.629 24.845,-145.662c1.715,-17.612 24.017,-0.267 35.595,-11.747c14.238,-14.118 45.456,-64.761 85.961,-85.545c51.864,-26.614 113.293,-22.289 113.293,-22.289c64.57,13.542 86.817,17.478 127.723,81.252c0,0 76.935,-5.306 100.072,18.942Z" style="fill:#ccc;"/></g><g><path d="M789.304,303.188c0,88.328 8.405,212.933 60.44,295.715c22.427,31.816 51.766,85.548 159.899,101.875c32.286,4.875 99.016,5.623 136.702,-30.214c21.733,-20.666 32.004,-32.302 61.225,-73.454" style="fill:none;stroke:#000;stroke-width:8.33px;"/><path d="M786.935,280.081c-9.784,-30.06 3.473,-117.016 27.213,-145.662" style="fill:none;stroke:#000;stroke-width:8.33px;"/><path d="M1237.356,573.24l0,153.09" style="fill:none;stroke:#000;stroke-width:8.33px;"/><path d="M1239.677,575.562c19.851,-1.805 35.468,-6.74 71.563,-78.931c10.143,-20.287 2.031,-63.001 -11.204,-69.602c-23.592,-11.766 -27.999,4.829 -27.858,4.6" style="fill:none;stroke:#000;stroke-width:8.33px;"/><path d="M981.394,697.758l1.641,143.467" style="fill:none;stroke:#000;stroke-width:8.33px;"/><path d="M998.436,841.225l222.07,-98.454" style="fill:none;stroke:#000;stroke-width:8.33px;"/></g><g><path d="M849.744,243.104l142.557,-76.413l-2.62,78.832c0,0 50.382,12.725 97.429,-70.687" style="fill:none;stroke:#000;stroke-width:6.25px;"/><path d="M1087.11,174.836c1.887,5.662 6.106,27.059 21.077,39.902c19.579,16.796 52.664,27.325 60.685,27.689" style="fill:none;stroke:#000;stroke-width:6.25px;"/><path d="M1168.871,242.428c8.98,35.92 -1.161,36.205 -1.161,178.755" style="fill:none;stroke:#000;stroke-width:6.25px;"/></g><g><g><path d="M789.304,111.49c2.57,-1.285 61.687,35.82 87.181,-18.503c5.331,-11.359 35.274,-43.271 56.172,-55.143c25.607,-17.864 108.196,-23.007 117.833,-23.007c70.469,0 111.449,51.688 126.231,81.252" style="fill:none;stroke:#000;stroke-width:8.33px;"/><path d="M1176.721,96.09c54.736,2.38 74.155,-1.307 103.016,23.215c75.6,73.242 4.893,281.873 -7.559,312.325c-5.237,12.807 -27.169,13.227 -35.124,13.786" style="fill:none;stroke:#000;stroke-width:8.33px;"/></g></g><path d="M855.163,282.335c13.263,-6.626 25.032,-6.284 35.803,-0.878" style="fill:none;stroke:#000;stroke-width:6.25px;"/><path d="M1068.535,294.141c11.455,-3.248 26.988,-1.079 33.086,10.068" style="fill:none;stroke:#000;stroke-width:6.25px;"/><path d="M885.875,338.267l0.236,10.441" style="fill:none;stroke:#000;stroke-width:16.67px;"/><path d="M1077.685,348.709l-0.783,10.634" style="fill:none;stroke:#000;stroke-width:16.67px;"/><path d="M981.394,373.883c-25.649,43.868 -47.25,41.425 -67.506,47.704c17.664,23.703 36.26,55.063 36.26,55.063" style="fill:none;stroke:#000;stroke-width:6.25px;"/><path d="M903.92,532.947c10.627,0 111.531,2.92 111.531,2.92c-24.317,38.179 -47.626,68.362 -57.344,78.081c-7.584,-9.874 -54.187,-81 -54.187,-81Z" style="fill:none;stroke:#000;stroke-width:6.25px;"/></g><path d="M1231.874,788.476l-477.652,614.41" style="fill:none;stroke:#000;stroke-width:8.33px;"/><path id="ネクタイ" d="M752.165,1396.633l70.852,-9.081l28.317,-121.448c0.944,-12.272 67.422,-238.496 111.275,-291.119l27.875,-37.924c11.085,-19.562 15.828,-23.469 2.044,-53.002c-3.915,-8.837 -36.158,-14.984 -43.512,-14.079c-35.816,4.408 -33.567,31.513 -28.398,76.587c-62.513,68.764 -152.678,310.575 -168.454,450.067Z"/></g></svg>