<?xml version="1.0" encoding="UTF-8" standalone="no"?><!DOCTYPE svg PUBLIC "-//W3C//DTD SVG 1.1//EN" "http://www.w3.org/Graphics/SVG/1.1/DTD/svg11.dtd"><svg width="100%" height="100%" viewBox="0 0 1080 1921" version="1.1" xmlns="http://www.w3.org/2000/svg" xmlns:xlink="http://www.w3.org/1999/xlink" xml:space="preserve" xmlns:serif="http://www.serif.com/" style="fill-rule:evenodd;clip-rule:evenodd;stroke-linecap:round;stroke-linejoin:round;stroke-miterlimit:1.5;"><g><g id="人"><g id="スーツ"><path d="M932.208,1042.575c0,0 15.33,15.095 21.982,34.634c70.47,206.985 82.718,465.971 80.192,562.837l-923.071,8.884c-4.983,-233.01 20.914,-498.143 87.316,-601.084c47.366,-60.419 168.157,-132.293 224.808,-153.171c-44.656,334.195 118.281,683.835 118.281,683.835c0,0 121.733,-289.175 98.516,-697.008c37.528,27.289 261.44,107.654 291.976,161.073Z" style="fill:#dadada;"/><g><path d="M480.439,866.474c-142.842,60.822 -261.902,139.232 -288.319,193.973c-58.825,121.898 -87.591,318.84 -81.14,585.41" style="fill:none;stroke:#000;stroke-width:5px;"/><path d="M602.993,857.734c149.293,99.529 322.232,116.555 356.39,233.227c38.03,129.897 74.999,295.069 74.999,546.156" style="fill:none;stroke:#000;stroke-width:5px;"/><path d="M671.865,898.458c16.172,20.136 49.126,63.731 59.825,85.13c17.895,35.79 -69.32,37.764 -69.32,37.764" style="fill:none;stroke:#000;stroke-width:4.17px;"/><path d="M379.187,914.281c-14.811,20.577 -30.851,46.804 -48.129,73.547c-19.062,29.506 41.06,44.112 41.06,44.112" style="fill:none;stroke:#000;stroke-width:4.17px;"/><path d="M646.63,1011.829l75.614,46.307c32.098,13.269 -159.049,503.91 -180.527,518.229" style="fill:none;stroke:#000;stroke-width:4.17px;"/><path d="M411.584,1011.829l-84.259,43.768c-34.349,13.269 191.407,508.594 214.392,522.913" style="fill:none;stroke:#000;stroke-width:4.17px;"/><path d="M898.944,1338.772l0,302.624" style="fill:none;stroke:#000;stroke-width:4.17px;stroke-linecap:butt;"/></g><g><path d="M602.142,858.515l38.09,21.816c26.214,392.452 -98.516,698.179 -98.516,698.179c0,0 -164.373,-350.212 -118.281,-686.14l53.678,-25.895c0,0 24.446,4.794 47.726,4.794c34.988,0 77.303,-12.753 77.303,-12.753Z" style="fill:#fff;"/><path d="M555.56,917.076l7.335,5.853c1.377,1.224 2.761,3.291 2.844,4.895c2.453,47.319 30.881,465.212 30.881,465.212c-16.857,89.187 -54.905,185.474 -54.905,185.474c0,0 -27.936,-68.277 -67.547,-185.474c0,0 43.787,-417.549 46.801,-465.212c0.234,-3.7 2.475,-5.688 4.108,-7.233l5.001,-3.795l-17.688,-17.688c-4.218,-4.218 -4.218,-11.067 0,-15.284l22.927,-22.927c4.218,-4.218 11.067,-4.218 15.284,0l22.927,22.927c4.218,4.218 4.218,11.067 0,15.284l-17.968,17.968Z" style="fill:#3d91d7;"/><path d="M423.435,894.007c-42.432,342.54 118.281,684.502 118.281,684.502c0,0 126.619,-315.892 96.784,-698.179" style="fill:none;stroke:#000;stroke-width:6.25px;"/></g><path d="M247.084,1346.306l0,302.624" style="fill:none;stroke:#000;stroke-width:4.17px;stroke-linecap:butt;"/></g><g id="顔"><g id="顔と髪の塗り"><path d="M626.237,370.876l2.485,8.886c5.116,43.011 34.561,51.134 34.561,51.134c36.505,2.381 76.304,117.542 71.887,167.55c40.546,-1.578 41.688,119.296 -5.989,119.296c-0,108.206 -147.371,153.527 -207.914,153.527c-32.992,0 -91.083,-16.207 -108.104,-45.366c-23.789,-47.32 -27.839,-108.161 -47.237,-108.161c0,0 -32.761,-0.655 -32.761,-59.648c-0,-62.415 34.96,-59.648 34.96,-59.648c-23.233,-50.16 24.241,-102.371 41.644,-113.433c14.917,-14.917 42.193,-23.616 52.12,-60.887c35.517,-19.023 89.912,-53.596 164.348,-53.25Z" style="fill:#fff;"/><path d="M655.56,323.672c50.748,0.877 76.46,54.599 84.086,83.866c10.771,41.336 15.546,105.699 -3.61,190.631l-1.757,-0.185c5.987,-82.943 -49.058,-165.999 -70.19,-167.472c-13.181,-1.764 -35.867,-26.827 -35.367,-47.984c-0.226,-8.02 -5.85,-11.651 -5.85,-11.651c-51.713,0.176 -89.08,13.135 -164.804,53.25c0.83,27.468 -28.749,44.281 -47.913,61.378c-22.643,17.417 -49.366,47.862 -48.688,89.107c-9.839,-58.137 -2.709,-110.351 16.962,-126.27c-13.327,-19.792 -8.799,-40.802 -8.799,-40.802c31.491,-74.209 106.376,-111.558 159.614,-115.275c49.296,-3.442 84.299,17.503 96.804,31.409c7.525,-1.021 29.509,0 29.509,0Z" style="fill:#848484;"/></g><g id="顔と髪の輪郭"><path d="M318.148,430.071c121.405,52.749 169.156,-59.196 304.725,-59.196" style="fill:none;stroke:#000;stroke-width:6.25px;"/><path d="M628.723,382.527c0,25.48 26.887,47.878 34.903,47.878c23.966,0 79.565,100.949 70.57,168.041" style="fill:none;stroke:#000;stroke-width:6.25px;"/><path d="M369.632,407.538c44.771,-105.091 185.191,-151.756 256.418,-83.866" style="fill:none;stroke:#000;stroke-width:6.25px;"/><path d="M655.56,323.672c65.221,0 119.966,94.616 80.399,274.298" style="fill:none;stroke:#000;stroke-width:6.25px;"/><path d="M458.063,424.125c0.91,51.019 -96.594,62.518 -96.594,150.802" style="fill:none;stroke:#000;stroke-width:6.25px;"/><path d="M378.431,448.34c-39.068,37.988 -12.573,150.386 -12.573,150.386" style="fill:none;stroke:#000;stroke-width:6.25px;"/><path d="M368.23,598.726c-14.605,-2.921 -34.601,17.448 -34.63,39.805c0,0 -4.993,60.181 18.88,73.634c0,0 10.089,5.168 20.243,5.577" style="fill:none;stroke:#000;stroke-width:6.25px;"/><path d="M734.23,598.445c14.605,-2.921 30.276,17.729 30.305,40.085c0,0 4.993,60.181 -18.88,73.634c0,0 -10.089,5.168 -20.243,5.577" style="fill:none;stroke:#000;stroke-width:6.25px;"/><path d="M372.722,717.741l37.046,103.466" style="fill:none;stroke:#000;stroke-width:6.25px;"/><path d="M413.163,827.755c112.624,109.134 312.249,-12.426 312.249,-87.455" style="fill:none;stroke:#000;stroke-width:6.25px;"/><path d="M725.413,717.741l0,22.559" style="fill:none;stroke:#000;stroke-width:6.25px;"/></g><g id="顔パーツ"><g id="眉"><path d="M427.564,583.916c19.945,2.312 27.195,-15.85 45.381,-16.003" style="fill:none;stroke:#000;stroke-width:8.33px;"/><path d="M579.989,564.493c5.244,11.472 37.877,15.715 37.877,15.715" style="fill:none;stroke:#000;stroke-width:8.33px;"/></g><g id="目"><path d="M456.373,630.521l0,8.648" style="fill:none;stroke:#000;stroke-width:16.67px;"/><path d="M592.175,630.521l0,8.648" style="fill:none;stroke:#000;stroke-width:16.67px;"/></g><path id="鼻" d="M523.623,613.948c0,0 -48.595,78.306 -28.905,101.413c9.373,10.999 43.354,-0.1 43.354,-0.1" style="fill:none;stroke:#000;stroke-width:5px;"/><path id="唇" d="M482.93,780.623c19.658,-20.892 81.095,-7.865 81.095,-7.865" style="fill:none;stroke:#000;stroke-width:5px;"/></g></g><g id="右腕"><path d="M410.177,1108.862c0,0 6.703,-40.051 5.105,-75.984c0,-186.905 -38.37,-194.721 -16.307,-204.862c33.431,-1.067 60.624,60.461 92.093,60.461c70.583,0 170.261,-64.141 191.455,-42.947c13.072,13.072 -96.093,62.678 -96.093,62.678c0,0 40.026,-15.845 49.857,-6.014c7.665,7.665 -27.843,36.852 -27.843,36.852c0,0 28.516,-15.396 34.608,-7.406c6.093,7.99 -15.96,36.424 -15.96,36.424c0,0 18.124,-13.392 23.268,-8.248c5.144,5.144 0.06,47.049 -120.792,110.285c-28.361,4.637 -35.011,65.475 -35.011,65.475l-84.379,-26.713Z" style="fill:#fff;stroke:#000;stroke-width:4.17px;stroke-linecap:butt;"/><path d="M383.925,1140.721l16.986,-35.934l106.779,34.151l-6.025,39.047" style="fill:#fff;stroke:#000;stroke-width:4.17px;stroke-linecap:butt;"/><g><path d="M517.21,1183.507l-43.041,461.766l-279.342,2.619l174.257,-512.317l148.127,47.932Z" style="fill:#dadada;"/><path d="M194.826,1646.624l172.99,-512.637l149.394,48.427l-43.041,462.859" style="fill:none;stroke:#000;stroke-width:4.17px;stroke-linecap:butt;"/></g></g></g><path d="M256.162,563.566c-42.802,-3.259 -73.122,-24.795 -78.691,-76.802c-2.254,-21.056 32.246,-35.414 41.637,-38.034c54.679,-15.255 56.114,27.883 34.679,35.755c-19.218,7.058 -45.513,20.063 -76.315,2.279c-30.802,-17.784 -43.475,-89.222 50.968,-118.753c50.298,-15.727 60.231,43.119 5.504,55.353c-32.321,7.225 -86.423,-19.99 -86.465,-20.014c-36.992,-21.149 -87.388,-93.03 -0.846,-125.839c100.498,-38.1 133.459,40.998 33.936,74.154c-27.625,9.203 -48.632,10.997 -74.093,0c-33.486,-14.462 -56.227,-50.701 -48.081,-94.174c7.76,-41.409 80.963,-108.295 181.917,-65.591" style="fill:none;stroke:#000;stroke-width:8.33px;stroke-linecap:butt;"/></g></svg>