<?xml version="1.0" encoding="UTF-8" standalone="no"?><!DOCTYPE svg PUBLIC "-//W3C//DTD SVG 1.1//EN" "http://www.w3.org/Graphics/SVG/1.1/DTD/svg11.dtd"><svg width="100%" height="100%" viewBox="0 0 1016 1367" version="1.1" xmlns="http://www.w3.org/2000/svg" xmlns:xlink="http://www.w3.org/1999/xlink" xml:space="preserve" xmlns:serif="http://www.serif.com/" style="fill-rule:evenodd;clip-rule:evenodd;stroke-linecap:round;stroke-linejoin:round;stroke-miterlimit:1.5;"><g><g><g><path d="M380.48,521.11c10.698,16.493 -23.428,32.9 -28.784,56.286c-15.898,69.419 -16.66,80.447 -64.672,90.54c-46.012,9.672 -38.925,71.366 -38.925,71.366l-72.152,-14.535c0,0 14.296,-59.573 23.198,-112.724c26.023,-155.387 106.454,-256.177 106.454,-256.177c17.502,-39.516 55.236,-35.978 46.098,-14.29c-2.147,5.095 -25.235,27.711 -31.943,40.934c-14.032,27.659 -17.34,55.111 -17.593,67.603c-0.312,15.426 23.348,-20.298 37.064,-6.581c11.1,11.1 -12.231,40.257 -9.725,43.602c2.573,3.434 21.257,-20.437 33.551,-7.702c13.661,14.152 -18.369,33.57 -15.753,37.377c2.874,4.183 23.883,-10.038 33.182,4.298Z" style="fill:#fdf8ef;stroke:#000;stroke-width:6.25px;"/><path d="M766.634,745.992c-3.234,222.67 -125.975,462.835 -125.975,462.835c0,0 -111.453,-215.197 -134.687,-462.835l260.662,0Z" style="fill:#fff;"/><path d="M310.779,750.59l-27.425,612.723l-280.228,0l132.167,-646.653l175.487,33.931Z" style="fill:#b8b8b8;"/><path d="M498.617,667.999l33.505,0l-26.149,23.512c-8.124,233.094 135.411,517.316 135.411,517.316c0,0 138.468,-267.401 125.251,-526.951l-40.902,-13.877l74.543,-0c0,0 119.875,0.46 164.469,64.758c40.968,38.703 30.528,207.147 47.842,624.281l-729.233,6.274l27.425,-611.536l28.053,-5.785l159.785,-77.993Z" style="fill:#b8b8b8;"/></g><g><g><path d="M564.78,56.029c28.842,-21.414 85.963,-2.82 116.65,30.681c30.962,33.801 84.882,141.031 104.694,260.803c-3.754,87.459 -26.807,133.899 -33.803,174.399c-6.731,51.427 37.743,57.096 37.743,57.096l-306.793,1.784c1.311,-18.877 -6.252,-60.798 -36.262,-79.123c-31.157,-19.024 -61.803,-62.666 -67.444,-89.414c-8.239,-39.065 -48.446,-176.191 -15.279,-252.362c38.739,-75.866 104.415,-137.896 169.668,-107.451l30.828,3.587Z" style="fill:#ffe7b0;"/><path d="M528.268,540.356c0,0 2.953,30.206 -26.099,37.04" style="fill:none;stroke:#000;stroke-width:6.25px;"/><path d="M695.702,533.431c-5.984,20.99 17.658,34.574 33.615,39.493" style="fill:none;stroke:#000;stroke-width:6.25px;"/><path d="M564.78,53.157c34.853,-23.357 110.156,19.438 128.86,47.629c51.802,78.075 88.896,218.637 91.074,232.353c5.389,33.94 -9.534,103.297 -30.984,178.559c-7.74,27.159 -3.559,59.564 32.394,65.699" style="fill:none;stroke:#000;stroke-width:8.33px;"/><path d="M533.952,50.091c-63.526,-31.853 -152.235,48.953 -175.231,123.189c-23.95,77.314 21.02,232.133 21.02,232.133c6.304,49.452 62.442,92.326 62.442,92.326c0,0 47.599,35.137 41.329,79.658" style="fill:none;stroke:#000;stroke-width:8.33px;"/></g><g><path d="M667.286,219.352c22.694,11.066 46.166,80.529 46.166,80.529c0,0 43.284,-12.446 53.182,24.332c9.269,34.44 -21.09,55.105 -21.09,55.105c-4.875,80.268 -39.623,102.574 -69.875,151.599c-11.997,54.166 10.782,137.239 89.526,150.959l1.439,67.874l-257.609,1.288l-3.053,-59.176c47.001,-28.312 79.433,-137.538 41.948,-168.875c-57.225,-13.328 -104.972,-74.411 -121.408,-123.039c-34.442,11.188 -68.331,-105.839 2.016,-89.773c-3.975,-16.984 3.832,-53.466 16.753,-85.056c29.586,-17.381 58.951,-37.349 59.009,-55.516l51.415,24.814c21.729,-9.619 40.378,-81.396 40.378,-81.396c1.852,10.612 13.915,78.415 71.203,106.331Z" style="fill:#fdf8ef;"/><g><path d="M511.143,131.948c-0.361,67.394 -41.803,71.475 -63.102,92.314c-16.558,16.2 -19.447,84.662 -19.447,84.662" style="fill:none;stroke:#000;stroke-width:8.33px;"/><path d="M555.705,193.718c11.723,-10.782 30.142,-33.265 40.209,-86.182c8.357,53.344 28.301,85.985 58.608,104.219c25.569,15.383 33.263,23.782 58.93,88.127" style="fill:none;stroke:#000;stroke-width:8.33px;"/><path d="M713.452,299.882c20.8,-3.571 35.034,-2.76 44.156,8.203c0,0 35.593,40.833 -13.54,71.102" style="fill:none;stroke:#000;stroke-width:8.33px;"/><path d="M428.529,309.276c-47.307,-6.378 -44.251,34.296 -39.069,52.46c0,0 10.526,44.703 37.054,37.407" style="fill:none;stroke:#000;stroke-width:8.33px;"/><path d="M426.513,399.143c18.84,65.262 75.771,111.669 118.275,123.844" style="fill:none;stroke:#000;stroke-width:8.33px;"/><path d="M744.774,379.318c4.428,35.598 -9.326,71.699 -65.365,146.742" style="fill:none;stroke:#000;stroke-width:8.33px;"/><path d="M494.602,232.994c-4.528,6.94 -6.92,8.327 -15.158,11.635" style="fill:none;stroke:#000;stroke-width:6.25px;"/><path d="M597.794,202.206c8.036,7.937 16.058,11.306 29.378,11.08" style="fill:none;stroke:#000;stroke-width:6.25px;"/><path d="M497.653,285.388l0.964,5.376" style="fill:none;stroke:#000;stroke-width:12.5px;"/><path d="M616.558,257.892l1.717,4.978" style="fill:none;stroke:#000;stroke-width:12.5px;"/><path d="M565.705,292.451c21.833,23.223 34.623,26.046 34.623,26.046c0,0 2.861,14.623 -11.888,27.283" style="fill:none;stroke:#000;stroke-width:6.25px;"/><path d="M563.698,412.825c4.692,-21.022 31.881,-29.579 52.955,-16.782" style="fill:none;stroke:#000;stroke-width:6.25px;"/><path d="M544.788,522.988c41.361,17.106 11,139.151 -35.763,168.152" style="fill:none;stroke:#000;stroke-width:8.33px;"/><path d="M679.41,526.06c-26.566,41.731 13.939,146.672 82.359,155.816" style="fill:none;stroke:#000;stroke-width:8.33px;"/></g></g></g><path d="M506.002,690.071c-2.319,250.803 135.071,518.756 135.071,518.756c0,0 142.09,-277.445 123.964,-531.187" style="fill:none;stroke:#000;stroke-width:6.25px;"/></g><g><g><path d="M800.275,667.999c0,0 161.491,-3.38 185.536,109.445c13.187,61.876 26.775,579.594 26.775,579.594" style="fill:none;stroke:#000;stroke-width:6.25px;"/><path d="M496.528,667.999l-157.697,77.993" style="fill:none;stroke:#000;stroke-width:6.25px;"/><path d="M310.779,751.777l-27.425,607.43" style="fill:none;stroke:#000;stroke-width:6.25px;"/><path d="M282.021,745.967l-147.242,-29.307l-131.653,646.653" style="fill:none;stroke:#000;stroke-width:6.25px;"/></g><path d="M522.842,749.75l223.262,0" style="fill:none;stroke:#000;stroke-width:6.25px;"/></g><g><path d="M817.116,124.802c0,0 -10.116,-82.302 46.217,-112.103c55.957,-31.08 85.713,21.888 54.569,40.134c-9.535,5.586 -34.269,11.796 -51.606,21.909c-19,11.083 -49.18,50.06 -49.18,50.06Z" style="fill:none;stroke:#000;stroke-width:6.25px;"/><path d="M843.667,162.074c0,0 25.313,-50.631 68.604,-46.317c43.56,3.445 40.49,44.804 15.889,43.426c-7.532,-0.422 -23.945,-6.226 -37.623,-7.018c-14.991,-0.868 -46.87,9.909 -46.87,9.909Z" style="fill:none;stroke:#000;stroke-width:6.25px;"/></g></g></svg>