<?xml version="1.0" encoding="UTF-8" standalone="no"?><!DOCTYPE svg PUBLIC "-//W3C//DTD SVG 1.1//EN" "http://www.w3.org/Graphics/SVG/1.1/DTD/svg11.dtd"><svg width="100%" height="100%" viewBox="0 0 1080 1921" version="1.1" xmlns="http://www.w3.org/2000/svg" xmlns:xlink="http://www.w3.org/1999/xlink" xml:space="preserve" xmlns:serif="http://www.serif.com/" style="fill-rule:evenodd;clip-rule:evenodd;stroke-linecap:round;stroke-linejoin:round;stroke-miterlimit:1.5;"><g><g><g><path d="M677.381,762.408c0,0 186.544,80.989 236.179,139.269c19.743,23.182 140.077,492.415 140.077,492.415l-285.996,18.369c-1.325,-48.107 20.004,-231.135 7.731,-250.745c0,0 -6.935,-16.757 -17.818,-16.757l-116.916,0l-58.566,-137.017c0,0 1.749,-40.865 7.317,-60.367c51.074,-39.141 63.943,-110.346 60.353,-176.651l27.638,-8.517Zm-355.647,294.112l10.003,-22.321l78.056,-141.361c0,0 25.62,32.497 48.192,48.887c19.63,12.489 44.481,26.336 69.59,26.044l52.039,40.355l-5.351,136.835l-280.207,0l-10.498,33.308l0,60.197l-24.072,61.135l-46.65,111.464l-186.946,-23.827c30.023,-84.873 152.728,-316.602 192.543,-368.567c0,0 13.372,-7.785 19.561,-5.129c20.083,8.618 47.428,19.528 83.74,42.98Z" style="fill:#fff;"/><g><path d="M588.278,951.549l-9.505,53.923l61.866,139.487l-67.845,-0l5.979,-139.487l-45.492,-33.86l54.997,-20.063Z" style="fill:#67a5ff;"/><path id="ネクタイ" d="M527.575,967.768l52.608,39.282l9.592,-59.475c0,0 -13.625,9.414 -29.189,14.729c-22.551,7.7 -33.01,5.465 -33.01,5.465Zm53.144,39.282l-7.446,117.661l7.446,-117.661Zm59.921,137.908l-59.921,-137.908" style="fill:none;stroke:#000;stroke-width:6.25px;"/></g></g><g id="顔"><path d="M638.368,674.109c20.001,14.001 17.486,47.098 9.458,72.307c8.187,46.975 4.14,199.09 -96.541,218.85c-89.774,17.619 -148.666,-82.723 -148.666,-82.723c0,0 -43.406,-56.884 -56.639,-81.426c-11.581,-21.479 13.667,-71.787 13.667,-71.787l34.182,16.146l19.152,-65.962l40.666,51.222c-0.518,-30.488 19.788,-69.319 27.866,-83.856c5.188,-9.337 12.291,-7.455 20.437,-4.36c14.431,5.483 37.484,14.471 67.036,37.115l51.589,28.644l-1.398,-14.062c0.358,-12.258 13.096,-22.972 19.191,-20.106Z" style="fill:#fffcf1;"/><g id="髪パーツ"><path id="髪の毛" d="M512.624,550.463c17.433,-5.376 62.413,20.188 79.513,45.296c15.27,22.421 25.634,77.295 28.269,96.754c0.471,3.475 0.198,16.5 0.198,16.5l-51.103,-28.151c-22.956,-20.157 -55.54,-31.687 -69.557,-37.94c-4.917,-2.193 -13.61,-2.915 -16.071,1.838c-14.717,15.859 -31.268,60.195 -30.212,87.534c-14.382,-21.164 -22.599,-31.999 -40.862,-53.107l-18.979,66.389c0,0 -13.171,-5.066 -30.745,-13.273l-5.415,88.801c-18.479,-10.082 -57.998,-160.666 -54.124,-168.91c-7.876,-30.743 22.074,-64.714 39.401,-69.061l-14.883,-44.972c0,0 26.432,23.124 69.237,31.173c11.567,2.175 16.683,-21.112 12.972,-50.596c30.434,15.889 37.071,26.33 51.573,44.949c5.728,2.305 1.545,-31.086 1.545,-31.086c16.393,40.263 25.061,37.851 49.244,17.863Z" style="fill:#b3b3b3;"/><path d="M303.536,652.194c-7.997,-46.882 40.638,-69.816 40.638,-69.816l-19.291,-49.677c39.223,44.691 72.269,35.804 72.269,35.804m-32.759,-60.493c67.232,3.014 97.443,55.675 97.443,55.675m-5.874,-40.041l20.775,32.852c13.941,20.699 22.266,-3.642 39.066,-6.39c20.783,-3.399 66.944,27.514 76.963,45.548c17.482,31.081 25.35,88.744 26.393,96.894m-117.044,-49.042c0,0 46.554,18.05 65.336,35.631m-85.049,-32.407c-30.046,44.598 -28.702,83.993 -28.702,83.993l-40.63,-52.45l-12.43,47.224" style="fill:none;stroke:#000;stroke-width:8.33px;"/></g><g id="顔パーツ"><g id="眉"><path d="M440.52,765.706c0.248,24.946 -18.953,38.408 -18.953,38.408" style="fill:none;stroke:#000;stroke-width:6.25px;"/><path d="M519.012,734.821c15.531,9.274 49.661,5.903 49.661,5.903" style="fill:none;stroke:#000;stroke-width:6.25px;"/></g><g id="目"><path d="M451.308,813.851l-4.492,6.21" style="fill:none;stroke:#000;stroke-width:12.5px;"/><path d="M550.214,776l7.694,0.52" style="fill:none;stroke:#000;stroke-width:12.5px;"/></g><path id="鼻" d="M508.445,788.631c0,0 -15.353,61.471 -2.06,76.94l31.728,-16.144" style="fill:none;stroke:#000;stroke-width:5px;"/><path id="唇" d="M533.034,904.696c0,0 6.804,-22.191 14.447,-25.779c10.992,-5.16 32.1,5.756 32.1,5.756" style="fill:none;stroke:#000;stroke-width:6.25px;"/><path id="耳" d="M619.409,692.51c0.563,-3.619 3.357,-15.849 15.578,-17.847c8.816,-1.442 14.925,9.396 17.984,27.748c4.851,29.106 -4.892,42.754 -4.892,42.754" style="fill:none;stroke:#000;stroke-width:8.33px;"/><path id="顎と頬" d="M402.619,882.543c0,0 69.529,107.357 152.925,81.085c109.338,-34.444 93.386,-190.163 93.386,-190.163" style="fill:none;stroke:#000;stroke-width:8.33px;"/></g></g><g id="PC"><path d="M758.034,1144.958c7.634,-0.002 21.005,10.164 21.005,39.44l-10.047,228.063l-485.433,-1.399c0,0 -2,-190.095 0,-234.445c0.868,-19.262 2.618,-31.658 12.018,-31.658l462.457,0Z" style="fill:#b3b3b3;"/><path d="M779.038,1187.073l-11.233,223.989m-484.247,-231.063l0,231.063m12.825,-266.103l460.86,0c10.579,0.366 17.679,16.544 17.679,16.544" style="fill:none;stroke:#000;stroke-width:6.25px;"/></g><g id="右腕"><g><path d="M378.129,907.848c0,0 11.813,22.299 3.031,38.559c-20.487,37.936 -53.277,92.82 -59.385,112.661c-22.726,-18.778 -69.971,-39.386 -69.971,-39.386l29.621,-80.45l-54.492,-139.314c-2.782,-8.782 4.373,-19.728 4.373,-19.728l65.895,-95.123c0,0 11.985,-11.156 20.261,-7.973l25.477,23.852l9.815,28.343l15.904,24.53l-7.698,12.695l7.882,8.745c-10.048,-4.063 -28.149,18.978 -28.149,18.978c-4.985,5.157 -21.547,30.386 -12.543,41.323l49.977,72.289Z" style="fill:#fffcf1;"/><path d="M252.017,1017.363l28.092,-75.189c1.724,-6.597 -4.276,-17.87 -8.079,-27.465l-43.187,-108.781c-2.912,-7.465 -2.582,-17.117 1.614,-23.956l65.328,-93.179c0,0 9.67,-14.302 23.063,-11.28m28.629,23.041c-33.237,-0.838 -45.236,19.322 -45.236,19.322l-33.239,51.765m89.519,-44.614c-30.455,-8.22 -41.71,10.863 -41.71,10.863l-33.149,47.682m87.079,-31.253c-20.78,-10.739 -34.543,1.82 -34.543,1.82l-37.569,42.923m69.184,-23.939c-7.166,-1.342 -13.465,4.653 -13.465,4.653l-13.652,14.461c-5.676,6.179 -18.571,28.089 -15.625,34.926l53.059,78.686c5.573,11.65 9.794,26.89 3.031,38.559l-48.742,89.007" style="fill:none;stroke:#000;stroke-width:6.25px;"/></g></g><path id="カッターシャツ" d="M471.069,967.341l27.288,54.697l35.445,-34.349m117.058,-110.673l27.971,90.326l-77.748,-0m77.748,-204.934c0,0 214.848,98.735 239.097,144.543c23.675,44.725 135.709,487.923 135.709,487.923m-814.36,-380.929c50.672,18.664 99.368,55.059 99.368,55.059m-120.653,-49.002c-86.987,120.26 -192.102,367.602 -192.102,367.602m233.281,-87.884l-45.232,109.484m564.339,0l132.788,-60.195" style="fill:none;stroke:#000;stroke-width:6.25px;"/></g><g><path d="M692.331,537.224l0,129.699" style="fill:none;stroke:#000;stroke-width:8.33px;"/><path d="M761.465,537.224l0,168.383" style="fill:none;stroke:#000;stroke-width:8.33px;"/><path d="M830.599,537.224l0,209.88" style="fill:none;stroke:#000;stroke-width:8.33px;"/></g></g></svg>