<?xml version="1.0" encoding="UTF-8" standalone="no"?><!DOCTYPE svg PUBLIC "-//W3C//DTD SVG 1.1//EN" "http://www.w3.org/Graphics/SVG/1.1/DTD/svg11.dtd"><svg width="100%" height="100%" viewBox="0 0 1728 166" version="1.1" xmlns="http://www.w3.org/2000/svg" xmlns:xlink="http://www.w3.org/1999/xlink" xml:space="preserve" xmlns:serif="http://www.serif.com/" style="fill-rule:evenodd;clip-rule:evenodd;stroke-linejoin:round;stroke-miterlimit:2;"><g><path d="M0,43.084l18.677,0l30.518,122.803l-18.677,0l-30.518,-122.803Zm64.941,88.745c0,-7.894 3.418,-15.381 10.254,-22.461l18.311,8.423c-3.011,2.767 -5.046,4.964 -6.104,6.592c-1.058,1.628 -1.587,3.337 -1.587,5.127c0,7.812 10.661,11.719 31.982,11.719c10.986,0 24.618,-1.546 40.894,-4.639l0.488,20.63c-11.23,2.441 -24.536,3.662 -39.917,3.662c-36.214,0 -54.321,-9.684 -54.321,-29.053Zm6.714,-53.955l0,-18.921c14.811,0.895 28.158,1.343 40.039,1.343c11.882,0 26.245,-0.285 43.091,-0.854l0,16.968c-11.23,4.232 -23.722,10.905 -37.476,20.02l-18.311,-8.789c5.452,-3.988 9.562,-6.673 12.329,-8.057l-2.075,0.122c-13.102,0 -25.635,-0.61 -37.598,-1.831Zm109.619,76.782l39.185,-101.44l19.653,6.836l-16.357,38.94c3.011,-1.628 6.327,-2.441 9.949,-2.441c3.621,0 6.836,1.2 9.644,3.601c2.808,2.401 4.862,5.758 6.165,10.071c0.651,2.197 1.689,6.795 3.113,13.794c1.424,6.999 2.38,11.312 2.869,12.939c0.814,2.686 2.319,4.028 4.517,4.028c4.15,0 7.772,-3.866 10.864,-11.597c3.092,-7.731 4.842,-17.415 5.249,-29.053l19.043,8.667c-1.302,16.846 -5.086,29.867 -11.353,39.062c-6.266,9.196 -14.486,13.794 -24.658,13.794c-4.883,0 -9.115,-0.977 -12.695,-2.93c-3.581,-1.953 -6.144,-4.761 -7.69,-8.423c-1.058,-2.441 -2.299,-7.345 -3.723,-14.709c-1.424,-7.365 -2.34,-11.739 -2.747,-13.123c-0.895,-3.581 -2.441,-5.371 -4.639,-5.371c-4.883,0 -10.824,7.039 -17.822,21.118l-8.545,24.292l-20.02,-8.057Zm124.023,-15.747c10.742,-17.334 18.27,-34.831 22.583,-52.49l-18.311,0.366l0,-18.433l21.851,-0.488c0.651,-4.639 1.18,-10.01 1.587,-16.113l19.653,0.244c-0.407,5.452 -0.895,10.62 -1.465,15.503l16.602,-0.366l0,18.433l-19.653,0.366c-4.395,20.589 -12.166,40.934 -23.315,61.035l-19.531,-8.057Zm40.833,18.799c-5.33,-4.395 -7.996,-10.193 -7.996,-17.395c0,-7.202 2.828,-13.021 8.484,-17.456c5.656,-4.435 13.163,-6.653 22.522,-6.653c2.279,0 4.72,0.203 7.324,0.61l-1.099,-48.34l43.213,0l0,18.066l-23.682,0c0.081,3.337 0.224,9.399 0.427,18.188l0.427,18.433c6.592,3.499 15.015,9.806 25.269,18.921l-11.108,16.479c-5.127,-4.801 -10.376,-9.196 -15.747,-13.184c-3.581,12.614 -12.573,18.921 -26.978,18.921c-8.708,0 -15.727,-2.197 -21.057,-6.592Zm10.681,-17.212c0,3.906 3.174,5.859 9.521,5.859c3.499,0 6.002,-0.793 7.507,-2.38c1.506,-1.587 2.421,-4.537 2.747,-8.85c-3.337,-1.302 -6.49,-1.953 -9.46,-1.953c-2.97,0 -5.432,0.692 -7.385,2.075c-1.953,1.383 -2.93,3.133 -2.93,5.249Zm458.862,12.329c-4.232,-4.639 -6.348,-11.149 -6.348,-19.531c0,-8.382 2.726,-16.215 8.179,-23.499c5.452,-7.284 12.858,-12.96 22.217,-17.029c0,-2.279 0.081,-6.104 0.244,-11.475l-26.245,0l0,-18.188l27.344,0c0.407,-6.022 0.692,-10.01 0.854,-11.963l19.409,0c-0.488,5.778 -0.814,9.766 -0.977,11.963l49.805,-0.122l0,18.311l-50.903,0c-0.163,2.767 -0.244,4.801 -0.244,6.104c3.743,-0.488 7.731,-0.732 11.963,-0.732c14.567,0 26.062,3.459 34.485,10.376c8.423,6.917 12.634,16.012 12.634,27.283c0,11.271 -3.621,20.365 -10.864,27.283c-7.243,6.917 -17.782,11.597 -31.616,14.038l-12.207,-17.7c11.8,-0.895 20.63,-3.377 26.489,-7.446c5.859,-4.069 8.789,-9.277 8.789,-15.625c0,-4.883 -1.75,-9.074 -5.249,-12.573c-8.219,13.916 -17.944,25.309 -29.175,34.18c-11.23,8.87 -21.729,13.306 -31.494,13.306c-7.161,0 -12.858,-2.319 -17.09,-6.958Zm43.335,-47.852c0.244,7.731 0.692,13.875 1.343,18.433c5.29,-5.534 10.173,-11.882 14.648,-19.043c-1.872,-0.244 -4.13,-0.366 -6.775,-0.366c-2.645,0 -5.717,0.326 -9.216,0.977Zm-30.884,28.076c0,4.801 1.912,7.202 5.737,7.202c2.604,0 5.656,-0.936 9.155,-2.808c-1.465,-7.894 -2.441,-16.073 -2.93,-24.536c-7.975,5.697 -11.963,12.41 -11.963,20.142Zm118.896,-8.545c-0.163,-6.022 -0.244,-11.251 -0.244,-15.686c0,-4.435 0.122,-9.766 0.366,-15.991c0.244,-6.226 0.631,-13.753 1.16,-22.583c0.529,-8.83 0.834,-14.343 0.916,-16.541l20.63,0c-0.244,1.953 -0.977,9.521 -2.197,22.705c3.825,-6.673 8.606,-11.841 14.343,-15.503c5.737,-3.662 11.82,-5.493 18.25,-5.493c10.173,0 18.311,4.415 24.414,13.245c6.104,8.83 9.155,20.61 9.155,35.339c0,19.287 -5.92,33.813 -17.761,43.579c-11.841,9.766 -29.765,14.933 -53.772,15.503l-5.737,-20.386l5.371,0.122c17.822,0 30.965,-3.052 39.429,-9.155c8.464,-6.104 12.695,-16.073 12.695,-29.907c0,-8.789 -1.424,-15.767 -4.272,-20.935c-2.848,-5.168 -6.673,-7.751 -11.475,-7.751c-5.778,0 -11.78,3.703 -18.005,11.108c-6.226,7.406 -10.6,16.113 -13.123,26.123c-0.488,1.709 -0.732,4.476 -0.732,8.301l0,3.54l-19.409,0.366Zm116.577,-44.556l0,-18.677c12.939,0.895 27.222,1.424 42.847,1.587l0,-10.986l19.653,0l-0.122,10.864c13.428,-0.244 25.716,-0.854 36.865,-1.831l0,18.921c-11.068,0.814 -23.356,1.261 -36.865,1.343l-0.122,8.911c12.858,-0.163 24.089,-0.529 33.691,-1.099l0,18.555c-8.382,0.57 -19.613,0.977 -33.691,1.221l-0.122,12.939c9.928,3.906 22.176,11.434 36.743,22.583l-12.207,16.602c-8.87,-8.138 -17.334,-14.567 -25.391,-19.287c-1.628,6.429 -5.33,11.617 -11.108,15.564c-5.778,3.947 -12.797,5.92 -21.057,5.92c-8.26,0 -14.994,-2.157 -20.203,-6.47c-5.208,-4.313 -7.812,-10.111 -7.812,-17.395c0,-7.284 2.848,-12.96 8.545,-17.029c5.697,-4.069 13.713,-6.104 24.048,-6.104c3.499,0 6.551,0.163 9.155,0.488l0,-7.69c-14.811,-0.163 -27.913,-0.488 -39.307,-0.977l0,-18.799c16.52,0.57 29.622,0.895 39.307,0.977l0,-8.911c-11.312,-0.081 -25.594,-0.488 -42.847,-1.221Zm32.227,52.612c-7.975,0 -11.963,2.075 -11.963,6.226c0,4.15 3.418,6.226 10.254,6.226c3.825,0 6.694,-0.854 8.606,-2.563c1.912,-1.709 3.072,-4.557 3.479,-8.545c-3.743,-0.895 -7.202,-1.343 -10.376,-1.343Zm86.548,-35.156l0,-18.799l20.996,-0.488l0,-20.996l19.531,0l0,20.508l32.104,-0.732l0,-22.827l18.677,0l0,22.461l20.752,-0.488l0,18.921l-20.752,0.366l0,3.174c0,11.8 -1.587,19.999 -4.761,24.597c-3.174,4.598 -8.83,6.897 -16.968,6.897l-13.794,-0.977l-4.639,-20.02c6.999,1.139 11.82,1.709 14.465,1.709c2.645,0 4.476,-0.977 5.493,-2.93c1.017,-1.953 1.526,-5.941 1.526,-11.963l-32.104,0.732l0,35.156c0,3.499 1.241,5.961 3.723,7.385c2.482,1.424 6.734,2.136 12.756,2.136c17.822,0 32.471,-0.814 43.945,-2.441l-0.977,20.63c-12.533,1.139 -24.129,1.709 -34.79,1.709c-10.661,0 -18.636,-0.529 -23.926,-1.587c-5.29,-1.058 -9.521,-3.174 -12.695,-6.348c-5.046,-4.883 -7.568,-11.393 -7.568,-19.531l0,-36.743l-20.996,0.488Zm123.901,57.251l39.185,-101.44l19.653,6.836l-16.357,38.94c3.011,-1.628 6.327,-2.441 9.949,-2.441c3.621,0 6.836,1.2 9.644,3.601c2.808,2.401 4.862,5.758 6.165,10.071c0.651,2.197 1.689,6.795 3.113,13.794c1.424,6.999 2.38,11.312 2.869,12.939c0.814,2.686 2.319,4.028 4.517,4.028c4.15,0 7.772,-3.866 10.864,-11.597c3.092,-7.731 4.842,-17.415 5.249,-29.053l19.043,8.667c-1.302,16.846 -5.086,29.867 -11.353,39.062c-6.266,9.196 -14.486,13.794 -24.658,13.794c-4.883,0 -9.115,-0.977 -12.695,-2.93c-3.581,-1.953 -6.144,-4.761 -7.69,-8.423c-1.058,-2.441 -2.299,-7.345 -3.723,-14.709c-1.424,-7.365 -2.34,-11.739 -2.747,-13.123c-0.895,-3.581 -2.441,-5.371 -4.639,-5.371c-4.883,0 -10.824,7.039 -17.822,21.118l-8.545,24.292l-20.02,-8.057Zm125.122,-1.709c11.393,-15.869 19.775,-35.238 25.146,-58.105c-7.487,0.407 -15.422,0.895 -23.804,1.465l-0.732,-19.287c12.777,-0.651 22.217,-1.058 28.32,-1.221c1.221,-7.812 2.157,-15.462 2.808,-22.949l20.508,1.709c-0.651,6.104 -1.587,12.98 -2.808,20.63l4.272,0c10.254,0 17.598,2.747 22.034,8.24c4.435,5.493 6.653,14.465 6.653,26.917c0,12.451 -1.058,23.478 -3.174,33.081c-1.465,6.104 -4.11,10.681 -7.935,13.733c-3.825,3.052 -9.603,4.578 -17.334,4.578c-4.15,0 -9.155,-0.366 -15.015,-1.099l-3.662,-21.484c6.755,1.628 11.983,2.441 15.686,2.441c3.703,0 6.185,-0.59 7.446,-1.77c1.261,-1.18 2.177,-3.072 2.747,-5.676c1.709,-6.673 2.563,-15.259 2.563,-25.757c0,-6.185 -0.834,-10.173 -2.502,-11.963c-1.668,-1.79 -5.269,-2.686 -10.803,-2.686l-4.517,0.122c-6.185,27.262 -14.893,49.967 -26.123,68.115l-19.775,-9.033Zm76.538,-79.59l17.7,-7.568c4.964,6.266 9.684,14.343 14.16,24.231c4.476,9.888 7.772,19.511 9.888,28.87l-18.677,7.812c-2.36,-10.173 -5.676,-20.162 -9.949,-29.968c-4.272,-9.806 -8.647,-17.598 -13.123,-23.376Zm63.721,22.217l0,-4.272c0,-13.346 2.421,-22.298 7.263,-26.855c4.842,-4.557 11.454,-7.487 19.836,-8.789c4.639,-0.732 9.806,-1.099 15.503,-1.099c5.697,0 10.539,0.305 14.526,0.916c3.988,0.61 7.324,1.404 10.01,2.38c2.686,0.977 5.005,2.279 6.958,3.906c1.953,1.628 3.459,3.255 4.517,4.883c1.058,1.628 1.953,3.988 2.686,7.08c0.732,3.092 1.099,7.141 1.099,12.146c0,5.005 -0.468,9.094 -1.404,12.268c-0.936,3.174 -2.34,5.717 -4.211,7.629c-1.872,1.912 -3.723,3.357 -5.554,4.333c-1.831,0.977 -4.72,2.116 -8.667,3.418c-3.947,1.302 -6.632,2.584 -8.057,3.845c-1.424,1.261 -2.136,2.95 -2.136,5.066l0,5.859l-21.362,0l0,-6.714c0,-9.115 2.563,-15.259 7.69,-18.433c2.686,-1.709 5.595,-3.031 8.728,-3.967c3.133,-0.936 4.883,-1.485 5.249,-1.648c0.366,-0.163 1.017,-0.407 1.953,-0.732c0.936,-0.326 1.587,-0.651 1.953,-0.977c0.366,-0.326 0.916,-0.753 1.648,-1.282c0.732,-0.529 1.465,-1.546 2.197,-3.052c0.732,-1.506 1.099,-3.52 1.099,-6.042c0,-4.069 -1.506,-6.836 -4.517,-8.301c-3.011,-1.465 -8.362,-2.197 -16.052,-2.197c-7.69,0 -12.817,1.139 -15.381,3.418c-2.563,2.279 -3.845,7.161 -3.845,14.648l0,2.563l-21.729,0Zm29.663,62.988l0,-22.461l23.804,0l0,22.461l-23.804,0Zm76.538,7.324l30.518,-122.803l18.677,0l-30.518,122.803l-18.677,0Z"/><path d="M627.93,88.617c-0.411,-1.958 -6.441,-27.503 -8.911,-34.912l16.968,-4.15c2.604,7.975 5.29,18.88 8.057,32.715c3.825,-9.44 7.365,-19.857 10.62,-31.25l17.7,4.639c-3.04,10.692 -12.075,35.715 -13.672,39.062l-17.334,-6.226c0.814,-1.79 1.424,-3.174 1.831,-4.15l-15.259,4.272Zm-23.56,3.662c-0.862,-3.309 -7.905,-28.254 -10.01,-34.058l16.968,-5.127c3.291,9.371 9.655,32.713 10.01,34.18l-16.968,5.005Zm-53.491,27.808c0.076,-0.726 7.031,-44.913 7.104,-45.63l10.132,1.343l0,-25.269l18.066,0l0,23.071l8.423,-2.441c2.035,6.917 4.11,15.055 6.226,24.414l10.376,0l0,7.69l7.568,-8.789c5.29,4.313 9.115,7.528 11.475,9.644c2.441,-4.395 4.598,-8.911 6.47,-13.55l14.038,7.08l0,-2.075l18.799,0l0,68.604l-19.165,0l0,-5.493l-38.696,0l0,5.493l-18.677,0l0,-60.669l-3.174,0.854c-1.302,-6.51 -2.523,-12.085 -3.662,-16.724l0,77.148l-18.066,0l0,-68.726c-1.058,9.033 -2.401,17.944 -4.028,26.733l-13.208,-2.71Zm60.327,23.461l39.551,0l0,-12.207l-8.179,9.521c-4.15,-4.801 -7.568,-8.667 -10.254,-11.597c-4.557,5.371 -9.196,9.888 -13.916,13.55l-7.202,-11.597l0,12.329Zm0,-16.602c3.337,-2.604 6.551,-5.697 9.644,-9.277c-1.872,-1.709 -5.086,-4.598 -9.644,-8.667l0,17.944Zm31.006,-11.108c3.092,3.255 5.941,6.388 8.545,9.399l0,-26.367c-2.36,5.941 -5.208,11.597 -8.545,16.968Zm-93.14,-30.64l-10.742,14.771c-9.603,-8.952 -20.386,-16.439 -32.349,-22.461l0,9.766l-23.315,0l0,10.742c4.313,-0.651 8.504,-0.977 12.573,-0.977c13.509,0 24.19,2.991 32.043,8.972c7.853,5.981 11.78,13.977 11.78,23.987c0,10.01 -3.438,17.863 -10.315,23.56c-6.877,5.697 -16.174,8.545 -27.893,8.545c-1.79,0 -4.476,-0.163 -8.057,-0.488l-5.737,-20.142c5.778,0.895 10.335,1.343 13.672,1.343c12.533,0 18.799,-4.232 18.799,-12.695c0,-4.801 -2.075,-8.504 -6.226,-11.108c-4.15,-2.604 -10.091,-3.906 -17.822,-3.906c-4.557,0 -8.83,0.407 -12.817,1.221l0,23.56c0,8.138 -1.404,14.038 -4.211,17.7c-2.808,3.662 -7.385,5.493 -13.733,5.493c-8.464,0 -15.666,-2.563 -21.606,-7.69c-5.941,-5.127 -8.911,-11.19 -8.911,-18.188c0,-6.999 2.706,-13.509 8.118,-19.531c5.412,-6.022 12.594,-10.864 21.545,-14.526l0,-15.869l-24.658,0l0,-18.799l24.78,0l0,-16.479l18.677,0l0,16.479l23.315,0l0,7.446l9.888,-14.404c9.161,5.032 18.015,11.036 26.562,18.011c2.235,1.824 4.448,3.714 6.641,5.671Zm-95.581,50.537c0,2.035 0.753,3.886 2.258,5.554c1.506,1.668 3.215,2.502 5.127,2.502c1.912,0 2.869,-1.465 2.869,-4.395l0,-16.235c-6.836,3.988 -10.254,8.179 -10.254,12.573Zm14.263,-117.971l-0,-0.049c0,-9.778 7.939,-17.717 17.717,-17.717c9.778,0 17.717,7.939 17.717,17.717l-0,0.049c-0.026,9.756 -7.955,17.668 -17.716,17.668c-9.762,0 -17.69,-7.912 -17.716,-17.668Zm132.198,0l-0,-0.049c0,-9.778 7.939,-17.717 17.717,-17.717c9.778,0 17.717,7.939 17.717,17.717l-0,0.049c-0.026,9.756 -7.955,17.668 -17.716,17.668c-9.762,0 -17.69,-7.912 -17.716,-17.668Zm132.198,-0l-0,-0.049c0,-9.778 7.939,-17.717 17.717,-17.717c9.778,0 17.717,7.939 17.717,17.717l-0,0.049c-0.026,9.756 -7.955,17.668 -17.716,17.668c-9.762,0 -17.69,-7.912 -17.716,-17.668Zm64.482,97.585l-5.005,21.118c-5.778,-3.662 -10.132,-6.348 -13.062,-8.057c-2.848,8.219 -7.039,15.076 -12.573,20.569c-5.534,5.493 -12.858,10.152 -21.973,13.977l-12.695,-17.822c8.057,-1.628 14.384,-4.435 18.982,-8.423c4.598,-3.988 7.914,-9.725 9.949,-17.212c-8.219,-3.255 -15.788,-5.33 -22.705,-6.226c-2.441,7.731 -4.598,13.916 -6.47,18.555c-3.337,8.626 -6.958,14.811 -10.864,18.555c-3.906,3.743 -8.931,5.615 -15.076,5.615c-6.144,0 -11.353,-2.421 -15.625,-7.263c-4.272,-4.842 -6.409,-11.088 -6.409,-18.738c0,-9.44 3.54,-17.293 10.62,-23.56c7.08,-6.266 16.561,-10.05 28.442,-11.353l5.615,-20.02l-32.837,0l0,-18.799l54.565,0l0,13.428c-1.465,5.859 -3.743,14.445 -6.836,25.757c6.022,0.814 12.777,2.441 20.264,4.883c0.163,-4.069 0.244,-7.751 0.244,-11.047c0,-3.296 -0.122,-7.345 -0.366,-12.146l20.264,0c0.244,4.639 0.366,9.705 0.366,15.198c0,5.493 -0.285,10.803 -0.854,15.93c2.263,1.069 12.576,6.321 14.038,7.08Zm-95.337,15.015c0,1.79 0.346,3.235 1.038,4.333c0.692,1.099 1.607,1.648 2.747,1.648c3.337,0 7.243,-7.446 11.719,-22.339c-4.964,1.221 -8.789,3.235 -11.475,6.042c-2.686,2.808 -4.028,6.246 -4.028,10.315Z" style="fill:#0082ff;"/></g></svg>