<?xml version="1.0" encoding="UTF-8" standalone="no"?><!DOCTYPE svg PUBLIC "-//W3C//DTD SVG 1.1//EN" "http://www.w3.org/Graphics/SVG/1.1/DTD/svg11.dtd"><svg width="100%" height="100%" viewBox="0 0 1734 1047" version="1.1" xmlns="http://www.w3.org/2000/svg" xmlns:xlink="http://www.w3.org/1999/xlink" xml:space="preserve" xmlns:serif="http://www.serif.com/" style="fill-rule:evenodd;clip-rule:evenodd;stroke-linecap:round;stroke-linejoin:round;stroke-miterlimit:1.5;"><g><g id="再生ウィンドウ"><rect x="4.167" y="4.167" width="1725.453" height="1038.021" style="fill:#d6f0ff;stroke:#000;stroke-width:8.33px;"/><g><rect x="80.559" y="837.444" width="1572.667" height="21.762" style="fill-opacity:0.5;"/><path d="M1321.475,859.207l-1240.916,0l0,-21.762l1240.916,0c4.036,-8.254 12.516,-13.944 22.316,-13.944c13.701,0 24.825,11.124 24.825,24.825c0,13.701 -11.124,24.825 -24.825,24.825c-9.799,0 -18.28,-5.69 -22.316,-13.944Z" style="fill:#f00;"/></g><g><g><circle cx="134.133" cy="955.557" r="53.574" style="fill-opacity:0.5;"/><path d="M157.592,955.557l-46.916,29.284l0,-58.568l46.916,29.284Z" style="fill:#fff;"/></g><g><circle cx="304.283" cy="955.557" r="53.574" style="fill-opacity:0.5;"/><path d="M325.281,981.77l-4.222,0l-0.536,-20.407l-37.239,20.407l0,-52.426l37.059,20.295l0.142,-20.295l3.746,-0l1.05,52.426Z" style="fill:#fff;"/></g><g><circle cx="474.433" cy="955.557" r="53.574" style="fill-opacity:0.5;"/><path d="M481.011,929.964l0,51.187c0,0 -26.975,-8.961 -36.024,-11.189c-10.666,-2.626 -10.557,-25.666 0,-28.95c8.908,-2.771 36.024,-11.048 36.024,-11.048Zm5.387,10.865c8.088,0.048 14.64,6.629 14.64,14.729c0,8.1 -6.552,14.681 -14.64,14.729l0,-29.458Zm0,-7.825l0,-3.04c14.055,0.083 25.439,11.519 25.439,25.594c0,14.074 -11.385,25.51 -25.439,25.594l0,-3.04c12.385,-0.073 22.418,-10.151 22.418,-22.554c0,-12.402 -10.032,-22.48 -22.418,-22.554Z" style="fill:#fff;"/></g></g><path d="M1604.122,903.116c69.414,0 69.414,107.148 0,107.148c-326.367,0 -282.322,0 -282.322,0c-71.491,0 -71.491,-107.148 0,-107.148l282.322,0Z" style="fill-opacity:0.5;"/><path d="M1327.217,977.421l-6.355,6.355l-9.959,-9.959l6.355,-6.355c-0.849,-1.559 -1.519,-3.189 -2.01,-4.862l-8.991,0l0,-14.085l8.991,-0c0.491,-1.672 1.161,-3.303 2.01,-4.862l-6.355,-6.355l9.959,-9.959l6.355,6.355c1.559,-0.849 3.189,-1.519 4.862,-2.01l0,-8.991l14.085,0l0,8.991c1.672,0.491 3.303,1.161 4.862,2.01l6.355,-6.355l9.959,9.959l-6.355,6.355c0.849,1.559 1.519,3.189 2.01,4.862l8.991,0l0,14.085l-8.991,0c-0.491,1.672 -1.161,3.303 -2.01,4.862l6.355,6.355l-9.959,9.959l-6.355,-6.355c-1.559,0.849 -3.189,1.519 -4.862,2.01l0,8.991l-14.085,0l0,-8.991c-1.672,-0.491 -3.303,-1.161 -4.862,-2.01Zm3.463,-30.305c-4.659,4.659 -4.659,12.224 0,16.882c4.659,4.659 12.224,4.659 16.882,0c4.659,-4.659 4.659,-12.224 0,-16.882c-4.659,-4.659 -12.224,-4.659 -16.882,0Z" style="fill:#fff;"/><path d="M1508.815,922.693l0,65.729l-97.08,0l0,-65.729l97.08,0Zm-5.12,4.816l-86.437,0l0,55.962l86.437,0l0,-55.962Z" style="fill:#fff;"/><path d="M1548.563,948.193l0,-25.5l24.571,0l0,12.099l-12.247,0l-0,13.401l-12.324,0Zm69.545,0l-12.324,0l-0,-13.401l-12.247,0l0,-12.099l24.571,0l0,25.5Zm-69.545,14.729l12.324,0l0,13.401l12.247,0l0,12.099l-24.571,0l-0,-25.5Zm69.545,0l-0,25.5l-24.571,0l0,-12.099l12.247,0l0,-13.401l12.324,0Z" style="fill:#fff;"/></g><g><g id="人間"><g id="右手"><path d="M1372.53,378.618l0.747,71.142l-34.913,4.801l-2.348,-20.086c-24.918,-8.121 -38.505,-25.576 -46.249,-35.664c-6.2,-9.246 -6.959,-16.98 -8.496,-24.771c-3.198,-7.797 3.109,-17.72 5.389,-19.274c3.803,-2.594 11.194,-6.66 26.467,1.202c2.131,1.299 11.144,4.608 17.81,14.005c11.015,15.531 27.004,14.518 28.03,11.223c-14.979,-17.417 -14.782,-26.637 -9.19,-28.295c2.534,-0.751 7.959,4.459 10.635,12.505c4.089,4.144 12.121,13.211 12.121,13.211Z" style="fill:#fff;"/><g><path d="M1373.277,448.155c-1.427,-22.113 1.036,-48.435 -0.88,-67.652c-0.664,-6.666 -10.215,-9.249 -13.433,-18.754c-3.169,-9.363 -12.901,-11.836 -12.477,-4.79c0.917,15.268 10.004,19.903 12.477,24.162" style="fill:none;stroke:#000;stroke-width:2.34px;"/><path d="M1358.965,381.345c0,0 -12.255,6.313 -23.98,-7.347c-28.532,-31.957 -48.897,-22.979 -53.135,-12.706c-4.618,11.331 3.971,36.119 15.702,47.81c9.836,8.758 19.872,19.003 39.156,25.892l1.63,18.689" style="fill:none;stroke:#000;stroke-width:2.34px;"/><path d="M1320.483,392.475c9.978,1.964 8.885,5.011 18.384,9.498" style="fill:none;stroke:#000;stroke-width:0.58px;"/><path d="M1293.552,352.903l20.538,21.139" style="fill:none;stroke:#000;stroke-width:1.17px;"/><path d="M1286.974,356.054l20.641,24.241" style="fill:none;stroke:#000;stroke-width:1.17px;"/><path d="M1281.91,365.48l21.917,24.991" style="fill:none;stroke:#000;stroke-width:1.17px;"/></g></g><g><g id="右腕袖"><path d="M1383.368,448.155l14.388,41.911l-63.107,18.122l-2.013,-52.568l50.732,-7.465Z" style="fill:#71a4ff;"/><path d="M1383.368,448.155l-50.732,7.465" style="fill:none;stroke:#000;stroke-width:2.34px;"/><path d="M1334.636,507.218l-2,-51.597" style="fill:none;stroke:#000;stroke-width:2.34px;"/><path d="M1397.583,489.293l-14.214,-41.138" style="fill:none;stroke:#000;stroke-width:2.34px;"/></g><g id="ズボン"><path d="M1562.766,676.394l7.345,87.496l-200.408,24.411l4.753,-68.536l188.31,-43.371Z" style="fill:#71a4ff;"/><path d="M1562.663,681.294l7.392,82.596" style="fill:none;stroke:#000;stroke-width:2.34px;"/><path d="M1372.222,747.041l-2.52,41.26" style="fill:none;stroke:#000;stroke-width:2.34px;"/></g><path d="M1499.703,585.539l-17.944,-119.39l-81.514,22.302l65.54,-84.934c0,0 56.291,-66.315 67.355,-86.725l10.601,-4.486c5.993,8.318 18.39,32.204 25.703,49.201c8.628,20.056 16.566,44.594 18.827,74.475c2.567,33.924 -2.352,64.919 -12.368,93.563l-76.198,55.992l-0.002,0.001Z" style="fill:#71a4ff;"/><path d="M1543.774,312.457c6.215,6.707 35.089,59.078 42.336,100.087c9.775,76.861 -11.129,118.297 -11.508,119.814" style="fill:none;stroke:#000;stroke-width:2.34px;"/></g><g id="タブレット"><g><path d="M1517.238,705.647l-35.481,-239.496" style="fill:none;stroke:#000;stroke-width:4.68px;"/><path d="M1517.238,705.647l-164.087,46.723" style="fill:none;stroke:#000;stroke-width:4.68px;"/><path d="M1353.152,752.025l-41.833,-232.548" style="fill:none;stroke:#000;stroke-width:4.68px;"/><path d="M1481.758,466.15l-156.647,44.604" style="fill:none;stroke:#000;stroke-width:4.68px;"/></g><path d="M1481.315,466.15l35.923,239.496l-164.087,46.379c0,0 -33.343,-194.609 -42.236,-233.718c-0.285,-1.252 1.125,-3.711 2.353,-4.087c26.899,-8.245 168.047,-48.07 168.047,-48.07l-0.001,0.001Z" style="fill:#ccc;stroke:#000;stroke-width:2.34px;"/></g><g id="左手"><path d="M1385.3,674.289l5.842,38.088l-8.961,0.901c-2.001,5.355 -37.299,15.93 -52.601,17.794c-1.099,0.134 -2.527,0.065 -3.087,-2.902c-0.291,-1.545 2.228,-6.28 1.107,-7.267c-1.541,-1.356 -5.345,-1.309 -6.112,-3.853c-0.668,-2.214 2.262,-6.712 1.818,-7.719c-0.94,-2.139 -4.185,-0.256 -4.409,-2.55c-0.545,-5.573 5.494,-9.818 6.352,-11.068c1.081,-1.576 -7.559,-0.334 -7.559,-0.334c-3.272,-3.979 -6.032,-7.875 -4.03,-9.006c5.187,-4.165 30.047,-0.302 30.918,-1.785c0.464,-1.036 -4.176,-5.124 -12.504,-4.429c-1.498,-1.03 -0.244,-11.561 -0.244,-11.561c4.517,2.254 15.013,5.56 24.371,1.96l5.538,11.951c9.887,0.911 23.562,-8.222 23.562,-8.222l-0.001,0.001Z" style="fill:#fff;"/><path d="M1385.261,674.179c-12.915,7.824 -22.234,10.659 -23.963,7.693c-0.948,-1.451 -1.254,-2.647 -5.028,-11.072c-13.77,3.893 -24.382,-2.2 -24.382,-2.2c-0.665,10.038 -1.667,11.56 1.474,11.756c7.11,0.444 10.334,3.205 10.334,3.205c5.475,3.818 -17.069,-0.633 -28.132,2.133c-3.782,0.946 -1.18,5.563 1.365,8.682c1.988,2.436 6.149,-0.787 8.537,1.202c0,0 -5.065,3.987 -6.055,7.795c-0.705,2.711 -0.529,4.19 2.077,4.789c2.687,0.619 2.494,3.921 1.007,5.591c-1.473,1.655 -0.538,5.692 1.895,5.853c2.567,0.171 4.42,2.532 3.387,4.569c-2.53,4.989 1.377,7.436 3.365,6.799c1.493,-0.478 48.036,-8.535 51.1,-17.71" style="fill:none;stroke:#000;stroke-width:2.34px;"/></g><path d="M1503.56,582.194l70.939,-54.295l10.358,143.323l-191.865,43.832l-10.033,-57.219l120.6,-75.641l0.001,0Z" style="fill:#71a4ff;"/><g id="左腕"><path d="M1566.946,435.984l17.911,235.238" style="fill:none;stroke:#000;stroke-width:2.34px;"/><path d="M1584.857,671.222l-193.231,43.832" style="fill:none;stroke:#000;stroke-width:2.34px;"/><path d="M1382.959,657.835l120.6,-75.641" style="fill:none;stroke:#000;stroke-width:2.34px;"/><path d="M1391.627,715.055l-8.667,-57.219" style="fill:none;stroke:#000;stroke-width:2.34px;"/></g><g id="顔と首"><path d="M1534.433,300.048l9.536,12.409l-10.494,4.313l-135.72,172.185l-0.174,0.339l38.28,-104.202c7.964,-20.476 27.11,-53.037 27.11,-53.037c0,0 -0.636,-35.125 -0.461,-41.275c-28.609,-4.879 -37.437,-26.206 -45.232,-45.223c-6.819,-16.637 -8.717,-64.987 -8.717,-64.987l-0.558,-6.113l16.783,-10.217l40.566,-21.629l-0.404,22.335c14.468,-0.077 22.795,-12.159 27.252,-19.409c2.778,7.409 6.638,14.52 22.637,18.343c0.262,1.292 1.753,9.246 0.684,18.144l-0.684,32.06l19.705,6.451c11.38,0.491 8.272,-5.716 11.385,-6.451c2.502,-0.591 6.094,0.171 7.325,2.39c1.673,3.018 4.486,11.175 2.713,15.719c-5.8,14.86 -12.831,25.249 -20.916,25.249l-0.617,42.605l0,0.001Z" style="fill:#fff;"/><g><path d="M1545.474,128.101c5.872,6.154 11.247,17.448 10.492,36.844c-0.677,17.375 -5.209,36.878 -10.931,50.611c0,0 -1.534,5.375 -10.706,5.334l-19.49,-6.458c-0.742,-10.04 2.432,-39.131 0.326,-49.487c-6.784,-2.369 -15.416,-7.306 -19.243,-10.556c-3.06,-2.599 -3.72,-8.947 -3.72,-8.947c0,0 -9.874,19.976 -27.463,19.504l0.393,-22.335l-39.594,21.518l-16.974,10.328c-4.67,-13.509 2.04,-32.193 6.978,-40.909c0.482,-4.947 6.745,-0.075 9.996,-3.299c3.999,-3.965 12.767,-18.188 24.142,-24.025c14.566,-7.474 31.819,-6.26 31.819,-6.26c18.135,3.803 24.383,4.909 35.871,22.82c0,0 21.607,-1.49 28.105,5.32l0,-0.001l-0.001,-0.001Z" style="fill:#ccc;"/></g><g><path d="M1408.562,180.946c0,24.807 2.36,59.803 16.974,83.052c6.298,8.936 14.539,24.026 44.908,28.611c9.068,1.369 27.809,1.579 38.393,-8.485c6.103,-5.804 8.988,-9.072 17.195,-20.629" style="fill:none;stroke:#000;stroke-width:2.34px;"/><path d="M1407.896,174.456c-2.748,-8.442 0.975,-32.864 7.643,-40.909" style="fill:none;stroke:#000;stroke-width:2.34px;"/><path d="M1534.398,256.79l0,42.995" style="fill:none;stroke:#000;stroke-width:2.34px;"/><path d="M1535.05,257.443c5.575,-0.507 9.961,-1.893 20.099,-22.168c2.849,-5.698 0.571,-17.694 -3.147,-19.548c-6.626,-3.304 -7.863,1.356 -7.824,1.292" style="fill:none;stroke:#000;stroke-width:2.34px;"/><path d="M1462.511,291.761l0.461,40.293" style="fill:none;stroke:#000;stroke-width:2.34px;"/><path d="M1467.297,332.054l62.369,-27.651" style="fill:none;stroke:#000;stroke-width:2.34px;"/></g><g><path d="M1425.537,164.071l40.037,-21.461l-0.736,22.14c0,0 14.15,3.574 27.363,-19.853" style="fill:none;stroke:#000;stroke-width:1.75px;"/><path d="M1492.202,144.898c0.53,1.59 1.715,7.599 5.919,11.206c5.498,4.717 14.791,7.675 17.044,7.776" style="fill:none;stroke:#000;stroke-width:1.75px;"/><path d="M1515.164,163.881c2.522,10.088 -0.326,10.168 -0.326,50.203" style="fill:none;stroke:#000;stroke-width:1.75px;"/></g><g><g><path d="M1408.562,127.107c0.722,-0.36 17.325,10.06 24.485,-5.196c1.498,-3.19 9.907,-12.153 15.776,-15.487c7.192,-5.018 30.387,-6.461 33.093,-6.461c19.792,0 31.301,14.517 35.452,22.82" style="fill:none;stroke:#000;stroke-width:2.34px;"/><path d="M1517.369,122.782c15.373,0.669 20.826,-0.367 28.932,6.52c21.233,20.57 1.374,79.165 -2.123,87.717c-1.471,3.596 -7.631,3.715 -9.864,3.871" style="fill:none;stroke:#000;stroke-width:2.34px;"/></g></g><path d="M1427.059,175.089c3.725,-1.861 7.03,-1.765 10.055,-0.246" style="fill:none;stroke:#000;stroke-width:1.75px;"/><path d="M1486.985,178.405c3.217,-0.912 7.579,-0.303 9.293,2.828" style="fill:none;stroke:#000;stroke-width:1.75px;"/><path d="M1435.684,190.798l0.067,2.932" style="fill:none;stroke:#000;stroke-width:4.68px;"/><path d="M1489.554,193.73l-0.22,2.987" style="fill:none;stroke:#000;stroke-width:4.68px;"/><path d="M1462.511,200.8c-7.204,12.32 -13.27,11.634 -18.959,13.398c4.961,6.657 10.183,15.464 10.183,15.464" style="fill:none;stroke:#000;stroke-width:1.75px;"/><path d="M1440.752,245.474c2.984,0 31.323,0.82 31.323,0.82c-6.83,10.723 -13.376,19.199 -16.105,21.929c-2.13,-2.773 -15.218,-22.749 -15.218,-22.749Z" style="fill:none;stroke:#000;stroke-width:1.75px;"/></g><path d="M1532.858,317.24l-134.149,172.558" style="fill:none;stroke:#000;stroke-width:2.34px;"/><path id="ネクタイ" d="M1398.132,488.041l19.899,-2.55l7.953,-34.109c0.265,-3.446 18.936,-66.982 31.251,-81.761l7.828,-10.651c3.113,-5.494 4.445,-6.592 0.574,-14.885c-1.099,-2.482 -10.155,-4.209 -12.22,-3.954c-10.059,1.238 -9.427,8.85 -7.976,21.509c-17.557,19.312 -42.879,87.226 -47.311,126.402l0.001,0Z"/></g><g><g id="人"><g id="スーツ"><path d="M494.91,478.637c0,0 6.452,6.353 9.251,14.576c29.658,87.11 34.812,196.105 33.749,236.872l-388.478,3.739c-2.097,-98.063 8.802,-209.645 36.747,-252.968c19.934,-25.428 70.769,-55.676 94.611,-64.463c-18.794,140.647 49.779,287.794 49.779,287.794c0,0 51.232,-121.7 41.461,-293.338c15.794,11.485 110.028,45.307 122.879,67.788Z" style="fill:#dadada;"/><g><path d="M304.782,404.525c-60.116,25.597 -110.222,58.596 -121.34,81.634c-24.757,51.301 -36.863,134.185 -34.148,246.372" style="fill:none;stroke:#000;stroke-width:2.1px;"/><path d="M356.359,400.846c62.83,41.887 135.612,49.053 149.988,98.154c16.005,54.668 31.564,124.181 31.564,229.852" style="fill:none;stroke:#000;stroke-width:2.1px;"/><path d="M385.344,417.985c6.806,8.474 20.675,26.821 25.178,35.827c7.531,15.062 -29.174,15.893 -29.174,15.893" style="fill:none;stroke:#000;stroke-width:1.75px;"/><path d="M262.169,424.644c-6.233,8.66 -12.984,19.698 -20.255,30.953c-8.022,12.418 17.28,18.565 17.28,18.565" style="fill:none;stroke:#000;stroke-width:1.75px;"/><path d="M374.724,465.698l31.822,19.488c13.509,5.584 -66.936,212.072 -75.975,218.098" style="fill:none;stroke:#000;stroke-width:1.75px;"/><path d="M275.804,465.698l-35.461,18.42c-14.456,5.584 80.554,214.044 90.228,220.07" style="fill:none;stroke:#000;stroke-width:1.75px;"/><path d="M480.911,603.293l0,127.36" style="fill:none;stroke:#000;stroke-width:1.75px;stroke-linecap:butt;"/></g><g><path d="M356.001,401.175l16.03,9.181c11.032,165.165 -41.461,293.831 -41.461,293.831c0,0 -69.177,-147.388 -49.779,-288.764l22.591,-10.898c0,0 10.288,2.018 20.086,2.018c14.725,0 32.533,-5.367 32.533,-5.367l-0,-0Z" style="fill:#fff;"/><path d="M336.397,425.821l3.087,2.463c0.58,0.515 1.162,1.385 1.197,2.06c1.032,19.914 12.996,195.786 12.996,195.786c-7.094,37.535 -23.107,78.057 -23.107,78.057c0,0 -11.757,-28.735 -28.427,-78.057c0,0 18.428,-175.727 19.696,-195.786c0.098,-1.557 1.042,-2.394 1.729,-3.044l2.105,-1.597l-7.444,-7.444c-1.775,-1.775 -1.775,-4.658 0,-6.432l9.649,-9.649c1.775,-1.775 4.658,-1.775 6.432,0l9.649,9.649c1.775,1.775 1.775,4.658 0,6.432l-7.562,7.562Z" style="fill:#3d91d7;"/><path d="M280.791,416.112c-17.858,144.159 49.779,288.075 49.779,288.075c0,0 53.288,-132.944 40.732,-293.831" style="fill:none;stroke:#000;stroke-width:2.63px;"/></g><path d="M206.573,606.464l0,127.36" style="fill:none;stroke:#000;stroke-width:1.75px;stroke-linecap:butt;"/></g><g id="顔"><g id="顔と髪の塗り"><path d="M366.141,195.951l1.046,3.74c2.153,18.101 14.545,21.52 14.545,21.52c15.363,1.002 32.113,49.468 30.254,70.514c17.064,-0.664 17.545,50.206 -2.52,50.206c0,45.539 -62.022,64.612 -87.501,64.612c-13.885,0 -38.333,-6.821 -45.496,-19.092c-10.012,-19.915 -11.716,-45.52 -19.88,-45.52c0,0 -13.788,-0.276 -13.788,-25.103c0,-26.268 14.713,-25.103 14.713,-25.103c-9.778,-21.11 10.202,-43.083 17.526,-47.739c6.278,-6.278 17.757,-9.939 21.935,-25.624c14.947,-8.006 37.84,-22.556 69.166,-22.41Z" style="fill:#fff;"/><path d="M378.482,176.085c21.357,0.369 32.178,22.978 35.388,35.295c4.533,17.396 6.543,44.484 -1.519,80.228l-0.739,-0.078c2.52,-34.907 -20.646,-69.861 -29.54,-70.481c-5.547,-0.742 -15.095,-11.29 -14.884,-20.194c-0.095,-3.375 -2.462,-4.903 -2.462,-4.903c-21.764,0.074 -37.49,5.528 -69.358,22.41c0.349,11.56 -12.099,18.636 -20.164,25.831c-9.529,7.33 -20.776,20.143 -20.491,37.501c-4.141,-24.467 -1.14,-46.442 7.139,-53.141c-5.609,-8.33 -3.703,-17.172 -3.703,-17.172c13.253,-31.231 44.769,-46.95 67.174,-48.514c20.746,-1.449 35.478,7.366 40.74,13.219c3.167,-0.43 12.419,0 12.419,0l0.001,-0.001Z" style="fill:#848484;"/></g><g id="顔と髪の輪郭"><path d="M236.481,220.863c51.094,22.2 71.19,-24.913 128.245,-24.913" style="fill:none;stroke:#000;stroke-width:2.63px;"/><path d="M367.188,200.854c0,10.723 11.315,20.15 14.689,20.15c10.086,0 33.485,42.485 29.7,70.721" style="fill:none;stroke:#000;stroke-width:2.63px;"/><path d="M258.148,211.38c18.842,-44.228 77.938,-63.867 107.914,-35.295" style="fill:none;stroke:#000;stroke-width:2.63px;"/><path d="M378.482,176.085c27.448,0 50.488,39.819 33.836,115.439" style="fill:none;stroke:#000;stroke-width:2.63px;"/><path d="M295.365,218.361c0.383,21.472 -40.652,26.311 -40.652,63.466" style="fill:none;stroke:#000;stroke-width:2.63px;"/><path d="M261.851,228.552c-16.442,15.987 -5.291,63.29 -5.291,63.29" style="fill:none;stroke:#000;stroke-width:2.63px;"/><path d="M257.558,291.842c-6.147,-1.229 -14.562,7.343 -14.574,16.752c0,0 -2.101,25.327 7.946,30.989c0,0 4.246,2.175 8.519,2.347" style="fill:none;stroke:#000;stroke-width:2.63px;"/><path d="M411.591,291.724c6.147,-1.229 12.742,7.461 12.754,16.87c0,0 2.101,25.327 -7.946,30.989c0,0 -4.246,2.175 -8.519,2.347" style="fill:none;stroke:#000;stroke-width:2.63px;"/><path d="M259.449,341.93l15.591,43.544" style="fill:none;stroke:#000;stroke-width:2.63px;"/><path d="M276.468,388.23c47.398,45.929 131.411,-5.23 131.411,-36.806" style="fill:none;stroke:#000;stroke-width:2.63px;"/><path d="M407.88,341.93l0,9.494" style="fill:none;stroke:#000;stroke-width:2.63px;"/></g><g id="顔パーツ"><g id="眉"><path d="M282.529,285.609c8.394,0.973 11.445,-6.671 19.099,-6.735" style="fill:none;stroke:#000;stroke-width:3.51px;"/><path d="M346.678,277.435c2.207,4.828 15.941,6.614 15.941,6.614" style="fill:none;stroke:#000;stroke-width:3.51px;"/></g><g id="目"><path d="M294.653,305.223l0,3.64" style="fill:none;stroke:#000;stroke-width:7.02px;"/><path d="M351.806,305.223l0,3.64" style="fill:none;stroke:#000;stroke-width:7.02px;"/></g><path id="鼻" d="M322.956,298.248c0,0 -20.451,32.955 -12.165,42.68c3.945,4.629 18.246,-0.042 18.246,-0.042" style="fill:none;stroke:#000;stroke-width:2.1px;"/><path id="唇" d="M305.83,368.394c8.273,-8.792 34.129,-3.31 34.129,-3.31" style="fill:none;stroke:#000;stroke-width:2.1px;"/></g></g><g id="右腕"><path d="M275.212,506.534c0,0 2.821,-16.856 2.148,-31.978c0,-78.66 -16.148,-81.949 -6.863,-86.217c14.07,-0.449 25.514,25.445 38.758,25.445c29.705,0 71.655,-26.994 80.574,-18.074c5.501,5.501 -40.441,26.378 -40.441,26.378c0,0 16.845,-6.668 20.982,-2.531c3.226,3.226 -11.718,15.509 -11.718,15.509c0,0 12.001,-6.479 14.565,-3.117c2.564,3.363 -6.717,15.329 -6.717,15.329c0,0 7.628,-5.636 9.792,-3.471c2.165,2.165 0.025,19.801 -50.836,46.414c-11.936,1.951 -14.734,27.555 -14.734,27.555l-35.511,-11.242l-0,-0Z" style="fill:#fff;stroke:#000;stroke-width:1.75px;stroke-linecap:butt;"/><path d="M264.163,519.942l7.149,-15.123l44.938,14.373l-2.536,16.433" style="fill:#fff;stroke:#000;stroke-width:1.75px;stroke-linecap:butt;"/><g><path d="M320.257,537.949l-18.114,194.336l-117.562,1.102l73.337,-215.61l62.34,20.172l-0,0Z" style="fill:#dadada;"/><path d="M184.581,732.853l72.803,-215.745l62.873,20.381l-18.114,194.796" style="fill:none;stroke:#000;stroke-width:1.75px;stroke-linecap:butt;"/></g></g></g><path d="M210.394,277.045c-18.013,-1.372 -30.774,-10.435 -33.117,-32.322c-0.949,-8.861 13.571,-14.904 17.523,-16.007c23.012,-6.42 23.616,11.735 14.595,15.048c-8.088,2.97 -19.154,8.444 -32.117,0.959c-12.963,-7.484 -18.297,-37.549 21.45,-49.978c21.168,-6.619 25.348,18.147 2.316,23.295c-13.602,3.041 -36.371,-8.413 -36.389,-8.423c-15.568,-8.901 -36.778,-39.152 -0.356,-52.96c42.295,-16.035 56.167,17.254 14.282,31.208c-11.626,3.873 -20.467,4.628 -31.182,0c-14.093,-6.086 -23.663,-21.338 -20.235,-39.633c3.266,-17.427 34.074,-45.576 76.56,-27.604" style="fill:none;stroke:#000;stroke-width:3.51px;stroke-linecap:butt;"/></g></g><g><path d="M522.93,140.449l0,174.684c0,5.571 6.593,12.889 12.975,12.889l35.384,0l0.411,66.373l47.656,-66.373l211.316,-0c7.766,0 15.093,-8.915 15.093,-15.164l0,-167.801c0,-10.373 -5.949,-22.723 -25.629,-22.723l-271.957,0c-11.113,0 -25.249,9.005 -25.249,18.116Z" style="fill:#fff;"/><path d="M642.179,327.52l187.861,0c10.64,0 15.383,-6.658 15.383,-16.972l0.344,-161.478c0,-15.184 -3.633,-26.738 -26.696,-26.738l-269.578,0c-9.622,0 -24.524,5.615 -24.524,14.758c0,9.144 -0.518,34.442 -0.518,34.442m-0.343,32.549l-1.176,111.71c0,6.291 5.04,11.729 13.444,11.729l35.463,0l0,66.874l47.638,-66.874" style="fill:none;stroke:#000;stroke-width:8.33px;"/></g><g><path d="M1254.562,59.411l0,188.457c0,6.01 -7.321,13.905 -14.407,13.905l-39.291,0l-0.457,71.606l-52.917,-71.606l-234.647,-0c-8.623,0 -16.759,-9.618 -16.759,-16.36l-0,-181.031c0,-11.19 6.606,-24.515 28.459,-24.515l301.983,0c12.34,0 28.036,9.715 28.036,19.544Z" style="fill:#ffe991;"/><path d="M1122.148,261.231l-208.602,0c-11.815,0 -17.081,-7.183 -17.081,-18.31l-0.381,-174.209c0,-16.381 4.034,-28.846 29.644,-28.846l299.341,0c10.684,0 27.232,6.057 27.232,15.922c0,9.865 0.575,37.158 0.575,37.158m0.38,35.115l1.306,120.518c0,6.787 -5.597,12.653 -14.929,12.653l-39.378,0l0,72.147l-52.897,-72.147" style="fill:none;stroke:#000;stroke-width:8.33px;"/></g></g></svg>