<?xml version="1.0" encoding="UTF-8" standalone="no"?><!DOCTYPE svg PUBLIC "-//W3C//DTD SVG 1.1//EN" "http://www.w3.org/Graphics/SVG/1.1/DTD/svg11.dtd"><svg width="100%" height="100%" viewBox="0 0 1881 1059" version="1.1" xmlns="http://www.w3.org/2000/svg" xmlns:xlink="http://www.w3.org/1999/xlink" xml:space="preserve" xmlns:serif="http://www.serif.com/" style="fill-rule:evenodd;clip-rule:evenodd;stroke-linecap:round;stroke-linejoin:round;stroke-miterlimit:1.5;"><g><g><rect id="背景" x="4.167" y="4.167" width="700.99" height="1049.788" style="fill:#c2deff;stroke:#000;stroke-width:8.33px;"/><g><g><rect x="3.596" y="729.09" width="701.561" height="118.83" style="fill:#333;"/><path d="M21.883,784.371l0,8.268l-17.717,0l0,-8.268l17.717,0Zm48.425,0l0,8.268l-17.717,0l0,-8.268l17.717,0Zm48.425,0l0,8.268l-17.717,0l0,-8.268l17.717,0Zm48.425,0l0,8.268l-17.717,0l0,-8.268l17.717,0Zm48.425,0l0,8.268l-17.717,0l0,-8.268l17.717,0Zm48.425,0l0,8.268l-17.717,0l0,-8.268l17.717,0Zm48.425,0l0,8.268l-17.717,0l0,-8.268l17.717,0Zm48.425,0l0,8.268l-17.717,0l0,-8.268l17.717,0Zm48.425,0l0,8.268l-17.717,0l0,-8.268l17.717,0Zm48.425,0l0,8.268l-17.717,0l0,-8.268l17.717,0Zm48.425,0l0,8.268l-17.717,0l0,-8.268l17.717,0Zm48.425,0l0,8.268l-17.717,0l0,-8.268l17.717,0Zm48.425,0l0,8.268l-17.717,0l0,-8.268l17.717,0Zm48.425,0l0,8.268l-17.717,0l0,-8.268l17.717,0Zm48.425,0l0,8.268l-17.717,0l0,-8.268l17.717,0Z" style="fill:#fff;"/><rect x="4.167" y="729.09" width="700.99" height="118.83" style="fill:none;stroke:#000;stroke-width:4.17px;"/></g><g id="車"><g id="車1" serif:id="車"><path d="M705.146,781.356c0.013,9.643 0.062,12.481 -0.236,13.076l0,20.668l-4.847,-0.006c0,-5.234 -4.797,-12.922 -13.642,-12.922c-10.119,0 -13.974,8.782 -13.974,12.873l-16.331,-0.023c-3.227,-0.128 -5.36,-2.988 -5.36,-9.036c0,-12.855 20.677,-23.971 33.957,-23.971l20.293,0c0,0 0.036,-0.238 0.141,-0.659Z" style="fill:#008fff;stroke:#000;stroke-width:2.08px;stroke-linejoin:miter;"/><circle cx="686.255" cy="815.22" r="13.808" style="fill:#fff;stroke:#000;stroke-width:2.08px;"/></g><g><path d="M538.761,742.2l0,8.467l-75.679,0l0,-20.588l66.075,0l9.605,12.121Z" style="fill:#fff;stroke:#000;stroke-width:2.08px;"/><path d="M547.848,749.886l0,17.116l-85.961,0l0,-37.911l69.298,0l16.664,20.796Zm-14.06,0l-12.207,-14.506l-7.25,0l0,14.506l19.457,0Zm-30.097,0l0,-14.447l-0.074,-0.059l-35.453,0l0,14.506l35.527,0Z" style="fill:#008fff;stroke:#000;stroke-width:2.08px;stroke-linejoin:miter;"/><circle cx="529.156" cy="767.001" r="9.605" style="fill:#fff;stroke:#000;stroke-width:2.08px;"/><circle cx="480.578" cy="767.001" r="9.605" style="fill:#fff;stroke:#000;stroke-width:2.08px;"/></g><g id="車2" serif:id="車"><path d="M122.311,744.021l12.254,0c8.02,0 20.506,6.713 20.506,14.476c0,3.653 -1.288,5.379 -3.237,5.457l-9.862,0.014c0,-2.47 -2.328,-7.774 -8.439,-7.774c-5.342,0 -8.238,4.642 -8.238,7.803l-25.497,0.03c0,-3.709 -3.456,-7.833 -8.339,-7.833c-4.161,0 -8.339,3.623 -8.339,7.869l-7.38,0.011l0,-16.94c0,-1.837 1.779,-3.112 3.411,-3.112l7.597,0c0,0 0.535,-10.736 17.884,-10.736c16.057,0 17.677,10.736 17.677,10.736Z" style="fill:#008fff;stroke:#000;stroke-width:2.08px;stroke-linejoin:miter;"/><path d="M104.214,737.677c11.476,0 13.165,8.566 13.165,8.566l-26.025,0c0,0 0.887,-8.566 12.86,-8.566Zm-2.457,0.11l0,8.456" style="fill:#fff;stroke:#000;stroke-width:2.08px;"/><path d="M133.634,755.734c4.602,0 8.339,3.736 8.339,8.339c0,4.602 -3.736,8.339 -8.339,8.339c-4.602,0 -8.339,-3.736 -8.339,-8.339c0,-4.602 3.736,-8.339 8.339,-8.339Zm-42.174,0c4.602,0 8.339,3.736 8.339,8.339c0,4.602 -3.736,8.339 -8.339,8.339c-4.602,0 -8.339,-3.736 -8.339,-8.339c0,-4.602 3.736,-8.339 8.339,-8.339Z" style="fill:#fff;stroke:#000;stroke-width:2.08px;"/></g><g><g><rect x="286.506" y="791.84" width="60.826" height="11.313" style="fill:#fff;stroke:#000;stroke-width:2.08px;"/><path d="M295.509,787.182l-6.509,0l-0,-10.576l53.751,0l0,10.576l-6.448,0l-0,-4.931l-8.612,0l0,4.931l-7.89,0l-0,-4.931l-9.189,0l0,4.931l-7.136,0l-0,-4.931l-7.967,0l0,4.931Z" style="fill:#898989;stroke:#000;stroke-width:2.08px;"/><path d="M349.167,787.182l6.356,14.586l3.454,3.493l0,16.645l-100.998,0l0,-13.704l16.002,-2.941l8.153,-18.08l67.033,0Zm-62.83,4.698l0,11.11l16.863,0l0,-11.11l-16.863,0Zm21.556,0l0,11.11l23.495,0l0,-11.11l-23.495,0Zm26.309,0l0,11.11l13.104,0l0,-11.11l-13.104,0Z" style="fill:#ffc200;stroke:#000;stroke-width:2.08px;stroke-linejoin:miter;"/></g><circle cx="340.886" cy="821.907" r="11.871" style="fill:#fff;stroke:#000;stroke-width:2.08px;"/><circle cx="280.844" cy="821.907" r="11.871" style="fill:#fff;stroke:#000;stroke-width:2.08px;"/></g></g><path id="雲" d="M705.157,311.25l0,38.755l-70.502,0c-26.065,0 -26.065,-38.755 0,-38.755l9.78,0c0,0 -1.583,-28.89 24.08,-28.89c28.523,0 25.715,28.89 25.715,28.89l10.927,0Z" style="fill:#fff;stroke:#000;stroke-width:6.25px;"/><g id="ビル群"><g id="ビル群1" serif:id="ビル群"><g><path d="M113.868,693.549l0,-353.442l137.918,-56.299l0,409.741m0,-409.741l0,-73.606m-137.918,177.174l120.264,0m-120.264,15.279l120.264,0m-120.264,15.279l120.264,0m-120.264,15.279l120.264,0m-120.264,15.279l120.264,0m-120.264,15.279l120.264,0m-120.264,15.279l120.264,0m-120.264,15.279l120.264,0m-120.264,15.279l120.264,0m-120.264,15.279l120.264,0m-120.264,15.279l120.264,0m-120.264,15.279l120.264,0m-120.264,15.279l120.264,0" style="fill:#fff;stroke:#000;stroke-width:6.25px;stroke-linecap:butt;stroke-linejoin:miter;"/><path d="M292.272,693.549l0,-377.058c0,0 132.295,39.071 132.295,100.778l0,276.279m-132.295,-260.773l88.978,0m-88.978,20.566l88.978,0m-88.978,20.566l88.978,0m-88.978,20.566l88.978,0m-88.978,20.566l88.978,0m-88.978,20.566l88.978,0m-88.978,20.566l88.978,0m-88.978,20.566l88.978,0m-88.978,20.566l88.978,0" style="fill:#fff;stroke:#000;stroke-width:6.25px;stroke-linecap:butt;stroke-linejoin:miter;"/><path d="M704.377,469.489l0,224.06l-88.199,-42.622l-91.536,42.622l0,-224.06l91.536,-47.798l88.199,47.798Zm-88.199,-47.798l0,229.236m-91.536,-134.887l91.249,-46.146m-91.249,68.988l91.249,-46.146m-91.249,68.988l91.249,-46.146m-91.249,68.988l91.249,-46.146m-91.249,68.988l91.249,-46.146m-91.249,69.812l90.365,-43.601m90.151,-73.487l-89.266,-44.091m89.266,66.933l-89.266,-44.091m89.266,66.933l-89.266,-44.091m89.266,66.933l-89.266,-44.091m89.266,66.933l-89.266,-44.091m89.266,67.758l-88.381,-41.546m-63.006,-133.194l0,-61.324" style="fill:#fff;stroke:#000;stroke-width:6.25px;"/><path d="M336.761,483.914l0,209.635l-126.763,0l0,-209.635l126.763,0Zm-55.669,0l-54.496,0l0,-32.038l54.496,0l0,32.038Zm-50.455,35.666l0,112.321m14.577,-112.321l0,112.321m14.577,-112.321l0,112.321m14.577,-112.321l0,112.321m14.577,-112.321l0,112.321m14.577,-112.321l0,112.321m14.577,-112.321l0,112.321" style="fill:#fff;stroke:#000;stroke-width:6.25px;stroke-linecap:butt;stroke-linejoin:miter;"/><g><g><rect x="36.847" y="434.082" width="139.537" height="259.466" style="fill:#fff;"/><rect x="36.847" y="434.082" width="139.537" height="20.687" style="fill:#515151;"/><path d="M56.907,474.133l0,11.385l-7.632,0l0,-11.385l7.632,0Zm13.356,0l0,11.385l-7.632,0l0,-11.385l7.632,0Zm13.356,0l0,11.385l-7.632,0l0,-11.385l7.632,0Zm13.356,0l0,11.385l-7.632,0l0,-11.385l7.632,0Zm13.356,0l0,11.385l-7.632,0l0,-11.385l7.632,0Zm13.356,0l0,11.385l-7.632,0l0,-11.385l7.632,0Zm13.356,0l0,11.385l-7.632,0l0,-11.385l7.632,0Zm13.356,0l0,11.385l-7.632,0l0,-11.385l7.632,0Zm13.356,0l0,11.385l-7.632,0l0,-11.385l7.632,0Zm-106.85,18.974l0,11.385l-7.632,0l0,-11.385l7.632,0Zm13.356,0l0,11.385l-7.632,0l0,-11.385l7.632,0Zm13.356,0l0,11.385l-7.632,0l0,-11.385l7.632,0Zm13.356,0l0,11.385l-7.632,0l0,-11.385l7.632,0Zm13.356,0l0,11.385l-7.632,0l0,-11.385l7.632,0Zm13.356,0l0,11.385l-7.632,0l0,-11.385l7.632,0Zm13.356,0l0,11.385l-7.632,0l0,-11.385l7.632,0Zm13.356,0l0,11.385l-7.632,0l0,-11.385l7.632,0Zm13.356,0l0,11.385l-7.632,0l0,-11.385l7.632,0Zm-106.85,18.974l0,11.385l-7.632,0l0,-11.385l7.632,0Zm13.356,0l0,11.385l-7.632,0l0,-11.385l7.632,0Zm13.356,0l0,11.385l-7.632,0l0,-11.385l7.632,0Zm13.356,0l0,11.385l-7.632,0l0,-11.385l7.632,0Zm13.356,0l0,11.385l-7.632,0l0,-11.385l7.632,0Zm13.356,0l0,11.385l-7.632,0l0,-11.385l7.632,0Zm13.356,0l0,11.385l-7.632,0l0,-11.385l7.632,0Zm13.356,0l0,11.385l-7.632,0l0,-11.385l7.632,0Zm13.356,0l0,11.385l-7.632,0l0,-11.385l7.632,0Zm-106.85,18.974l0,11.385l-7.632,0l0,-11.385l7.632,0Zm13.356,0l0,11.385l-7.632,0l0,-11.385l7.632,0Zm13.356,0l0,11.385l-7.632,0l0,-11.385l7.632,0Zm13.356,0l0,11.385l-7.632,0l0,-11.385l7.632,0Zm13.356,0l0,11.385l-7.632,0l0,-11.385l7.632,0Zm13.356,0l0,11.385l-7.632,0l0,-11.385l7.632,0Zm13.356,0l0,11.385l-7.632,0l0,-11.385l7.632,0Zm13.356,0l0,11.385l-7.632,0l0,-11.385l7.632,0Zm13.356,0l0,11.385l-7.632,0l0,-11.385l7.632,0Zm-106.85,18.974l0,11.385l-7.632,0l0,-11.385l7.632,0Zm13.356,0l0,11.385l-7.632,0l0,-11.385l7.632,0Zm13.356,0l0,11.385l-7.632,0l0,-11.385l7.632,0Zm13.356,0l0,11.385l-7.632,0l0,-11.385l7.632,0Zm13.356,0l0,11.385l-7.632,0l0,-11.385l7.632,0Zm13.356,0l0,11.385l-7.632,0l0,-11.385l7.632,0Zm13.356,0l0,11.385l-7.632,0l0,-11.385l7.632,0Zm13.356,0l0,11.385l-7.632,0l0,-11.385l7.632,0Zm13.356,0l0,11.385l-7.632,0l0,-11.385l7.632,0Zm-106.85,18.974l0,11.385l-7.632,0l0,-11.385l7.632,0Zm13.356,0l0,11.385l-7.632,0l0,-11.385l7.632,0Zm13.356,0l0,11.385l-7.632,0l0,-11.385l7.632,0Zm13.356,0l0,11.385l-7.632,0l0,-11.385l7.632,0Zm13.356,0l0,11.385l-7.632,0l0,-11.385l7.632,0Zm13.356,0l0,11.385l-7.632,0l0,-11.385l7.632,0Zm13.356,0l0,11.385l-7.632,0l0,-11.385l7.632,0Zm13.356,0l0,11.385l-7.632,0l0,-11.385l7.632,0Zm13.356,0l0,11.385l-7.632,0l0,-11.385l7.632,0Zm-106.85,18.974l0,11.385l-7.632,0l0,-11.385l7.632,0Zm13.356,0l0,11.385l-7.632,0l0,-11.385l7.632,0Zm13.356,0l0,11.385l-7.632,0l0,-11.385l7.632,0Zm13.356,0l0,11.385l-7.632,0l0,-11.385l7.632,0Zm13.356,0l0,11.385l-7.632,0l0,-11.385l7.632,0Zm13.356,0l0,11.385l-7.632,0l0,-11.385l7.632,0Zm13.356,0l0,11.385l-7.632,0l0,-11.385l7.632,0Zm13.356,0l0,11.385l-7.632,0l0,-11.385l7.632,0Zm13.356,0l0,11.385l-7.632,0l0,-11.385l7.632,0Zm-106.85,18.974l0,11.385l-7.632,0l0,-11.385l7.632,0Zm13.356,0l0,11.385l-7.632,0l0,-11.385l7.632,0Zm13.356,0l0,11.385l-7.632,0l0,-11.385l7.632,0Zm13.356,0l0,11.385l-7.632,0l0,-11.385l7.632,0Zm13.356,0l0,11.385l-7.632,0l0,-11.385l7.632,0Zm13.356,0l0,11.385l-7.632,0l0,-11.385l7.632,0Zm13.356,0l0,11.385l-7.632,0l0,-11.385l7.632,0Zm13.356,0l0,11.385l-7.632,0l0,-11.385l7.632,0Zm13.356,0l0,11.385l-7.632,0l0,-11.385l7.632,0Zm-106.85,18.974l0,11.385l-7.632,0l0,-11.385l7.632,0Zm13.356,0l0,11.385l-7.632,0l0,-11.385l7.632,0Zm13.356,0l0,11.385l-7.632,0l0,-11.385l7.632,0Zm13.356,0l0,11.385l-7.632,0l0,-11.385l7.632,0Zm13.356,0l0,11.385l-7.632,0l0,-11.385l7.632,0Zm13.356,0l0,11.385l-7.632,0l0,-11.385l7.632,0Zm13.356,0l0,11.385l-7.632,0l0,-11.385l7.632,0Zm13.356,0l0,11.385l-7.632,0l0,-11.385l7.632,0Zm13.356,0l0,11.385l-7.632,0l0,-11.385l7.632,0Zm-106.85,18.974l0,11.385l-7.632,0l0,-11.385l7.632,0Zm13.356,0l0,11.385l-7.632,0l0,-11.385l7.632,0Zm13.356,0l0,11.385l-7.632,0l0,-11.385l7.632,0Zm13.356,0l0,11.385l-7.632,0l0,-11.385l7.632,0Zm13.356,0l0,11.385l-7.632,0l0,-11.385l7.632,0Zm13.356,0l0,11.385l-7.632,0l0,-11.385l7.632,0Zm13.356,0l0,11.385l-7.632,0l0,-11.385l7.632,0Zm13.356,0l0,11.385l-7.632,0l0,-11.385l7.632,0Zm13.356,0l0,11.385l-7.632,0l0,-11.385l7.632,0Z" style="fill:#515151;"/></g><path d="M36.847,434.082l0,259.466m139.537,-259.466l0,259.466m-139.537,-259.466l139.537,0m-139.537,20.687l139.537,0m-139.537,-20.623l139.537,0m0,-0.065l0,20.687m-139.537,-20.687l0,20.687" style="fill:#fff;stroke:#000;stroke-width:6.25px;stroke-linejoin:miter;"/></g></g></g><g><g><g><rect x="8.478" y="554.994" width="74.917" height="138.246" style="fill:#fff;stroke:#000;stroke-width:4.17px;"/><rect x="6.766" y="656.053" width="36.413" height="37.187" style="fill:#ffc200;stroke:#000;stroke-width:4.17px;"/></g><path d="M4.167,554.994l79.229,0l0,138.246l-79.229,0m2.327,-46.31l75.699,0" style="fill:none;stroke:#000;stroke-width:4.17px;"/><path d="M4.167,572.404l38.807,0l0,24.96l-38.807,0m0,12.579l38.807,0l0,24.761l-38.807,0m2.6,21.35l36.413,0l0,37.187" style="fill:none;stroke:#000;stroke-width:4.17px;"/></g><g><path d="M228.753,604.056l0,89.185l-86.337,0l0,-120.837l86.337,31.652Z" style="fill:#fff;"/><path d="M158.411,693.24l0,-42.345l18.009,0l0,42.345" style="fill:#0098ff;stroke:#000;stroke-width:5px;"/><path d="M228.753,604.056l0,89.185l-86.337,0l0,-120.837l86.337,31.652Z" style="fill:none;stroke:#000;stroke-width:5px;"/><rect x="151.946" y="615.59" width="12.929" height="12.857" style="fill:none;stroke:#000;stroke-width:4.17px;"/><rect x="174.722" y="615.59" width="12.929" height="12.857" style="fill:none;stroke:#000;stroke-width:4.17px;"/><rect x="196.516" y="646.635" width="12.929" height="12.857" style="fill:none;stroke:#000;stroke-width:4.17px;"/></g><path d="M359.428,650.108l65.14,0m-65.14,14.173l65.14,0m-65.14,14.173l65.14,0m0,-44.302l0,59.396l-66.148,-0.308l0,-59.396l66.148,0.308Z" style="fill:none;stroke:#000;stroke-width:4.17px;"/><path d="M705.157,521.911l-0,171.33l-180.515,0l0,-85.093c0,0 -2.271,-47.355 45.129,-47.355c47.4,0 45.129,47.355 45.129,47.355l-0,-53.154c0,-52.065 73.194,-59.22 90.258,-33.083Z" style="fill:#1c8e1d;stroke:#000;stroke-width:4.17px;stroke-linejoin:miter;"/><g><path d="M547.604,594.771l0,98.778l-123.036,-0.513l0,-98.778l61.518,-50.223l61.518,50.735Z" style="fill:#fff;"/><g><path d="M525.215,650.791l0,40.642l-27.253,0l0,-40.642c0,0 0.017,-10.81 12.846,-10.81c12.829,0 14.407,10.81 14.407,10.81Z" style="fill:#ffdf00;"/><path d="M547.604,594.771l0,98.778l-123.036,-0.513l0,-98.778l61.518,-50.223l61.518,50.735Zm-49.642,0.599l0,23.422l-23.752,0l0,-23.422l23.752,0Zm-18.271,44.611l0,10.81l-10.962,0l0,-10.81l10.962,0Zm45.524,10.81l0,42.758l-27.253,0l0,-42.758c0,0 0.017,-10.81 12.846,-10.81c12.829,0 14.407,10.81 14.407,10.81Z" style="fill:none;stroke:#000;stroke-width:4.17px;"/></g></g></g></g></g></g><g><rect id="背景1" serif:id="背景" x="1175.355" y="4.167" width="700.99" height="1049.788" style="fill:#c2deff;stroke:#000;stroke-width:8.33px;"/><g><g><rect x="1174.784" y="729.09" width="701.561" height="118.83" style="fill:#333;"/><path d="M1193.071,784.371l0,8.268l-17.717,0l0,-8.268l17.717,0Zm48.425,0l0,8.268l-17.717,0l0,-8.268l17.717,0Zm48.425,0l0,8.268l-17.717,0l0,-8.268l17.717,0Zm48.425,0l0,8.268l-17.717,0l0,-8.268l17.717,0Zm48.425,0l0,8.268l-17.717,0l0,-8.268l17.717,0Zm48.425,0l0,8.268l-17.717,0l0,-8.268l17.717,0Zm48.425,0l0,8.268l-17.717,0l0,-8.268l17.717,0Zm48.425,0l0,8.268l-17.717,0l0,-8.268l17.717,0Zm48.425,0l0,8.268l-17.717,0l0,-8.268l17.717,0Zm48.425,0l0,8.268l-17.717,0l0,-8.268l17.717,0Zm48.425,0l0,8.268l-17.717,0l0,-8.268l17.717,0Zm48.425,0l0,8.268l-17.717,0l0,-8.268l17.717,0Zm48.425,0l0,8.268l-17.717,0l0,-8.268l17.717,0Zm48.425,0l0,8.268l-17.717,0l0,-8.268l17.717,0Zm48.425,0l0,8.268l-17.717,0l0,-8.268l17.717,0Z" style="fill:#fff;"/><rect x="1175.355" y="729.09" width="700.99" height="118.83" style="fill:none;stroke:#000;stroke-width:4.17px;"/></g><g id="車3" serif:id="車"><g id="車4" serif:id="車"><path d="M1876.334,781.356c0.013,9.643 0.062,12.481 -0.236,13.076l0,20.668l-4.847,-0.006c0,-5.234 -4.797,-12.922 -13.642,-12.922c-10.119,0 -13.974,8.782 -13.974,12.873l-16.331,-0.023c-3.227,-0.128 -5.36,-2.988 -5.36,-9.036c0,-12.855 20.677,-23.971 33.957,-23.971l20.293,0c0,0 0.036,-0.238 0.141,-0.659Z" style="fill:#008fff;stroke:#000;stroke-width:2.08px;stroke-linejoin:miter;"/><circle cx="1857.443" cy="815.22" r="13.808" style="fill:#fff;stroke:#000;stroke-width:2.08px;"/></g><g><path d="M1709.949,742.2l0,8.467l-75.679,0l0,-20.588l66.075,0l9.605,12.121Z" style="fill:#fff;stroke:#000;stroke-width:2.08px;"/><path d="M1719.036,749.886l0,17.116l-85.961,0l0,-37.911l69.298,0l16.664,20.796Zm-14.06,0l-12.207,-14.506l-7.25,0l0,14.506l19.457,0Zm-30.097,0l0,-14.447l-0.074,-0.059l-35.453,0l0,14.506l35.527,0Z" style="fill:#008fff;stroke:#000;stroke-width:2.08px;stroke-linejoin:miter;"/><circle cx="1700.344" cy="767.001" r="9.605" style="fill:#fff;stroke:#000;stroke-width:2.08px;"/><circle cx="1651.766" cy="767.001" r="9.605" style="fill:#fff;stroke:#000;stroke-width:2.08px;"/></g><g id="車5" serif:id="車"><path d="M1293.499,744.021l12.254,0c8.02,0 20.506,6.713 20.506,14.476c0,3.653 -1.288,5.379 -3.237,5.457l-9.862,0.014c0,-2.47 -2.328,-7.774 -8.439,-7.774c-5.342,0 -8.238,4.642 -8.238,7.803l-25.497,0.03c0,-3.709 -3.456,-7.833 -8.339,-7.833c-4.161,0 -8.339,3.623 -8.339,7.869l-7.38,0.011l0,-16.94c0,-1.837 1.779,-3.112 3.411,-3.112l7.597,0c0,0 0.535,-10.736 17.884,-10.736c16.057,0 17.677,10.736 17.677,10.736Z" style="fill:#008fff;stroke:#000;stroke-width:2.08px;stroke-linejoin:miter;"/><path d="M1275.402,737.677c11.476,0 13.165,8.566 13.165,8.566l-26.025,0c0,0 0.887,-8.566 12.86,-8.566Zm-2.457,0.11l0,8.456" style="fill:#fff;stroke:#000;stroke-width:2.08px;"/><path d="M1304.822,755.734c4.602,0 8.339,3.736 8.339,8.339c0,4.602 -3.736,8.339 -8.339,8.339c-4.602,0 -8.339,-3.736 -8.339,-8.339c0,-4.602 3.736,-8.339 8.339,-8.339Zm-42.174,0c4.602,0 8.339,3.736 8.339,8.339c0,4.602 -3.736,8.339 -8.339,8.339c-4.602,0 -8.339,-3.736 -8.339,-8.339c0,-4.602 3.736,-8.339 8.339,-8.339Z" style="fill:#fff;stroke:#000;stroke-width:2.08px;"/></g><g><g><rect x="1457.694" y="791.84" width="60.826" height="11.313" style="fill:#fff;stroke:#000;stroke-width:2.08px;"/><path d="M1466.697,787.182l-6.509,0l-0,-10.576l53.751,0l0,10.576l-6.448,0l-0,-4.931l-8.612,0l0,4.931l-7.89,0l-0,-4.931l-9.189,0l0,4.931l-7.136,0l-0,-4.931l-7.967,0l0,4.931Z" style="fill:#898989;stroke:#000;stroke-width:2.08px;"/><path d="M1520.355,787.182l6.356,14.586l3.454,3.493l0,16.645l-100.998,0l0,-13.704l16.002,-2.941l8.153,-18.08l67.033,0Zm-62.83,4.698l0,11.11l16.863,0l0,-11.11l-16.863,0Zm21.556,0l0,11.11l23.495,0l0,-11.11l-23.495,0Zm26.309,0l0,11.11l13.104,0l0,-11.11l-13.104,0Z" style="fill:#ffc200;stroke:#000;stroke-width:2.08px;stroke-linejoin:miter;"/></g><circle cx="1512.074" cy="821.907" r="11.871" style="fill:#fff;stroke:#000;stroke-width:2.08px;"/><circle cx="1452.032" cy="821.907" r="11.871" style="fill:#fff;stroke:#000;stroke-width:2.08px;"/></g></g><path id="雲1" serif:id="雲" d="M1876.345,311.25l0,38.755l-70.502,0c-26.065,0 -26.065,-38.755 0,-38.755l9.78,0c0,0 -1.583,-28.89 24.08,-28.89c28.523,0 25.715,28.89 25.715,28.89l10.927,0Z" style="fill:#fff;stroke:#000;stroke-width:6.25px;"/><g id="ビル群2" serif:id="ビル群"><g id="ビル群3" serif:id="ビル群"><g><path d="M1285.056,693.549l0,-353.442l137.918,-56.299l0,409.741m0,-409.741l0,-73.606m-137.918,177.174l120.264,0m-120.264,15.279l120.264,0m-120.264,15.279l120.264,0m-120.264,15.279l120.264,0m-120.264,15.279l120.264,0m-120.264,15.279l120.264,0m-120.264,15.279l120.264,0m-120.264,15.279l120.264,0m-120.264,15.279l120.264,0m-120.264,15.279l120.264,0m-120.264,15.279l120.264,0m-120.264,15.279l120.264,0m-120.264,15.279l120.264,0" style="fill:#fff;stroke:#000;stroke-width:6.25px;stroke-linecap:butt;stroke-linejoin:miter;"/><path d="M1463.46,693.549l0,-377.058c0,0 132.295,39.071 132.295,100.778l0,276.279m-132.295,-260.773l88.978,0m-88.978,20.566l88.978,0m-88.978,20.566l88.978,0m-88.978,20.566l88.978,0m-88.978,20.566l88.978,0m-88.978,20.566l88.978,0m-88.978,20.566l88.978,0m-88.978,20.566l88.978,0m-88.978,20.566l88.978,0" style="fill:#fff;stroke:#000;stroke-width:6.25px;stroke-linecap:butt;stroke-linejoin:miter;"/><path d="M1875.565,469.489l0,224.06l-88.199,-42.622l-91.536,42.622l0,-224.06l91.536,-47.798l88.199,47.798Zm-88.199,-47.798l0,229.236m-91.536,-134.887l91.249,-46.146m-91.249,68.988l91.249,-46.146m-91.249,68.988l91.249,-46.146m-91.249,68.988l91.249,-46.146m-91.249,68.988l91.249,-46.146m-91.249,69.812l90.365,-43.601m90.151,-73.487l-89.266,-44.091m89.266,66.933l-89.266,-44.091m89.266,66.933l-89.266,-44.091m89.266,66.933l-89.266,-44.091m89.266,66.933l-89.266,-44.091m89.266,67.758l-88.381,-41.546m-63.006,-133.194l0,-61.324" style="fill:#fff;stroke:#000;stroke-width:6.25px;"/><path d="M1507.949,483.914l0,209.635l-126.763,0l0,-209.635l126.763,0Zm-55.669,0l-54.496,0l0,-32.038l54.496,0l0,32.038Zm-50.455,35.666l0,112.321m14.577,-112.321l0,112.321m14.577,-112.321l0,112.321m14.577,-112.321l0,112.321m14.577,-112.321l0,112.321m14.577,-112.321l0,112.321m14.577,-112.321l0,112.321" style="fill:#fff;stroke:#000;stroke-width:6.25px;stroke-linecap:butt;stroke-linejoin:miter;"/><g><g><rect x="1208.035" y="434.082" width="139.537" height="259.466" style="fill:#fff;"/><rect x="1208.035" y="434.082" width="139.537" height="20.687" style="fill:#515151;"/><path d="M1228.095,474.133l0,11.385l-7.632,0l0,-11.385l7.632,0Zm13.356,0l0,11.385l-7.632,0l0,-11.385l7.632,0Zm13.356,0l0,11.385l-7.632,0l0,-11.385l7.632,0Zm13.356,0l0,11.385l-7.632,0l0,-11.385l7.632,0Zm13.356,0l0,11.385l-7.632,0l0,-11.385l7.632,0Zm13.356,0l0,11.385l-7.632,0l0,-11.385l7.632,0Zm13.356,0l0,11.385l-7.632,0l0,-11.385l7.632,0Zm13.356,0l0,11.385l-7.632,0l0,-11.385l7.632,0Zm13.356,0l0,11.385l-7.632,0l0,-11.385l7.632,0Zm-106.85,18.974l0,11.385l-7.632,0l0,-11.385l7.632,0Zm13.356,0l0,11.385l-7.632,0l0,-11.385l7.632,0Zm13.356,0l0,11.385l-7.632,0l0,-11.385l7.632,0Zm13.356,0l0,11.385l-7.632,0l0,-11.385l7.632,0Zm13.356,0l0,11.385l-7.632,0l0,-11.385l7.632,0Zm13.356,0l0,11.385l-7.632,0l0,-11.385l7.632,0Zm13.356,0l0,11.385l-7.632,0l0,-11.385l7.632,0Zm13.356,0l0,11.385l-7.632,0l0,-11.385l7.632,0Zm13.356,0l0,11.385l-7.632,0l0,-11.385l7.632,0Zm-106.85,18.974l0,11.385l-7.632,0l0,-11.385l7.632,0Zm13.356,0l0,11.385l-7.632,0l0,-11.385l7.632,0Zm13.356,0l0,11.385l-7.632,0l0,-11.385l7.632,0Zm13.356,0l0,11.385l-7.632,0l0,-11.385l7.632,0Zm13.356,0l0,11.385l-7.632,0l0,-11.385l7.632,0Zm13.356,0l0,11.385l-7.632,0l0,-11.385l7.632,0Zm13.356,0l0,11.385l-7.632,0l0,-11.385l7.632,0Zm13.356,0l0,11.385l-7.632,0l0,-11.385l7.632,0Zm13.356,0l0,11.385l-7.632,0l0,-11.385l7.632,0Zm-106.85,18.974l0,11.385l-7.632,0l0,-11.385l7.632,0Zm13.356,0l0,11.385l-7.632,0l0,-11.385l7.632,0Zm13.356,0l0,11.385l-7.632,0l0,-11.385l7.632,0Zm13.356,0l0,11.385l-7.632,0l0,-11.385l7.632,0Zm13.356,0l0,11.385l-7.632,0l0,-11.385l7.632,0Zm13.356,0l0,11.385l-7.632,0l0,-11.385l7.632,0Zm13.356,0l0,11.385l-7.632,0l0,-11.385l7.632,0Zm13.356,0l0,11.385l-7.632,0l0,-11.385l7.632,0Zm13.356,0l0,11.385l-7.632,0l0,-11.385l7.632,0Zm-106.85,18.974l0,11.385l-7.632,0l0,-11.385l7.632,0Zm13.356,0l0,11.385l-7.632,0l0,-11.385l7.632,0Zm13.356,0l0,11.385l-7.632,0l0,-11.385l7.632,0Zm13.356,0l0,11.385l-7.632,0l0,-11.385l7.632,0Zm13.356,0l0,11.385l-7.632,0l0,-11.385l7.632,0Zm13.356,0l0,11.385l-7.632,0l0,-11.385l7.632,0Zm13.356,0l0,11.385l-7.632,0l0,-11.385l7.632,0Zm13.356,0l0,11.385l-7.632,0l0,-11.385l7.632,0Zm13.356,0l0,11.385l-7.632,0l0,-11.385l7.632,0Zm-106.85,18.974l0,11.385l-7.632,0l0,-11.385l7.632,0Zm13.356,0l0,11.385l-7.632,0l0,-11.385l7.632,0Zm13.356,0l0,11.385l-7.632,0l0,-11.385l7.632,0Zm13.356,0l0,11.385l-7.632,0l0,-11.385l7.632,0Zm13.356,0l0,11.385l-7.632,0l0,-11.385l7.632,0Zm13.356,0l0,11.385l-7.632,0l0,-11.385l7.632,0Zm13.356,0l0,11.385l-7.632,0l0,-11.385l7.632,0Zm13.356,0l0,11.385l-7.632,0l0,-11.385l7.632,0Zm13.356,0l0,11.385l-7.632,0l0,-11.385l7.632,0Zm-106.85,18.974l0,11.385l-7.632,0l0,-11.385l7.632,0Zm13.356,0l0,11.385l-7.632,0l0,-11.385l7.632,0Zm13.356,0l0,11.385l-7.632,0l0,-11.385l7.632,0Zm13.356,0l0,11.385l-7.632,0l0,-11.385l7.632,0Zm13.356,0l0,11.385l-7.632,0l0,-11.385l7.632,0Zm13.356,0l0,11.385l-7.632,0l0,-11.385l7.632,0Zm13.356,0l0,11.385l-7.632,0l0,-11.385l7.632,0Zm13.356,0l0,11.385l-7.632,0l0,-11.385l7.632,0Zm13.356,0l0,11.385l-7.632,0l0,-11.385l7.632,0Zm-106.85,18.974l0,11.385l-7.632,0l0,-11.385l7.632,0Zm13.356,0l0,11.385l-7.632,0l0,-11.385l7.632,0Zm13.356,0l0,11.385l-7.632,0l0,-11.385l7.632,0Zm13.356,0l0,11.385l-7.632,0l0,-11.385l7.632,0Zm13.356,0l0,11.385l-7.632,0l0,-11.385l7.632,0Zm13.356,0l0,11.385l-7.632,0l0,-11.385l7.632,0Zm13.356,0l0,11.385l-7.632,0l0,-11.385l7.632,0Zm13.356,0l0,11.385l-7.632,0l0,-11.385l7.632,0Zm13.356,0l0,11.385l-7.632,0l0,-11.385l7.632,0Zm-106.85,18.974l0,11.385l-7.632,0l0,-11.385l7.632,0Zm13.356,0l0,11.385l-7.632,0l0,-11.385l7.632,0Zm13.356,0l0,11.385l-7.632,0l0,-11.385l7.632,0Zm13.356,0l0,11.385l-7.632,0l0,-11.385l7.632,0Zm13.356,0l0,11.385l-7.632,0l0,-11.385l7.632,0Zm13.356,0l0,11.385l-7.632,0l0,-11.385l7.632,0Zm13.356,0l0,11.385l-7.632,0l0,-11.385l7.632,0Zm13.356,0l0,11.385l-7.632,0l0,-11.385l7.632,0Zm13.356,0l0,11.385l-7.632,0l0,-11.385l7.632,0Zm-106.85,18.974l0,11.385l-7.632,0l0,-11.385l7.632,0Zm13.356,0l0,11.385l-7.632,0l0,-11.385l7.632,0Zm13.356,0l0,11.385l-7.632,0l0,-11.385l7.632,0Zm13.356,0l0,11.385l-7.632,0l0,-11.385l7.632,0Zm13.356,0l0,11.385l-7.632,0l0,-11.385l7.632,0Zm13.356,0l0,11.385l-7.632,0l0,-11.385l7.632,0Zm13.356,0l0,11.385l-7.632,0l0,-11.385l7.632,0Zm13.356,0l0,11.385l-7.632,0l0,-11.385l7.632,0Zm13.356,0l0,11.385l-7.632,0l0,-11.385l7.632,0Z" style="fill:#515151;"/></g><path d="M1208.035,434.082l0,259.466m139.537,-259.466l0,259.466m-139.537,-259.466l139.537,0m-139.537,20.687l139.537,0m-139.537,-20.623l139.537,0m0,-0.065l0,20.687m-139.537,-20.687l0,20.687" style="fill:#fff;stroke:#000;stroke-width:6.25px;stroke-linejoin:miter;"/></g></g></g><g><g><g><rect x="1179.666" y="554.994" width="74.917" height="138.246" style="fill:#fff;stroke:#000;stroke-width:4.17px;"/><rect x="1177.954" y="656.053" width="36.413" height="37.187" style="fill:#ffc200;stroke:#000;stroke-width:4.17px;"/></g><path d="M1175.355,554.994l79.229,0l0,138.246l-79.229,0m2.327,-46.31l75.699,0" style="fill:none;stroke:#000;stroke-width:4.17px;"/><path d="M1175.355,572.404l38.807,0l0,24.96l-38.807,0m0,12.579l38.807,0l0,24.761l-38.807,0m2.6,21.35l36.413,0l0,37.187" style="fill:none;stroke:#000;stroke-width:4.17px;"/></g><g><path d="M1399.941,604.056l0,89.185l-86.337,0l0,-120.837l86.337,31.652Z" style="fill:#fff;"/><path d="M1329.599,693.24l0,-42.345l18.009,0l0,42.345" style="fill:#0098ff;stroke:#000;stroke-width:5px;"/><path d="M1399.941,604.056l0,89.185l-86.337,0l0,-120.837l86.337,31.652Z" style="fill:none;stroke:#000;stroke-width:5px;"/><rect x="1323.134" y="615.59" width="12.929" height="12.857" style="fill:none;stroke:#000;stroke-width:4.17px;"/><rect x="1345.91" y="615.59" width="12.929" height="12.857" style="fill:none;stroke:#000;stroke-width:4.17px;"/><rect x="1367.704" y="646.635" width="12.929" height="12.857" style="fill:none;stroke:#000;stroke-width:4.17px;"/></g><path d="M1530.616,650.108l65.14,0m-65.14,14.173l65.14,0m-65.14,14.173l65.14,0m0,-44.302l0,59.396l-66.148,-0.308l0,-59.396l66.148,0.308Z" style="fill:none;stroke:#000;stroke-width:4.17px;"/><path d="M1876.345,521.911l0,171.33l-180.515,0l0,-85.093c0,0 -2.271,-47.355 45.129,-47.355c47.4,0 45.129,47.355 45.129,47.355l-0,-53.154c0,-52.065 73.194,-59.22 90.258,-33.083Z" style="fill:#1c8e1d;stroke:#000;stroke-width:4.17px;stroke-linejoin:miter;"/><g><path d="M1718.792,594.771l0,98.778l-123.036,-0.513l0,-98.778l61.518,-50.223l61.518,50.735Z" style="fill:#fff;"/><g><path d="M1696.403,650.791l0,40.642l-27.253,0l0,-40.642c0,0 0.017,-10.81 12.846,-10.81c12.829,0 14.407,10.81 14.407,10.81Z" style="fill:#ffdf00;"/><path d="M1718.792,594.771l0,98.778l-123.036,-0.513l0,-98.778l61.518,-50.223l61.518,50.735Zm-49.642,0.599l0,23.422l-23.752,0l0,-23.422l23.752,0Zm-18.271,44.611l0,10.81l-10.962,0l0,-10.81l10.962,0Zm45.524,10.81l0,42.758l-27.253,0l0,-42.758c0,0 0.017,-10.81 12.846,-10.81c12.829,0 14.407,10.81 14.407,10.81Z" style="fill:none;stroke:#000;stroke-width:4.17px;"/></g></g></g></g></g><g><path d="M1630.689,543.252l133.692,304.668c35.942,57.08 -507.309,57.71 -477.631,0l133.912,-304.668c20.712,-44.633 196.593,-48.675 210.028,0Z" style="fill:#f8f18c;stroke:#000;stroke-width:6.25px;"/><path d="M1371.744,654.545c0,0 17.782,60.682 34.866,60.682c17.083,0 13.279,-60.682 53.141,-60.682c18.436,0 18.306,33.088 50.69,33.088c24.192,0 22.96,-33.088 52.242,-33.088c35.045,0 10.739,133.961 51.243,133.961c28.113,0 20.303,-133.961 37.387,-133.961l27.934,0l-46.929,-110.509c-19.996,-49.473 -182.876,-47.86 -210.979,0l-49.594,110.509Z" style="fill:#73533f;stroke:#000;stroke-width:6.25px;"/><path d="M1526.114,500.61c45.24,0 55.72,29.463 47.664,39.679c-8.056,10.216 -88.059,10.216 -96.003,0c-7.944,-10.216 3.099,-39.679 48.339,-39.679Z" style="fill:#fff;stroke:#000;stroke-width:6.25px;"/><ellipse cx="1525.832" cy="496.888" rx="31.735" ry="30.214" style="fill:#d84353;stroke:#000;stroke-width:6.25px;"/><path d="M1526.184,485.711c0,0 -14.351,-108.063 87.93,-108.063" style="fill:none;stroke:#000;stroke-width:6.25px;"/></g></g><path d="M866.829,597.24c-14.303,-0 -14.303,-19.913 0,-19.913l118.291,0c0,0 -39.349,-33.27 -46.957,-40.878c-8.63,-8.63 4.032,-21.683 12.662,-13.053c11.248,11.248 73.014,63.887 73.014,63.887c0,0 -60.754,51.627 -73.014,63.887c-11.332,11.332 -24.75,-1.064 -13.418,-12.396c7.224,-7.224 47.712,-41.535 47.712,-41.535l-118.291,0Z" style="fill-rule:nonzero;stroke:#000;stroke-width:8.33px;stroke-linecap:butt;stroke-miterlimit:2;"/></g></svg>